<mxfile host="Electron" agent="Mozilla/5.0 (Windows NT 10.0; Win64; x64) AppleWebKit/537.36 (KHTML, like Gecko) draw.io/24.7.17 Chrome/128.0.6613.36 Electron/32.0.1 Safari/537.36" version="24.7.17" pages="2">
  <diagram name="1" id="q-QzSfNyK7HRaEQ6Jub7">
    <mxGraphModel dx="1793" dy="1045" grid="1" gridSize="10" guides="1" tooltips="1" connect="1" arrows="1" fold="1" page="1" pageScale="1" pageWidth="827" pageHeight="1169" math="0" shadow="0">
      <root>
        <mxCell id="0" />
        <mxCell id="1" parent="0" />
        <mxCell id="w9lMxD59z_e5wK0FmAAz-13" style="edgeStyle=orthogonalEdgeStyle;rounded=0;orthogonalLoop=1;jettySize=auto;html=1;exitX=0.5;exitY=1;exitDx=0;exitDy=0;entryX=0.5;entryY=0;entryDx=0;entryDy=0;" edge="1" parent="1" source="w9lMxD59z_e5wK0FmAAz-2" target="w9lMxD59z_e5wK0FmAAz-4">
          <mxGeometry relative="1" as="geometry" />
        </mxCell>
        <mxCell id="w9lMxD59z_e5wK0FmAAz-2" value="Начало" style="rounded=1;whiteSpace=wrap;html=1;arcSize=50;container=0;strokeWidth=2;fontFamily=JetBrains Mono;fontSize=10;" vertex="1" parent="1">
          <mxGeometry x="10" y="20" width="200" height="30" as="geometry" />
        </mxCell>
        <mxCell id="w9lMxD59z_e5wK0FmAAz-3" value="Конец" style="rounded=1;whiteSpace=wrap;html=1;arcSize=50;container=0;strokeWidth=2;fontFamily=JetBrains Mono;fontSize=10;" vertex="1" parent="1">
          <mxGeometry x="10" y="320" width="200" height="30" as="geometry" />
        </mxCell>
        <mxCell id="w9lMxD59z_e5wK0FmAAz-14" style="edgeStyle=orthogonalEdgeStyle;rounded=0;orthogonalLoop=1;jettySize=auto;html=1;exitX=0.5;exitY=1;exitDx=0;exitDy=0;entryX=0.5;entryY=0;entryDx=0;entryDy=0;" edge="1" parent="1" source="w9lMxD59z_e5wK0FmAAz-4" target="w9lMxD59z_e5wK0FmAAz-5">
          <mxGeometry relative="1" as="geometry" />
        </mxCell>
        <mxCell id="w9lMxD59z_e5wK0FmAAz-4" value="Ввод n" style="shape=parallelogram;perimeter=parallelogramPerimeter;whiteSpace=wrap;html=1;fixedSize=1;size=30;container=0;strokeWidth=2;fontFamily=JetBrains Mono;fontSize=10;" vertex="1" parent="1">
          <mxGeometry x="10" y="70" width="200" height="30" as="geometry" />
        </mxCell>
        <mxCell id="w9lMxD59z_e5wK0FmAAz-9" style="edgeStyle=orthogonalEdgeStyle;rounded=0;orthogonalLoop=1;jettySize=auto;html=1;exitX=0.5;exitY=1;exitDx=0;exitDy=0;entryX=0.5;entryY=0;entryDx=0;entryDy=0;" edge="1" parent="1" source="w9lMxD59z_e5wK0FmAAz-5">
          <mxGeometry relative="1" as="geometry">
            <mxPoint x="110" y="249.55000000000007" as="targetPoint" />
          </mxGeometry>
        </mxCell>
        <mxCell id="w9lMxD59z_e5wK0FmAAz-10" value="1" style="edgeLabel;html=1;align=center;verticalAlign=middle;resizable=0;points=[];" vertex="1" connectable="0" parent="w9lMxD59z_e5wK0FmAAz-9">
          <mxGeometry x="-0.2286" relative="1" as="geometry">
            <mxPoint x="10" y="33" as="offset" />
          </mxGeometry>
        </mxCell>
        <mxCell id="w9lMxD59z_e5wK0FmAAz-16" style="edgeStyle=orthogonalEdgeStyle;rounded=0;orthogonalLoop=1;jettySize=auto;html=1;exitX=1;exitY=0.5;exitDx=0;exitDy=0;entryX=0.5;entryY=0;entryDx=0;entryDy=0;" edge="1" parent="1" source="w9lMxD59z_e5wK0FmAAz-5" target="w9lMxD59z_e5wK0FmAAz-15">
          <mxGeometry relative="1" as="geometry" />
        </mxCell>
        <mxCell id="w9lMxD59z_e5wK0FmAAz-18" value="0" style="edgeLabel;html=1;align=center;verticalAlign=middle;resizable=0;points=[];" vertex="1" connectable="0" parent="w9lMxD59z_e5wK0FmAAz-16">
          <mxGeometry x="-0.1351" relative="1" as="geometry">
            <mxPoint x="10" y="30" as="offset" />
          </mxGeometry>
        </mxCell>
        <mxCell id="w9lMxD59z_e5wK0FmAAz-5" value="n &amp;lt;= 0" style="rhombus;whiteSpace=wrap;html=1;strokeWidth=2;fontFamily=JetBrains Mono;fontSize=10;" vertex="1" parent="1">
          <mxGeometry x="10" y="120" width="200" height="60" as="geometry" />
        </mxCell>
        <mxCell id="w9lMxD59z_e5wK0FmAAz-8" style="edgeStyle=orthogonalEdgeStyle;rounded=0;orthogonalLoop=1;jettySize=auto;html=1;exitX=0.5;exitY=1;exitDx=0;exitDy=0;entryX=0.5;entryY=0;entryDx=0;entryDy=0;" edge="1" parent="1" target="w9lMxD59z_e5wK0FmAAz-3">
          <mxGeometry relative="1" as="geometry">
            <mxPoint x="110" y="279.54999999999995" as="sourcePoint" />
          </mxGeometry>
        </mxCell>
        <mxCell id="w9lMxD59z_e5wK0FmAAz-17" style="edgeStyle=orthogonalEdgeStyle;rounded=0;orthogonalLoop=1;jettySize=auto;html=1;exitX=0.5;exitY=1;exitDx=0;exitDy=0;entryX=0.5;entryY=0;entryDx=0;entryDy=0;" edge="1" parent="1" source="w9lMxD59z_e5wK0FmAAz-15" target="w9lMxD59z_e5wK0FmAAz-3">
          <mxGeometry relative="1" as="geometry">
            <Array as="points">
              <mxPoint x="230" y="300" />
              <mxPoint x="110" y="300" />
            </Array>
          </mxGeometry>
        </mxCell>
        <mxCell id="w9lMxD59z_e5wK0FmAAz-15" value="gen(n)" style="shape=process;whiteSpace=wrap;html=1;backgroundOutline=1;strokeWidth=2;size=0.05;fontFamily=JetBrains Mono;fontSize=10;" vertex="1" parent="1">
          <mxGeometry x="130" y="200" width="200" height="30" as="geometry" />
        </mxCell>
        <mxCell id="w9lMxD59z_e5wK0FmAAz-19" value="Вывод ???" style="shape=parallelogram;perimeter=parallelogramPerimeter;whiteSpace=wrap;html=1;fixedSize=1;size=30;container=0;strokeWidth=2;fontFamily=JetBrains Mono;fontSize=10;" vertex="1" parent="1">
          <mxGeometry x="10" y="250" width="200" height="30" as="geometry" />
        </mxCell>
        <mxCell id="w9lMxD59z_e5wK0FmAAz-24" style="edgeStyle=orthogonalEdgeStyle;rounded=0;orthogonalLoop=1;jettySize=auto;html=1;exitX=0.5;exitY=1;exitDx=0;exitDy=0;entryX=0.5;entryY=0;entryDx=0;entryDy=0;" edge="1" parent="1" source="w9lMxD59z_e5wK0FmAAz-20" target="w9lMxD59z_e5wK0FmAAz-22">
          <mxGeometry relative="1" as="geometry" />
        </mxCell>
        <mxCell id="w9lMxD59z_e5wK0FmAAz-20" value="Начало&lt;div&gt;gen&lt;/div&gt;" style="rounded=1;whiteSpace=wrap;html=1;arcSize=50;container=0;strokeWidth=2;fontFamily=JetBrains Mono;fontSize=10;" vertex="1" parent="1">
          <mxGeometry x="350" y="20" width="200" height="30" as="geometry" />
        </mxCell>
        <mxCell id="w9lMxD59z_e5wK0FmAAz-21" value="Конец&lt;div&gt;gen&lt;/div&gt;" style="rounded=1;whiteSpace=wrap;html=1;arcSize=50;container=0;strokeWidth=2;fontFamily=JetBrains Mono;fontSize=10;" vertex="1" parent="1">
          <mxGeometry x="350" y="930" width="200" height="30" as="geometry" />
        </mxCell>
        <mxCell id="w9lMxD59z_e5wK0FmAAz-27" value="" style="edgeStyle=orthogonalEdgeStyle;rounded=0;orthogonalLoop=1;jettySize=auto;html=1;" edge="1" parent="1" source="w9lMxD59z_e5wK0FmAAz-22" target="w9lMxD59z_e5wK0FmAAz-26">
          <mxGeometry relative="1" as="geometry" />
        </mxCell>
        <mxCell id="w9lMxD59z_e5wK0FmAAz-22" value="n" style="shape=parallelogram;perimeter=parallelogramPerimeter;whiteSpace=wrap;html=1;fixedSize=1;size=30;container=0;strokeWidth=2;fontFamily=JetBrains Mono;fontSize=10;" vertex="1" parent="1">
          <mxGeometry x="350" y="70" width="200" height="30" as="geometry" />
        </mxCell>
        <mxCell id="w9lMxD59z_e5wK0FmAAz-23" value="по значению" style="strokeWidth=2;html=1;shape=mxgraph.flowchart.annotation_1;align=left;pointerEvents=1;fontFamily=JetBrains Mono;fontSize=10;" vertex="1" parent="1">
          <mxGeometry x="590" y="70" width="10" height="30" as="geometry" />
        </mxCell>
        <mxCell id="w9lMxD59z_e5wK0FmAAz-25" style="edgeStyle=orthogonalEdgeStyle;rounded=0;orthogonalLoop=1;jettySize=auto;html=1;exitX=1;exitY=0.5;exitDx=0;exitDy=0;entryX=0;entryY=0.5;entryDx=0;entryDy=0;entryPerimeter=0;dashed=1;endArrow=none;endFill=0;" edge="1" parent="1" source="w9lMxD59z_e5wK0FmAAz-22" target="w9lMxD59z_e5wK0FmAAz-23">
          <mxGeometry relative="1" as="geometry" />
        </mxCell>
        <mxCell id="w9lMxD59z_e5wK0FmAAz-30" value="" style="edgeStyle=orthogonalEdgeStyle;rounded=0;orthogonalLoop=1;jettySize=auto;html=1;" edge="1" parent="1" source="w9lMxD59z_e5wK0FmAAz-26" target="w9lMxD59z_e5wK0FmAAz-29">
          <mxGeometry relative="1" as="geometry" />
        </mxCell>
        <mxCell id="w9lMxD59z_e5wK0FmAAz-26" value="bits = 0" style="rounded=0;whiteSpace=wrap;html=1;strokeWidth=2;fontFamily=JetBrains Mono;fontSize=10;" vertex="1" parent="1">
          <mxGeometry x="350" y="120" width="200" height="30" as="geometry" />
        </mxCell>
        <mxCell id="w9lMxD59z_e5wK0FmAAz-55" style="edgeStyle=orthogonalEdgeStyle;rounded=0;orthogonalLoop=1;jettySize=auto;html=1;exitX=0.5;exitY=0;exitDx=0;exitDy=0;entryX=0.5;entryY=0;entryDx=0;entryDy=0;" edge="1" parent="1" source="w9lMxD59z_e5wK0FmAAz-28" target="w9lMxD59z_e5wK0FmAAz-41">
          <mxGeometry relative="1" as="geometry" />
        </mxCell>
        <mxCell id="w9lMxD59z_e5wK0FmAAz-28" value="&lt;div style=&quot;font-size: 10px;&quot;&gt;&lt;br style=&quot;font-size: 10px;&quot;&gt;&lt;/div&gt;&lt;div style=&quot;font-size: 10px;&quot;&gt;A&lt;/div&gt;" style="shape=loopLimit;whiteSpace=wrap;html=1;size=20;direction=west;strokeWidth=2;fontFamily=JetBrains Mono;fontSize=10;" vertex="1" parent="1">
          <mxGeometry x="350" y="279" width="200" height="41" as="geometry" />
        </mxCell>
        <mxCell id="w9lMxD59z_e5wK0FmAAz-32" style="edgeStyle=orthogonalEdgeStyle;rounded=0;orthogonalLoop=1;jettySize=auto;html=1;exitX=0.5;exitY=1;exitDx=0;exitDy=0;entryX=0.5;entryY=0;entryDx=0;entryDy=0;" edge="1" parent="1" source="w9lMxD59z_e5wK0FmAAz-29" target="w9lMxD59z_e5wK0FmAAz-31">
          <mxGeometry relative="1" as="geometry" />
        </mxCell>
        <mxCell id="w9lMxD59z_e5wK0FmAAz-29" value="&lt;div style=&quot;font-size: 10px;&quot;&gt;A&lt;/div&gt;&lt;div style=&quot;font-size: 10px;&quot;&gt;(1&amp;lt;&amp;lt;bits) &amp;gt;= n&lt;/div&gt;" style="shape=loopLimit;whiteSpace=wrap;html=1;size=18;direction=east;strokeWidth=2;fontFamily=JetBrains Mono;fontSize=10;" vertex="1" parent="1">
          <mxGeometry x="350" y="170" width="200" height="39" as="geometry" />
        </mxCell>
        <mxCell id="w9lMxD59z_e5wK0FmAAz-33" style="edgeStyle=orthogonalEdgeStyle;rounded=0;orthogonalLoop=1;jettySize=auto;html=1;exitX=0.5;exitY=1;exitDx=0;exitDy=0;entryX=0.5;entryY=1;entryDx=0;entryDy=0;" edge="1" parent="1" source="w9lMxD59z_e5wK0FmAAz-31" target="w9lMxD59z_e5wK0FmAAz-28">
          <mxGeometry relative="1" as="geometry" />
        </mxCell>
        <mxCell id="w9lMxD59z_e5wK0FmAAz-31" value="bits = bits + 1" style="rounded=0;whiteSpace=wrap;html=1;strokeWidth=2;fontFamily=JetBrains Mono;fontSize=10;" vertex="1" parent="1">
          <mxGeometry x="350" y="230" width="200" height="30" as="geometry" />
        </mxCell>
        <mxCell id="w9lMxD59z_e5wK0FmAAz-34" value="&amp;lt;&amp;lt; - побитовый сдвиг влево" style="strokeWidth=2;html=1;shape=mxgraph.flowchart.annotation_1;align=left;pointerEvents=1;fontFamily=JetBrains Mono;fontSize=10;" vertex="1" parent="1">
          <mxGeometry x="590" y="174.5" width="10" height="30" as="geometry" />
        </mxCell>
        <mxCell id="w9lMxD59z_e5wK0FmAAz-35" style="edgeStyle=orthogonalEdgeStyle;rounded=0;orthogonalLoop=1;jettySize=auto;html=1;entryX=0;entryY=0.5;entryDx=0;entryDy=0;entryPerimeter=0;dashed=1;endArrow=none;endFill=0;" edge="1" parent="1" source="w9lMxD59z_e5wK0FmAAz-29" target="w9lMxD59z_e5wK0FmAAz-34">
          <mxGeometry relative="1" as="geometry" />
        </mxCell>
        <mxCell id="w9lMxD59z_e5wK0FmAAz-64" value="" style="edgeStyle=orthogonalEdgeStyle;rounded=0;orthogonalLoop=1;jettySize=auto;html=1;" edge="1" parent="1" source="w9lMxD59z_e5wK0FmAAz-36" target="w9lMxD59z_e5wK0FmAAz-63">
          <mxGeometry relative="1" as="geometry" />
        </mxCell>
        <mxCell id="w9lMxD59z_e5wK0FmAAz-36" value="&lt;div style=&quot;font-size: 10px;&quot;&gt;&lt;br style=&quot;font-size: 10px;&quot;&gt;&lt;/div&gt;&lt;div style=&quot;font-size: 10px;&quot;&gt;В&lt;/div&gt;" style="shape=loopLimit;whiteSpace=wrap;html=1;size=20;direction=west;strokeWidth=2;fontFamily=JetBrains Mono;fontSize=10;" vertex="1" parent="1">
          <mxGeometry x="350" y="710" width="200" height="41" as="geometry" />
        </mxCell>
        <mxCell id="w9lMxD59z_e5wK0FmAAz-49" value="" style="edgeStyle=orthogonalEdgeStyle;rounded=0;orthogonalLoop=1;jettySize=auto;html=1;" edge="1" parent="1" source="w9lMxD59z_e5wK0FmAAz-37" target="w9lMxD59z_e5wK0FmAAz-45">
          <mxGeometry relative="1" as="geometry" />
        </mxCell>
        <mxCell id="w9lMxD59z_e5wK0FmAAz-37" value="&lt;div style=&quot;font-size: 10px;&quot;&gt;В&lt;br&gt;j &amp;lt; 0&lt;/div&gt;" style="shape=loopLimit;whiteSpace=wrap;html=1;size=18;direction=east;strokeWidth=2;fontFamily=JetBrains Mono;fontSize=10;" vertex="1" parent="1">
          <mxGeometry x="350" y="500" width="200" height="39" as="geometry" />
        </mxCell>
        <mxCell id="w9lMxD59z_e5wK0FmAAz-51" style="edgeStyle=orthogonalEdgeStyle;rounded=0;orthogonalLoop=1;jettySize=auto;html=1;exitX=0.5;exitY=1;exitDx=0;exitDy=0;entryX=0.5;entryY=0;entryDx=0;entryDy=0;" edge="1" parent="1" source="w9lMxD59z_e5wK0FmAAz-38" target="w9lMxD59z_e5wK0FmAAz-37">
          <mxGeometry relative="1" as="geometry" />
        </mxCell>
        <mxCell id="w9lMxD59z_e5wK0FmAAz-38" value="j = bits - 1" style="rounded=0;whiteSpace=wrap;html=1;strokeWidth=2;fontFamily=JetBrains Mono;fontSize=10;" vertex="1" parent="1">
          <mxGeometry x="350" y="450" width="200" height="30" as="geometry" />
        </mxCell>
        <mxCell id="w9lMxD59z_e5wK0FmAAz-40" value="" style="edgeStyle=orthogonalEdgeStyle;rounded=0;orthogonalLoop=1;jettySize=auto;html=1;" edge="1" parent="1" source="w9lMxD59z_e5wK0FmAAz-39" target="w9lMxD59z_e5wK0FmAAz-36">
          <mxGeometry relative="1" as="geometry" />
        </mxCell>
        <mxCell id="w9lMxD59z_e5wK0FmAAz-39" value="j = j - 1" style="rounded=0;whiteSpace=wrap;html=1;strokeWidth=2;fontFamily=JetBrains Mono;fontSize=10;" vertex="1" parent="1">
          <mxGeometry x="350" y="660" width="200" height="30" as="geometry" />
        </mxCell>
        <mxCell id="w9lMxD59z_e5wK0FmAAz-53" value="" style="edgeStyle=orthogonalEdgeStyle;rounded=0;orthogonalLoop=1;jettySize=auto;html=1;" edge="1" parent="1" source="w9lMxD59z_e5wK0FmAAz-41" target="w9lMxD59z_e5wK0FmAAz-43">
          <mxGeometry relative="1" as="geometry" />
        </mxCell>
        <mxCell id="w9lMxD59z_e5wK0FmAAz-41" value="i = 0" style="rounded=0;whiteSpace=wrap;html=1;strokeWidth=2;fontFamily=JetBrains Mono;fontSize=10;" vertex="1" parent="1">
          <mxGeometry x="350" y="340" width="200" height="30" as="geometry" />
        </mxCell>
        <mxCell id="w9lMxD59z_e5wK0FmAAz-67" value="" style="edgeStyle=orthogonalEdgeStyle;rounded=0;orthogonalLoop=1;jettySize=auto;html=1;" edge="1" parent="1" source="w9lMxD59z_e5wK0FmAAz-42" target="w9lMxD59z_e5wK0FmAAz-21">
          <mxGeometry relative="1" as="geometry" />
        </mxCell>
        <mxCell id="w9lMxD59z_e5wK0FmAAz-42" value="&lt;div style=&quot;font-size: 10px;&quot;&gt;&lt;br style=&quot;font-size: 10px;&quot;&gt;&lt;/div&gt;&lt;div style=&quot;font-size: 10px;&quot;&gt;Б&lt;/div&gt;" style="shape=loopLimit;whiteSpace=wrap;html=1;size=20;direction=west;strokeWidth=2;fontFamily=JetBrains Mono;fontSize=10;" vertex="1" parent="1">
          <mxGeometry x="350" y="870" width="200" height="41" as="geometry" />
        </mxCell>
        <mxCell id="w9lMxD59z_e5wK0FmAAz-52" value="" style="edgeStyle=orthogonalEdgeStyle;rounded=0;orthogonalLoop=1;jettySize=auto;html=1;" edge="1" parent="1" source="w9lMxD59z_e5wK0FmAAz-43" target="w9lMxD59z_e5wK0FmAAz-38">
          <mxGeometry relative="1" as="geometry" />
        </mxCell>
        <mxCell id="w9lMxD59z_e5wK0FmAAz-43" value="&lt;div style=&quot;font-size: 10px;&quot;&gt;&lt;span style=&quot;background-color: initial;&quot;&gt;Б&lt;/span&gt;&lt;/div&gt;&lt;div style=&quot;font-size: 10px;&quot;&gt;&lt;span style=&quot;background-color: initial;&quot;&gt;i &amp;gt;= n&lt;/span&gt;&lt;/div&gt;" style="shape=loopLimit;whiteSpace=wrap;html=1;size=18;direction=east;strokeWidth=2;fontFamily=JetBrains Mono;fontSize=10;" vertex="1" parent="1">
          <mxGeometry x="350" y="390" width="200" height="39" as="geometry" />
        </mxCell>
        <mxCell id="w9lMxD59z_e5wK0FmAAz-47" value="" style="edgeStyle=orthogonalEdgeStyle;rounded=0;orthogonalLoop=1;jettySize=auto;html=1;dashed=1;endArrow=none;endFill=0;" edge="1" parent="1" source="w9lMxD59z_e5wK0FmAAz-45" target="w9lMxD59z_e5wK0FmAAz-46">
          <mxGeometry relative="1" as="geometry" />
        </mxCell>
        <mxCell id="w9lMxD59z_e5wK0FmAAz-60" value="" style="edgeStyle=orthogonalEdgeStyle;rounded=0;orthogonalLoop=1;jettySize=auto;html=1;" edge="1" parent="1" source="w9lMxD59z_e5wK0FmAAz-45" target="w9lMxD59z_e5wK0FmAAz-59">
          <mxGeometry relative="1" as="geometry" />
        </mxCell>
        <mxCell id="w9lMxD59z_e5wK0FmAAz-45" value="bit = (i&amp;gt;&amp;gt;j) &amp;amp; 1" style="rounded=0;whiteSpace=wrap;html=1;strokeWidth=2;fontFamily=JetBrains Mono;fontSize=10;" vertex="1" parent="1">
          <mxGeometry x="350" y="560" width="200" height="30" as="geometry" />
        </mxCell>
        <mxCell id="w9lMxD59z_e5wK0FmAAz-46" value="&amp;gt;&amp;gt; - побитовый сдвиг вправо" style="strokeWidth=2;html=1;shape=mxgraph.flowchart.annotation_1;align=left;pointerEvents=1;fontFamily=JetBrains Mono;fontSize=10;" vertex="1" parent="1">
          <mxGeometry x="590" y="560" width="10" height="30" as="geometry" />
        </mxCell>
        <mxCell id="w9lMxD59z_e5wK0FmAAz-61" value="" style="edgeStyle=orthogonalEdgeStyle;rounded=0;orthogonalLoop=1;jettySize=auto;html=1;" edge="1" parent="1" source="w9lMxD59z_e5wK0FmAAz-59" target="w9lMxD59z_e5wK0FmAAz-39">
          <mxGeometry relative="1" as="geometry" />
        </mxCell>
        <mxCell id="w9lMxD59z_e5wK0FmAAz-59" value="Вывод bit" style="shape=parallelogram;perimeter=parallelogramPerimeter;whiteSpace=wrap;html=1;fixedSize=1;size=30;container=0;strokeWidth=2;fontFamily=JetBrains Mono;fontSize=10;" vertex="1" parent="1">
          <mxGeometry x="350" y="610" width="200" height="30" as="geometry" />
        </mxCell>
        <mxCell id="w9lMxD59z_e5wK0FmAAz-66" value="" style="edgeStyle=orthogonalEdgeStyle;rounded=0;orthogonalLoop=1;jettySize=auto;html=1;" edge="1" parent="1" source="w9lMxD59z_e5wK0FmAAz-62" target="w9lMxD59z_e5wK0FmAAz-42">
          <mxGeometry relative="1" as="geometry" />
        </mxCell>
        <mxCell id="w9lMxD59z_e5wK0FmAAz-62" value="i = i + 1" style="rounded=0;whiteSpace=wrap;html=1;strokeWidth=2;fontFamily=JetBrains Mono;fontSize=10;" vertex="1" parent="1">
          <mxGeometry x="350" y="820" width="200" height="30" as="geometry" />
        </mxCell>
        <mxCell id="w9lMxD59z_e5wK0FmAAz-65" value="" style="edgeStyle=orthogonalEdgeStyle;rounded=0;orthogonalLoop=1;jettySize=auto;html=1;" edge="1" parent="1" source="w9lMxD59z_e5wK0FmAAz-63" target="w9lMxD59z_e5wK0FmAAz-62">
          <mxGeometry relative="1" as="geometry" />
        </mxCell>
        <mxCell id="w9lMxD59z_e5wK0FmAAz-63" value="Вывод &quot; &quot;" style="shape=parallelogram;perimeter=parallelogramPerimeter;whiteSpace=wrap;html=1;fixedSize=1;size=30;container=0;strokeWidth=2;fontFamily=JetBrains Mono;fontSize=10;" vertex="1" parent="1">
          <mxGeometry x="350" y="770" width="200" height="30" as="geometry" />
        </mxCell>
      </root>
    </mxGraphModel>
  </diagram>
  <diagram id="gA7uIsReUiqA47xMOy8_" name="2">
    <mxGraphModel dx="1434" dy="836" grid="1" gridSize="10" guides="1" tooltips="1" connect="1" arrows="1" fold="1" page="1" pageScale="1" pageWidth="827" pageHeight="1169" math="0" shadow="0">
      <root>
        <mxCell id="0" />
        <mxCell id="1" parent="0" />
        <mxCell id="Q8e_VFXuct5rdpdRZlVz-1" value="" style="shape=image;verticalLabelPosition=bottom;labelBackgroundColor=default;verticalAlign=top;aspect=fixed;imageAspect=0;image=data:image/png,iVBORw0KGgoAAAANSUhEUgAAA0AAAAN0CAYAAACdiEj5AAAAAXNSR0IArs4c6QAAIABJREFUeAHsnfd7FEf27u8/cr0GE41BBJFzjiJnE4SEiCKIoAxIQgkBEhJB5JxzsHFaB4yxsQEbx931Oq/Xa6+93nXY8P3eH8593mJrKPV0z/RII830zKvn6adHHaqrT326ut4+Vaf+z//hHy1AC9ACtAAtQAvQArQALUAL0AK0AC1AC9ACtAAtQAvQArQALUAL0AK0AC1AC9ACtAAtQAvQArQALUAL0AK0AC1AC9ACtAAtQAvQArQALUAL0AK0AC1AC9ACtAAtQAvQArQALUAL0AK0AC1AC9ACtAAtQAvQArQALUAL0AK0AC1AC9ACtAAtQAvQArQALUAL0AK0AC1AC9ACtAAtQAvQArQALUAL0AK0AC1AC9ACtAAtQAvQArQALUAL0AK0AC1AC9ACtAAtQAvQArQALUAL0AK0AC1AC9ACtAAtQAvQArQALUAL0AK0AC1AC9ACtAAtQAvQArQALUAL0AK0AC1AC9ACtAAtQAvQArQALUAL0AK0AC1AC9ACtAAtQAvQArQALUAL0AK0AC1AC9ACtAAtQAvQArQALUAL0AK0AC1AC9ACtAAtQAvQArQALUAL0AK0AC1AC9ACtAAtQAvQArQALUAL0AK0AC1AC9ACtAAtQAvQArQALUAL0AK0AC1AC9ACtAAtQAvQArQALUAL0AK0AC1AC9ACtAAtQAvQArQALUAL0AK0AC1AC9ACtAAtQAvQArQALUAL0AK0AC1AC9ACtAAtQAvQArQALUAL0AK0AC1AC9ACtAAtQAvQArQALUAL0AK0AC1AC9ACtAAtQAvQArQALUAL0AK0AC1AC9ACtAAtQAvQArQALUAL0AK0AC1AC9ACtAAtQAvQArQALUAL0AK0AC1AC9ACtAAtQAvQArQALUAL0AK0AC1AC9ACtAAtQAvQArQALUALxKEFfvOb9j0feaT97t/8psMf/u//7fD/Hnmkg3ChDcgAGSADZIAMkAEyQAbIQGwygDY/2v4PNED7nnElgXDTBDs2wWa5slzJABkgA2SADJABMkAG3DHQfndciKBHHunwrDuDEBzaiQyQATJABsgAGSADZIAMxDgDz8a0CKLnhw9wjD/A7MbJrqxkgAyQATJABsgAGQiZgRj1BD0Y80MBQAFABsgAGSADZIAMkAEyQAbIQF0GoBVizhNE70/dQib0tAcZIANkgAyQATJABsgAGdAMxKAX6EHEB32DXBN2MkAGyAAZIANkgAyQATJABh4wAK0Qcx4ghrrmA84HnAyQATJABsgAGSADZIAM2DEArRBzAsjuRrmNDwAZIANkgAyQATJABsgAGSADYIACKOToEQSHlQcZIANkgAyQATJABsgAGfAqAxRAFEAMoUgGyAAZIANkgAyQATJABuKGAQogwh43sHv1KwXzzS9sZIAMkAEyQAbIABkIHwMUQBRAFEBkgAyQATJABsgAGSADZCBuGKAAIuxxAzu/nITvywltSVuSATJABsgAGSADXmWAAogCiAKIDJABMkAGyAAZIANkgAzEDQMUQIQ9bmD36lcK5ptf2MgAGSADZIAMkAEyED4GKIAogCiAyAAZIANkgAyQATJABshA3DBAAUTY4wZ2fjkJ35cT2pK2JANkgAyQATJABrzKAAUQBRAFEBkgA2SADJABMkAGyAAZiBsGKIAIe9zA7tWvFMw3v7CRATJABsgAGSADZCB8DFAAUQBRAJEBMkAGyAAZIANkgAyQgbhhgAKIsMcN7PxyEr4vJ7QlbUkGyAAZIANkgAx4lQEKIAogCiAyQAbIABkgA2SADJABMhA3DFAAEfa4gd2rXymYb35hIwNkgAyQATJABshA+BigAKIAogAiA2SADJABMkAGyAAZIANxwwAFEGGPG9j55SR8X05oS9qSDJABMkAGyAAZ8CoDFEAUQBRAZIAMkAEyQAbIABkgA2QgbhigACLscQO7V79SMN/8wkYGyAAZIANkgAyQgfAxQAFEAUQBRAbIABkgA2SADJABMkAG4oYBCiDCHjew88tJ+L6c0Ja0JRkgA2SADJABMuBVBiiAKIAogMgAGSADZIAMkAEyQAbIQNwwQAFE2OMGdq9+pWC++YWNDJABMkAGyAAZIAPhY4ACiAKIAogMkAEyQAbIABkgA2SADMQNAxRAhD1uYOeXk/B9OaEtaUsyQAbIABkgA2TAqwxQAFEAUQCRATJABsgAGSADZIAMkIG4YYACiLDHDexe/UrBfPMLGxkgA2SADJABMkAGwscABRAFEAUQGSADZIAMkAEyQAbIABmIGwYogAh73MDOLyfh+3JCW9KWZIAMkAEyQAbIgFcZoACiAKIAIgNkgAyQATJABsgAGSADccMABRBhjxvYvfqVgvnmFzYyQAbIABkgA2SADISPAQogCiAKIDLgWQZateouw0fOllatu9veQ/8Bk6RHzzHy6KMdbfdH+mXSsdNgWbmmQrbUnJXte65K5Y7z0m/AxKjMa6RtxeuH78VPW9KWZIAMxDsDFEBs/EZVY6vZo51ke+51uX38V7l5+EfJmr8rqvIX7xVGtNw/hENG5hap2X1FyitPSoeEAbacJKfmKGGxufqMPDl3tbRo0dX2uEjc1+ikeUrwQPjohQKIjZJIsMhrkjsyQAbijQEKIAqgqGkQ4uFLnpgrrx35u9w5+W+1XK35WLokDIuqPMZbJaHv9ze/6SgTF1ZL3pEvZE3t+9K134wIlEuCTJmWLlU7L/pEgxsBpAVGyeajyiOk7ylS6/bt+0txxRF1D7iXhUsLpFfvJGnfob80b945Anblyz9SLPC6ZI8MkAEy0PQMUAB5WAD17J0kWXk1sqF4v1qWZZRLy5bdPN14sgqgp3d8Kj06j/H0PcVKxTZsap6UXv5VNj31v2pZse12E5dLgiSnZiuvDwQNhEPy/Bxp07ZngHwkSM9eYyR73Q7fefAGoWtcJMsF3faqay8rATRl+rKI5iWSduC1m/6lT5vT5mSADJCBDkIB5EEBhPEMSeNSJb9wt0/8QATFggBq16av1K573tcFLm/h3iZtHPbuOl6u7/xMeZ+wxv+sKB68LManVfrED0TQnKzTTWqbMeNSpLr2khIN8J507TYihOsnyPhJC3yeI3iCOnYaFML54X1hjhmbou6DXd7Ca1c+q7QnGSADZIAMuGGAAshjAqhFy66SunCdrN+4T4mf3A27JDt/R8x4gNxA25jHUAA5V5ztOo2QldV3pOD0d7Ko9AVp077pBITZZax08zHp3GVovcTLhEkLfZ6XBUs2yCOPJNQrnYYyOHjodNm266LySo0akxyRPDT0Hni+87NC29A2ZIAMkIHoZoACyEMCqN0TfWXlms0+r8/KtVskoeNAmb9oHQVQmMqRAig6K6xpM5crsYCgB5OnLq23YMD4mszcauV92VR1SrokRmZ8GSK9wfuDrnzwBvFFGZ3csVxYLmSADJCB2GSAAihMDeemeEAwliGvoFZ5f2YnZ8pjjyWqhhMFUPgeTgqg8NkyXM9EixaJkrt+lxILBSUHgoz5CZ7/kaPn+rxAM2atjIj4SOw6TCq2nVb3NGdeZkTyEK7yYTrBmaONaCMyQAbIQHQxQAHkMQGEoAcjR8+p02DysgBKGpwmNw5+74v6pqO/6fW6xfvr3KtdBXJ2y311PtIZP3SRrEreJs/WfilvnfinvHXiX/LKgb9KdfY1SezoP2Zk8YxSef3oT47X1/kw17gO8m2Xl4Zsa96im4yaVSSTF++QxL7Tpd/opZK++VVZtvU1GTF9nbpeu47DJHXDVVle+YbMzTkTsBtas+ZdZMzcUpUGjp9f+JQkdBsnrdr2lXEpm9V1Bk1YY3sf5jHIj7lMWrRdOveabHuevn9EjBs+LV+dN3JmgSAvXXpPkeS88yrvD/J/VjokBg9wgbE68NbAW4Joafoa9V3Dk1pScVSlB49qfdNpyHkI243odbgnhOpuSFo8N7peqiwPlgcZIANkIPoZoADykABCw61DwkC/xhIF0EMBVJV1VQVQMAWL/n2x6kMZ0HNKHftFkwCCOFl/4hspv/ofWbb1lpRd/bcv6EDx+X/IuNQtsuHkt75tCESA4yCcrJUtBEr2/o/rHIvjcT7EVNHZH9S+5NzzfucircET10rJpV/8zkcayEvfUUtsz9P5eLzDEMk99Kk6P6PmrszOPCmll//pl17xxZ9k6OTsgGmZ3cXGTWi48GzWrLOKngjxsa5or+MkqvpeGmPdunUP2VC8TwmgVVlbA95/Y1yfaUb/y5llxDIiA2SADDQeAxRAHhJATg+ClwVQqxbdZdTAecqjAq8Klpy03T6vTCgeIHhy4O15ascngvMQUrs65ym5deQfysMDb1Bl5uU6jc0hfWbK+iUHpSj9qFrKMk7LS/u/Vcdjjf/1Pr1GZDo7b5JT+bjd3nPIPNl47kclgPKPfqm8QVOW1gpEAoQHREta0XUZOC5DMvf+Tm2zEyMIVqDFT/m1/5F1x/6kvC6rd95XIgRriBvsgyfILn/wHBWe+aHOogUMgiB06hk4jDTmCNIiK2vf79X1svf/QWauPiIp6y7J+hN/9okhzCuEPNvlA9seRky7IP0HBr6uUxrW7fD8QACVbTmu5t6x7m/s/1u17q7EF/JAAdR4L7jGLkemz7IjA2SADHiTAQogCiDHhmekHmrTKxOKAIKn51TFPWn/eP869zQzaY28euhvStQ8t/srPy+QeZ+RHAM0YsYGJVAw1w7m3NH5QuQ1CKD0zTcFXcuwHQIFniIIGXhr9LFYp6y7rI6HB2lGxiHfOdg3dEqOz7Njd66Zjvkb183Yfk+lC3HV5okBda5pHovfpgcJggn5NY8xRRqEFe7d3G/+fiiAzgu8Qea++v5GtzOIj0CTqNY3bTfnIfiC7tYXqXFIbvLJY7z5Yme5sdzIABkgA4EZoACiAApLgzKcD1p9BRA8QDjXLi/HSm8rAQQhNH3MKttjcF4kBdC05fuUwDA9LOjetmbXu2o7xt7oe9Nz8sDLAm+L3q670UEwYaJSa/c4CBftHSo8870al6PPDbQ2u7S5mQBV5w/5cJovSN8vjsHxTtf3tgBKkHbt+gjG/GBB+G7MR1RYelAJsPzCPQ0O6uBkN24P/PKjfWgfMkAGyED8MkABRAHk2PCMVMVQXwEUKDhB6cpTSgAFEkm430gKoIUlz/t5WLTwKL30qwyZlOUrK4zdgXDAOBsco8tKe5HgHbJ6XXCM6cnJOfiJtG0/2HeuTsNubXZpg4fJ7hhzm/ZCoUsfuvaZ+/RvLZJi2QNkdnWDx0kvG8sPy6QpS6RFi662ttE24jp+X84se5Y9GSADZKDxGKAAogCKugZYYwggdKVDF7loFUCmMDE9LFp4WD09OAYCCN4h08ujvSp2Y4NQkULwQPjgXHStc1u5QnxBhAXz1uj0dLc9q0DT+7HWIi6QSMJxXvYAOQkgCKGSzUdl6PCH3jvTNvzdeC892pa2JQNkgAyQAQogCiDXjeCmqjDiUQBpTw8Ehulh0cIDQRHadxmlysrsxgavkVku2otkdqMz9yMUNbq+Wa9jHmP3W3tr3IwbMvOHcUN63JI1XS3izHuzHoP/vSyA7O6nTduesmDJBjWx65aac9K334Q6ZWh3DrfxZU0GyAAZIANkIHwMUABRAEVd4yseBZD29Fg9LFp4mJ4ec5wPPD66QjTHCzkFKjCDE5hjinQaTmvdpc3NuCFEiIMAw71gziK7NE2RZN6b3bGxJoBwj20f7yVFZQ/GAYVjbiM7u3Fb+F6UtCVtSQbIABmILQYogCiAbBuokXzQ41EAaWFi9bBo4WF6ejAHD7q4WcfOmF4kp+5tCHuN8NfWMUXByttNlzadBsJ0l1z8WQkgU6Dp/VibIg6TvZr7rL9HjUlW3pJtuy7K4KHTAx5rPdfpf4SeVt3QKo4K5tdyOq6xtptd4xgGO7Zeqo3FDNMlJ2SADJCB8DFAAUQB1OSNv2APcDwKIO3psXpYtPAwhYQOgW0d52N6kcxudKa99bgb65gi8xjrb3PcUKAubfo8n8gKEN5aizh4iWatOR6QwVicCLV9h/5qDiKIMHqAwvdC0wxyTZuSATJABshAIAYogCiAAjY+A8HTWPviUQBpT48ZmU0LD2tENwgGCIf1J75RnhRdDtqLhH12AsjsIhcoOIFOT6/NcUNOXdr0sVjr/AUKbqBFnPXezHT0b1MspK+0D3Ouj3WzTug4SMq3nlQeIEyI6uaccB+DkNiYgwgCCHMShTt9pscXPxkgA2SADJABZwYogCiAoq7xFUkB1OzRTnJu63u+SVMH926aKF3a02N6WLTwsHp6dKCDzD0fSau2fXzlZ3Y9MydN1RWgOQlqsHE3+hysTWHlZtwQurRBhAUKbqBFkvXezOvq382adZasvJoHXdY2HxUIIr2vPuuRo+dKde1l1a1u4pRFDUqrPtfHOeH2atU3HzzP+eVI29A2ZIAMkIHYZYACyEMCqE2bnjJ0+EwZPnJ2nWX5qk2yoXi/rMmuklFJyXX2JXYdHpEGnttKY2CvaZI0OK3OkpO2W4WrRtjq8lVn6+zDsZirx0z/7Jb7SrAEmgfIbRhspLst+6pK760T/5LTm9+RovSjdZa8hXslseOIOnkw8xPqb+3pgWgwPSxa0JieHtOLY4bLxjXNcTUYSzRhwTYVgQ1R2EbPLlbR39bu/kCJk+KLP8mUpbXSqcdEada8i7oXHJfQbayaHBXiSy/ofodxQ2VX/iUTF1b7tuv9pgjDbwgz3ItVoJl20SLOvDdzv/U3hErN7itqmTEro962N8feIAx1Q8WUNZ9u/+8/cJJU7rigRB2CPLg9j8fF7suYZcuyJQNkgAw0HQMUQB4SQD17jZG8gloldiB43CxTpqdHdeNKixeIHbfLrvzn6tyTTiNcAmjUwHnywp6vHfMT6Dr1qbzMqGmmh0WPpTGFBEJhw7MCgYHxPNbrJeedV2IF+63L8so3ZNCENQLxo/eZAsRMW+8PtrYGYjBFmFNwA1PEOUWrs96XKVwQOrr/wMl+9249x///BElOzVYiKtJdzxojsp3//Tbdi4TXpq3JABkgA2TASwxQAFEA1aMhGb6HXIsXt+IHxzW2AMID3K/7JDlaeltuH/vFTwiFWwBpT481MpsOWGB6enoOmScYWwOPDASStbJ5rGUPWVT6Wym/9h+fyIFISVl3SVq17as8QvD8bDz/d7XfFCA67WCix9xv7cJmpuEU3MAUWua9We/F+j9ED8QPxMvm6jMycPAUv/u3nqP/b968s6QuyPeJn/zCPYL5ePT+pl7ryHbwak2eujRi+Wjq++b1wld30pa0JRkgA2Sg/gxQAHlIABH0+oMeb7ZDtzp0UYN3CaIoVu5/3MQ0qa69pEQQxMPqrErp1WesPPpoR9t7bNEiUZLGp0pR+SF1DsRTccUR6dxlqO3xTWWnLonDZFPVKZWnyh3nZf7CddKrd5Lqkgex1lT54HVYp5ABMkAGyEA8MkABRAHExhYZ8BQDQ4fPkE2VD8QDBA2iqSGqml0FjghrOAYLBFNW/nbp0MH+WLvzG3PbuAlpUrXzoi9/yCPEEAIkNOZ1mTYbO2SADJABMhDvDFAAsfHLxhYZ8BwDrVp1l1nJa1RXuGACCMKnsPSgDBmGiH4JUXWv3XuOkozMLbJ1+3mfN4gCiA2TeG+Y8P75DJABMtDYDFAAsfEbVQ3Cxgae6cdWpYqubwkdB4pTt7GOnQZFdKwPeYst3lieLE8yQAbIQGwwQAFEAUQBRAbIABkgA2SADJABMkAG4oYBCiDCHjew86tNbHy1YTmyHMkAGSADZIAMkIGGMEABRAFEAUQGyAAZIANkgAyQATJABuKGAQogwh43sDfkSwHP5ZcmMkAGyAAZIANkgAzEBgMUQBRAFEBkgAyQATJABsgAGSADZCBuGKAAIuxxAzu/2sTGVxuWI8uRDJABMkAGyAAZaAgDFEAUQBRAZIAMkAEyQAbIABkgA2QgbhigACLscQN7Q74U8Fx+aSIDZIAMkAEyQAbIQGwwQAFEAUQBRAbIABkgA2SADJABMkAG4oYBCiDCHjew86tNbHy1YTmyHMkAGSADZIAMkIGGMEABRAFEAUQGyAAZIANkgAyQATJABuKGAQogwh43sDfkS0Gkzl0ys1RuHPpBbh//VfYX3pB2bfqyvPjMkgEyQAbIABkgA2SgAQxQADXAeJFqFPO68eH27ZIwTK7WfCx3Tv5bLa8d+bskT8xlhcdnlgyQATJABsgAGSADDWCAAqgBxoukEOnVZ6wsWV4s+YW7ZUPxflm/cZ+szqqU8RMXyGOPJfKh8Gi5mkxZBdDrR3+SBdOKWLYxULZmOfN3fHzQYDmznMkAGSAD0cMABZDHGlPNmnWSWclrleCB8LFbIIQ6dR7ChrLHytauYsxIrvJ1gTu48aa0f7x/k5brrvznlPcJ4mvxjNImvbadPbgtel4eLAuWBRkgA2SADHiVAQogjzWSJ01d4hM/a3OrZczYFEnoOFAGDJoii5dt9O1buWaztGnbiw1Wj5VvtFUkFEB8uUUbk8wPmSQDZIAMkIGGMkAB5KEGckLHQZKVv115fdJXlkmr1t39BM7kaelKBKFL3MjRc/32NxQYnh9flQ4FUHyVN59vljcZIANkgAzEAwMUQB4SQEOGzVTiJr9wj/TtN8FW3LRr10fWZFcpkZS2aL3tMfEANu8xPBU4BVB47EgeaUcyQAbIABkgA9HDAAWQhwTQlOnpSthk5tVIuyfswyG3aJEo8A5hbNCyjHJp2bIbRZCHyvjslvu+qG86+pteY1+wytMqWJIn5qlIcgijjXRuHv5RDm18Tfp1n+SXVu+u4+X6zs8cr6/zYV2vW7zfL61g+Qy2f+yE+XLzzrdy76Nf5dy1t6VrtxFSs/uK3Lz7ndr21vs/yXM3PlWBPzAuLlh62N+x0yD1AQHpVO64IDNnZ8gjjyS4OtdN+jwmel5sLAuWBRkgA2SADARigALIQ41jiBkIn8fb9ZFHH+1o23CjAPL2Ax9OAbR17SW5deQftoLmud1fyYRhi+swFK0C6MLT9+XUxTeV8IEgMhcIoeray+JGBKWvLJXte676lk1Vp6RL4rA6NghUWXKft58tlh/LjwyQATJABjQDFEAeEkC60AKtn2jfTzJza5QHKGVBHht3Hivfgb2mSdLgNN8yM2mNPFv7pRIxoXqAXjnwV3lhz9dSlnFaZo3Lkk2rzsnL+7/zCaKjpbel2aMPvSeYZHX1vGopSj/qW85tfU8df/vYLwLvkrlP/x4/dFHYOTM9QPAEvXbvr3L83OvKuwkP55nLd+Tuhz8rMXTr7e8ldUF+0DxYBVDFttOS2JUCKFB9wn1sLJABMkAGyEAsMkAB5LEGcjAIRyUlq24+64r2yqAh04I2CoOlx/2RrfhMr0woAgjd1J7e8akM6DmlDgND+84SeH+w/8ahH2T6aHQDc75Ha5e6QMeGc58pgODlKSo75JfP8sqTcvfDX5QI2n/sRb/91vygC1xByX7lAWIXOOcyt9qN/9NWZIAMkAEyEGsMUAAFaPx5rbARDntNzjbl/VmxpsI2SpzX7ine81tfAfTWiX/J+sUHbEUBusZBAMGrkzG30vYYbfdoEEDPvvKJ9O47zi+fI0bNlpfe+FoJoMvPvu84Lk7fC9d8gZMBMkAGyAAZIANggAIoRgTQY48lyvyF65T4yS/YLX3720eJ44PvrQe/vgIo0MSlED0QPxBBwQIYRIMAQhAEO24xHg7CB2OCnESS3Xnc5q1ngOXF8iIDZIAMkIFwM0ABFAMCCAPA56XlKvGD+X8wF1C4QWF6kal8GkMALZ5RKhBIXhdAYBLiiAIoMmyyTqDdyQAZIANkwKsMUAB5XAAhGtyU6cvUuB+EvoYQchMRy6vAxlu+KYAehMF2KncKIL58ndjgdrJBBsgAGSADTgxQAHlcAMHbA68PxA+ivqErnFNhc7v3KgIKIAogPrfee25ZZiwzMkAGyEB0M0AB5GEBNGLUHEG0N4ifpStKGPTAw2XpVFFSAFEAObHB7dH9cmX5sHzIABkgA9HLAAWQRxvNw0fO8okfzIvSqnV3en48WpaBKkgKIAqgQHxwX/S+XFk2LBsyQAbIQPQyQAHkwUbzgEFTJHf9LuX5WZZRJm3a9KT48WA5uqkYKYDCK4DmzMtU8wBt33NVUtI4UbAbBnlM9L7AWTYsGzJABshA/RigAPJYw7lX7ySf+FmdVSmY+4fw1w9+L9gt0gKoYOlh13MGhdOe5kSoTmGwcb1QgyCsXLNZCaCa3Vdk1JhkPjseq//CyRjTit16k2XLsiUDZCAYAxRAHmoAdO4yRNbmVivPT1b+dundZ5ya/BHzodgu7fowIpyHyrdLwjBJGpxWZ5mZtEaerf1SiZCLVR/W2Ydjh/ebLc0e7eRryLuZtyeUMNgpk9fLrSP/UNd/Yc/XUrrylBSlH62zjB+6yHf9YBWO2/2NIYBatuwm+YV7lADaUn1WevQcE/Z8u70/HseXMxkgA2SADJCByDFAAeShBvKQYTOU+EHQAzdLXkGt9OzFRp5XKhhMSoq5eUJZru/8TOAl0vcYbgEEcXWk5HV568S/HPMVbDJVnbdQ1o0hgDokDJDyypNKAG0o3ietW/fw2S2UvPHYyL2waHvangyQATJABsLBAAUQBRAbgVHCQDQKIFQyrVp0l5IVJ+XGoR9sRZBXBFC/AROlcsd5JYDQFS4cFSjT4IuYDJABMkAGyID3GKAAipLGLx8e7z08LDNvldmYsSlK/CAAwoxZKymAWPeRATJABsgAGYhTBiiA4rTg2Xj3VuOd5dXw8kpOzVECaNuuizJ46HS+9Fj3kQEyQAbIABmIUwYogOK04NmgbniDmjb0lg1XZW1VAqh860lJ6DiILz3WfWSADJABMkAG4pQBCqA4LXg23r3v3EhzAAAgAElEQVTVeGd5Nay8EPAAgQ/Q/Q1zaLVokciXHus+MkAGyAAZIANxygAFUJwWPBvUDWtQ0360HxkgA2SADJABMkAGvMkABRAFEL9+kAEyQAbIABkgA2SADJCBuGGAAoiwxw3s/Erjza80LDeWGxkgA2SADJABMhBOBiiAKIAogMgAGSADZIAMkAEyQAbIQNwwQAFE2OMG9nB+OWBa/BJFBsgAGSADZIAMkAFvMkABRAFEAUQGyAAZIANkgAyQATJABuKGAQogwh43sPMrjTe/0rDcWG5kgAyQATJABshAOBmgAKIAogAiA2SADJABMkAGyAAZIANxwwAFEGGPG9jD+eWAafFLFBkgA2SADJABMkAGvMkABRAFEAUQGSADZIAMkAEyQAbIABmIGwYogAh73MDOrzTe/ErT2OX2eLs+MnT4k9KiRSKfBdaHrhlI7DpMBgyaIs2bd3Z9TmOzzPRZx5EBMkAG3DFAAcQXPl/eZCAuGejZa4zkF+yWmt1XZF3RXmnVuntc2oEvS3cvS6udxoxNke17rkrljguyKL1I2rTpSX5Yl5IBMkAGPMIABZBHCsr68uX/9Wu00G60G77Ypy7IV8IHDVgsFEDkItS6QQsgzdDm6jMybMSTbPzwnUoGyAAZ8AADFEAeKCT9YsYX67yCWtlQvD/oguNwvD6XazbwYo2BVm37yKhZRTJ58Q7fMmnRdunca7Ij9xA/K1ZXKNGDhuvW7edk8tSlAbu/jV8wXQ79YZ+c/NMR2f32Thk44cFz5bTdtPOTmfNk51s1cvzLw3Liq8Oy/8M9kl61Ulq2se9ul1ayRI5+ekD2vlcrI2dPcrwP8xr6d9GljSqPyCvypreba30M7iVj1xrfMU7bzXOj7XefcdNl7cXTUvmHe7Ljqw9l+5cfyJYP3pTF+/ZIu8QBvntrzHx36jxYlq/a5BPTVTsvyrgJaU1y7ca8L6bN9wUZIAOxzgAFEAUQX9YeYiDWKyQ399eqbV9JWXdJSi//UzY99b91lpJLv8jgiWsdmZ6TkulrrOIjwePtejseq/PiJHSctuvzpmfM9QknCA69QAytqvXP49Cp46T23g459vkhWbx5edB86evotRYx8SCARqYtlU33X1fCB+LHumx4+Rnp1G9UyDbUtgx1PXDwFIEHCKJ6S8056dtvQpNdO9S88ng2bMkAGSADHYQCyEON32bNOkm7dn2k3RN9bZfefcZJVv525R1ak10l7Tv050vYQ+XLCin4S+mxlj1keeUbPtFTdvXfUnT2Byk882DJPfSpdOox0Zb7nr2SfI3U/MI90qatuzEb8PjA8xOqB6jkqRKfR2b1nkxZWJ4uu995kA68Qr2GD6uTz8ILhcpLVPp0qaOHKBAjbgQQvD5aiHnZA5R97YLP61N8+2WZXVYu82uqpezuTd/2laeO1bFvINuFY9+AQZOlcsd5JYIyc6sZHIF1b5PyFw6GmUbwdxBtFDs2ogCKkUoaA3CXZZQp8ZOVVyPdezTd109WCLFTIUR7WSbNLROInvJr/yOp669Is+ZdXDcylizfqBqnVTsvyJBh9l3E7O7fjQDa/ka1dO5d94PDtlcrldjIPpzry+PcvDTVxc3qpUkpXKS2o4tcUspU3/F2+XHaFg4BdPyLQ7K4Ylm9ru+Ur3Bv7zfpSSl/55YSOqVv3ZAeIx92FRwwdY6Uv/2a2ld276b0nTCjCe8lQRYs2eBjDF6hcN8702NdSwbIABkIDwMUQDEggBC9Kn3lA/GTu36X9OqdxBdvDJQrKzn/Si5986vK+5N/9Etp38W9yIfXtKTiqGqcrsmpkmbN3IcudhJAw2dMUGN14FGB2LGWlxZApqdFd5szBRDS33V3hxontGxbhl861nSd/m+IAIJIw30c++ygpBYtrncenPIWzu0jUhfL1o/uKJGTefmsX17XnD+l9lX+/q6gq1w4rx0sLdS96AKHrnDpK0ub9NrB8sb9/vUJbUKbkIH4ZYACyOMN5RYtu0raovXK80PxE1sPcqeek2Taiv2ybOtrqtsXun5BAIyfv1UwDsZNxd2m/SAZn1apzsP5WBZsfEZ6DZ3v6nxcB0EGdB7m5pwRpNkhcYxMXLBN7es9zD+t3/ymowyflq/2j5xZoDw1XXpPkeS88757mZtzVqXj5j5wTNv2gyXn4CdKAGVsvye4httz+w+cpMIVo2E6aeoS1+chfScBZG5viADSXd8qXqgI2vVtdu58X1AFCBYETCh/tlwGjBstDRFAumucFwRQx97DZePrLyqRgzX+NznoPnyCEj7DUxY5BkM4d+1tuffRr3LzzrcyYdJCWZ1VKc+/+pnc/fBnufvhL/LqW9+qsWJdu42ok7Z5HbvfmEsK9TA4QzfLli27uT6/Y6dBsn7jPnVdhNaeORtiOMH1+Xb54bbYeiewPFmeZCB8DFAAeVgAYUzQvLRcJX4woHvwUPfdevgQhe8hCrctITBWbLst5df+4xvrYh3sjzEvg8avcmwcoWsYxIpdoACkhS5kS8pfEoypccp/31FLZMPJv/jlIXv/x5KUXC6ll35V6YxL2eyXxuMdhgjG4+BaGTV3ZXbmSdu8FF/8SYZOzvY73y5PEFCFZ75XaaZuuOrqHJ2ODlmMhiXEkN7uZm0KnerXqnwixdweSAAF6gIXStc3jCNCFzU9hsdcI3gChBC2md4l6/2ZQmd+8UNPj7k92j1AuKeUbVWy/Yv3pfrTd2VWSeieFlMAVe+6LG+9/5MSRBBF5nLpmffVZKdWOwb6f+HSAiWAyitPSocE99Ho4DGCcNLLpqpT0iWx7jixQNflvuit01k2LBsyEH0MUAB5VABB/Myau0Z9MURY7CfnrJbWrZ0bs3z4ou/hsysTc5A/RMq6Y3/yeUzgvYGowHYIi7wjX0i7Tv5fqJEGxI0+DiJo7e4PVDpYYwyNFkHwyNjlo/vA2bLh5Lf/Pe4/yvOC62fu+VDKr/5HCTSkUXLxZxk4zr/bVtd+M1RwAhyTte/3guhs2fv/IDNXH1ER3Naf+LNKO9B9WPOF6+B6OAfhrq37A/2fnJqjGpZoVOJLe6BjrfuchI7Tdn1+oCAICKqA7nBuu75NTp8lB363VwkciKDNv60QhMzGmKLiqyXKE6QDNbgVQKbQ8ZoAgtdn/UvXlRdo60dvydjlzh8DdHmYay2Abr/7o/L2XH/xY1WXzpv/gJM37v9NCSF4gxDa2jw32O858zIVawix3qfveNfnWgVQxbbTktiVAiiYvbnfG+82lhPLKdoYoADyqABC14plGeXK+6PnBUL3iRVrKiSxa90uIdEGHfPjXBEOm5onpZcfeFYQ6tnazQv/p2++qUSAk/iYsGCbT+Sgq1i7jnUbUej+psXN+hPfSEK3cXUaac1bdPMJHHhoxsyt+4V9ytJaJYIgROCRgWfGWqYIRQ3Rg2MKTn/nlwaEGzxJ2A+BNmLGhjppQMShCyDS1su05fuUqIN94HXS2/Uaxzt5tLQACvWrPO4LwQ0Q5ADeFdPTE0wABQuDHUrXt/xT69X1T3x5WNYe8PeYQQwd/K9ACiSAEOAAAsra1c1rAgjz/Excmy0V772hRFCoYa+1AIK358zlO34RM/FB6bV7f1Ui6PlXPw/JC/TQ23he+g2wj0hofV7wP4R5Qcl+JZ7YBc65jrSzHbfRXmSADITKAAWQRwUQ+povWFIgiPiWvW6nzxMEMcSxQN6tCJJzzytRAGGR2Ne+SyO2Y1wOxuBgLI750GPMDjwuEBb5R77w26+PRRcyHGMnotD1rfj8P9T+lHWX66SP8yE0IGpwPsbkYGyOTlevMe4I+7HMyTrttx/HQdDoY3C8PhdriC54mvR+N2uEw4bnyUxH/26IANJp1GftNBEqvC8Yv+M26lvlK1uVAMLxo5P9J3rFxKpV/406F0gA1eceoumcFm26y5L9e2TbJ/eV8NHz/2ASVEyKiv1u8qsFEDxAS5YX255z/NzrSgBBCM2Y5e/ldLpOfQWQU3rc7t36nGXHsiMD0csABZBHBZD1oUKXuKTxqZJfuFt5hVau2Sxt2vayfbFbz+X/0fOAYuwPGvsYewOhEWrZmOLFSXggTXhQ0KVtSfnLfh4cLUwggpCeNQ/m+J6V1Xf89uN4CCfcx8ZzP0rPIfNsj9Eiyc4DpPPgRvjoY9A9EHmz5hf/R0oA2eUFniO3Xd/0+TqiHLq54Xy93Vy7CYJgHu/F34v21qqxP1r4mGuMCVpYu9PWNtZ71QIIQRDGTvAP4oHjy7eeVAIokEiypov/KYCipz61Kx9uY/mQATIABiiAYkQA6Qd6VFKy8gahO9yQYTNdNQb0uVxHvlLQwgHjdzBmBkKg/5hl8oTNWB+78tKeE3hPrF3X7I6327aw5HklXuy6x+F4dDnTwQjsPEQ4BsIIwiSgKPmvt8tOJMGrpLu2YY1ue3mHP1dpYhwTPD3mfvxO6DbWr8ugvr9oEkDWrm/tE3uruX8wJmjYdPsxIxRAHQRz/Gy6/7ry/CD4QfrhA9Kp3yg1D1DJmy/bjgeaUVAoCIcNoYRucnrOIDcCCHUoushRAEW+XtTPMdcsCzJABsLFAAVQjAmg9h36S1b+duUFmjpjOQWQx8q33+h0X/cz7dnQa0SFQ9ezOdmnHcNgz1pzXIkEJ+9NsIoD43/W7HpXpYExOm2e8I9iZY7vsXZdQ/o4R4/vCRSuWnu73Mzpg3FKEGSwBQRasPuw7o8WAWSN+pZetVIOf7xfdW/DGKMTXx2WXXe3y7i0ut0fKYA6yMyijSrqG8RMxunjdRhAEAQEQ8C+srs3lViy26a5oABiI0qzwDVZIAPxyQAFkMcayMEe1JatusnyVZuUAJq/aF2dRkKwc7k/OiqBfqOXqmhrxRcejMPRAshco/ua3YB/PVGok/cmWBljclEIElwLAsXueF/XtUu/ypBJWX7HmGOEnMJVmyIJggvCy+5aepvZtQ9eMb3d7ToaBJC169ucvPly5JMDPvFjhrWueX2bJPYb6LtPCqAOsmDXDp/358mN/uN2niwu8Y0NwvxAFe8+CJCw5YM3/aLEUQBFR13n9vnlcSwvMkAGws0ABVCsCSAjOhwFkPcrDMzn06nHRBk1q0ggJtBdDOLELniBG+9NsArEDF/t1L1NB2pwCjpghqt2EiumRweiLVi+dNc+u/FCwc7Ffh2aOJKhha1d3/A/RM++D3bL1BWzBV3hsg7lyPEvDythNDsn1WcXCqC6AgjeILtyX3nqmCAggh4b5BQiuzEFkBbbW6rPSo+e9uO17PLObd6vr1mGLEMy4B0GKIA8JIAgaBDlDeGvnWYYb/t4b1mdXaWOS1mQZ9tI4APqnQfUWlYIca3n97F2P3MTnMCanvV/eHQwwSlEljV9fazuuuY0vgcBFpDHQGLF9Oig255O22mtu/bZjRdyOsfc/nBgeugToZrp1Pe37vp24KM9MnHJg7F5OmgB1jrdwZOSZM/9XX5hqimA3AmgPuOmqy5wEEDbv/jAMShCYwqg+k6Eqhng2rv1M8uOZUcGvMMABZCHBNDMOauVsMnO3+E4mWPXbiNUGGwIpUlT/SN48eGMzocT8/tgED8G8wcKeID5ciAsIFKs3c9wrg5OEMirguhwEDh244R09zYnAWR2kXMa3+NGrGiPjttgDQ3t2ocJKTEx5fY9V2XGrJU+wdEUz4PZ9W1V7Vrfte0EEI5FpDfrPD0Mg91B5lZUSM3n76kFv61lhxDYCIVteoDK335NjQeyHttYAqhV6+6yrmiv4iy/cI/jhyprfvT/2lMJTlPS+AFL24Xr6HxvsVxYLl5mgALIQwJo0JBp6uUKcTMvLVcQ+tqED/9jO/bnF+yW3n3qTnBpHsvf0VVxIeoZ5tSB8HASFhBJC4ufVcfYzRNkihOn+Xm6D5ztmwR1Te370qptnzoMae8N8mEXRtucBNUpGIEWK4GCG2iRZCfCrGwij5l7PlL3jbU1z9bj7f5v+3gvKSo7qBqmeRtqpUWLrnXu2+6ccG3TXd+2vrxFTaqq09UCaOOVh+NZhs+YIHvfq/UTQG4mQsW8QuhS15TzAGnPGhrsGZlb5JFHEhrNrqMWLZOtv3sQ0a3gxnMqApy2JdYp26rUGCAIoPUvXZetH93xRX9DtDjz2MYSQL16J8mWmgdCO23R+jrXNK/v9BvTF8CWNbuvyKgxySGf75Qut0dXfc/yYHmQgcgzQAHkIQH02GOJsnjZRiVwEKI1fWWpDBk2Qzp1HiwIf40GCMSPk0DiAxf5B86pDMygAMUXf1Lz9GD8jz6+TftBMjfnjJRd/bcSAksrXrEN+Yx5fSBe0AVt2dbXfBOhIq2RMwvU/ELYX3LpFxk6JceXvr6O2TWt8MwPPi8Tzp+2bK8ag6QjvCEiHcYmmeGn3YqVYKG2dX6wDnW8kHmu+RsNUjQuq2svyYhRs/3u3Tw2XL91oAOz65tOO/twrhIsEC45R/IEY34gkhAJDpHhpq2c48vj5PRZcuB3e9XxGCO0+bcVklayRObmpUnx1ZIHk6p+sLvJBZAe7wK7NrZnDR6e/OevKVEDkVN8+2UleqbmrZOcpy8pzxC6viHcNQSPnjMI8wPht7Y71o0hgJo16yxawEAEQQyZ1wz2G92a4TWCLTl+KHrr6mDlyP0sOzLgDQYogDwkgPBQIcz1yrUPhY4WPOZ66YoSQVcMPoTeeAh1OU1bsd83vgcixWmBd6djd/v5YkwPj9P56EI3eclOWwGFQArLtt6yvTZEVcq6SzI2pULQdU2nb3pl3IiVUIM1mKLMzXghbU/rGh8KyrYcVw3M0s3HpHOXoY36jPQZOVx2vFmjghqYXd90vpJSpsr+D/co0WJGgMPv0qdLpWWbxDr5W70nU45/ccj2eEysWna9rMkF0Kqsrcqe23ZdlMFD64bu1vcZzjXmAkKYax3kwLreeOtFX5e3jr2HK08Qjtn2yX2ZUVDks2djCKBxE9OUuIaAgRCCIArl3jskDJDyypPKnhuK90nr1j1COj+Ua/FYb70bWF4sLzIQfgYogDwmgPAQwBM0euw8WZVV6esSh37nK1ZvUo2QRx/tyBenB8sVXdzQxWzj+b/7xIUWGVjDM7So9AWBNyhQZdi130xZvfO+YN4g83z8n7n3d4Iw24HOb9dphKza8U4dMYZrT122R+AJQvjt5LzzvmAJZrjsnkPm+SLVOYkVs6ueea5TnkIdL+SUDrabjdTiiiOCMXOBjq/vPoiX9Wc2KG+OteubmSbm+8H4Hi1s4PnBeWYIbPP42bnzZedbD0QVhBK8R+XPlsuAcaNFd6lrqi5w5niXTVWnHMclmvkPx29MZrrqzAnVHQ6eICwIdb143x5pl1h33qrBs1J94bD1/EDIQ3gFUIJMmZYuVTsvNkhc9xswUSp3nFdpQECFw1ZMI/yNJtqUNiUDscEABZAHG8p8+GLj4QtUjgiEgKAGegkUGMEpHXRH0+djbh67eYOczsV2nQeE4Ta74wU6pzH2hTJeKPj1EyQ5NVuNscCXejRalywvli6J8AY13viV4PnyHtMdOw0SCB/YsT4D/r1uk+bNO8vgodPUeEuM2YEdNlefkf4DJtVLvJjjqRq7O6HXbc/8e6++YJmxzKKNAQogCqB6vayjDWTmJzYrV4g2eLPgyco78oXAO9Xwsk6QCZMX+b62o+EKDyq7jYbGUP+Bk6RyxwXV8Efo54aXS2jXj/T1TMEChgpLD0q3HiPrbQc9nqqpuhNG2n68vrd4Z3mxvGKNAQogCqB6v7Bj7WHg/US+gofggbcKnqv+Y5bJim1vqq54GH80a23w+YJCKcPH2/WRRelFqhFPARR62Y+bkKbEDxr/+B2K7WPhWC2AMK5s/KSF0tCux3o8VfnWk5LQMXA311iwH+8h9GeONqPNyED4GKAAogCKu4YLK5DwVSDhtqUe71N37BIi2t0KuQuf27yhK1OHDgNCHrTuNv1YPQ7z1ED8YH4lzLMUq/fpdF/tnuirgtI47Q9lOwIeIPAB7Jm7fpe0aFE3AEYoafHY6K3fWDYsGzIQPQxQAFEAxV3DhRVQ9FRA1rKYtnyfL3ADgjbkHf5cxqVuiegYJGse+T/4SZDV2ZWqwV5ScVQgBmiX6H2uWDYsGzJABshAXQYogCiA2HAhA2SADJABMkAGyAAZIANxwwAFEGGPG9j59aPu1w/ag/YgA2SADJABMkAG4pEBCiAKIAogMkAGyAAZIANkgAyQATIQNwxQABH2uIE9Hr9w8J75ZY8MkAEyQAbIABkgA3UZoACiAKIAIgNkgAyQATJABsgAGSADccMABRBhjxvY+fWj7tcP2oP2IANkgAyQATJABuKRAQogCiAKIDJABsgAGSADZIAMkAEyEDcMUAAR9riBPR6/cPCe+WWPDJABMkAGyAAZIAN1GaAAogCiACIDZIAMkAEyQAbIABkgA3HDAAUQYY8b2Pn1o+7XD9ojXPZIkG49Rkr/AZP4LLE+jTsGZiWlylfXPpJ/vvoX+ePF+5I0aJpnbdCiRaIMHf6ktO/Q37P3wHo9XPU604l1liiA+MJmRU8GyEA9GHj00Y4yftJCKa88Kdv3XJXk1BzasR52jPWXbDzc3419LygB9OOLX0pxeqlnn4NWrbvLuqK9UrP7ihSWHpQhw2bII48kePZ+4oE93iOFWn0ZoADiC5uVOxlwxcBvftNRJi6slrwjX8ia2velaz80DuKz8u3QYYDkF+5RwgfihwIoPjmIV/6t9w3RA/EDLxDEkHW/V/7XAkg/0xBCGZlbpFWr7p69J6/YnvlkHdrUDFAAxUgDbubsVbKheL/6ejV85CxW1jFSrk1dIQS63rCpeVJ6+VfZ9NT/qmXFttue56xdpxGSlFwukxfv8C3j0yoF251s0bnLUCndfMwnfvCluE+/8QKPkNM5qUWL5dhnB+Xkn47Itlcrfcc5bXdKh9vZSIhGBtDtDd3fIIDQHQ7d4iKVTzxfeM7wvOH50vlw2q7363Xz5p1l7Pj5UrbluO8Zz9tQK23a9vSlpY/lms8jGfAuAxRAMdBQ7tlrjOQV1CoBlLpwnTRr1okVdQyUa7RVrBAGWvxgPSfrdJNyBlGydvcHUnjmB1lU+tsGXbtdx2GSvvlVKb/2nzr3hPsqPPO9dOk9xTZ9fCHOL9itGkb4Opycmh1Q+OgydBI6Ttv1eVx79+Uab2V3vuK0EkC/3Piz7Fu3x/b5aQqbOAkdp+1OeWrRoqusWL1JdYeDR2j5qk3SrFnniN2XUz65nXUEGagfAxRAHm8oP/ZYoixetlGJn+x1OyWx23BW0B4v02itzCBAVlbfkYLT38mi0hekTftBTcpazyHzZOO5H5VgSc49X+9r4z6y93/sEz6ll/+pRBWEFZZVO96RNk8MsE1/xqwM1SDS4sft+IDxC6bLoT/soweIz6YtV9H6zIeSr6yUPPn++c+UCLp79Ka0jVC3saJLGxvkATLvGd4gdIGDAKraeUGGDJses+Vn3jd/169BTbt5y24UQB5/IY9KSpb1G/epZdLUJaycPV6erECdK9ARMzYIxEr5tf+RcSmb6836rLXHVRplV/8tU5bWCsY2ubH74+36yMbyw6oxhG5v+N/NeTjGjQAqu17mOj231+VxzjzRNuG1Tb9uo+SDM3eUAPruuU9lxaw1EeE5mAA6/PF+mZ4x13XeunYbIRVVp9Vzvyanil4gvmNds8M6Jrx1TLjtSQHk4YcZoTrXZFcp78/KNZulTdtefDA9XJ7hfrhjLb1py/cpr03JxZ9l4LiMerHeqm0fydzzkUpnza53pXmLbq7TGT5ytlTXXlYeoIlTFrk+D+XgJIDQEEODDGMW0HCLtTLj/UR3AyDc5XNgwz5BF7hfb3wjZzedjAjPTgIIHxjwnMETi+fR/b0nyLKMMiWAtlSflR49x4RwbnyVv3ub0i60VeQZoADycIPZDHwwcJD9mAU+ZJF/yEIpg8da9pAxc0rUgPxBE9Yo70SfEQtlwcZnZHnlG2qZtmyvtGrbN+BLeOiUHJXGqFlFqpHfIXGMzM0560tjfuFT0m2Ac7AMpA8vixkcQP+etGi7dO41OeD14VUZPi1fnT9yZoE0a95FjatJzjvvywPyg3zZ2cfu+hnb7ynhUnzxJ3ly9VG/vLnJF8b2YIwPxvqkbrhqe227/GBbSlqeagRVbDstiV2HhXSukwAyt1MAeetZdeIknrcvmb5C/vLMH5UXCN4geIXc2CN9Zob89flP1Xnvnbqt5hJ6puaKr0vdz6/8Wb64+qHsytkZtGudkwDS20MXQB3E/Pgxakyyq3vS943jN1efUXVHyeajKmCK3sc1n3kyEDkGKIA8KoB69RnLwAceLbtAFR5CSxed/UE10OcXXJMl5S+p7lpm8AH8Xn/iz9J94GzbFzHGr+gxLhAN4+dvlZJLv6g0zXTQnQyiwS4/gyeutT0H5xef/4f0HRW4u+XjHYZI7qFP1TUzau7K7MyTqvuaeX2V1sWfZOjkbL88wMMDT4/1+ED/u/EMmffldO929sC2VVlbVSNmQ/E+ad26h1+enc7DdlPobLxS7DvX3E4BFLkXYaCy477QyuW1Ay8qIfO3334hhUsesh7IjqYAgnC6d/yWSgNR5cwFQuh6zZWAIkgLHXhWJy6Z6XvW9Pb6CCB88MCHj1DD3bd7oq+UVBxV5+nQ2uxGFxpPgbjhPtqyIQxQAHmwEW0GPsjK3y6dOg/xVfINgYHnRr4yGTIpS0ovPQg1jYhn5Vf/I5l7PlReEwQg2Hj+7z5RgDDUdl24OvWcpAIVQCxk7fu9ChyQc/ATn+cF4kkLiQ0n/yI43lr2Y+aW1gkMgOAAEEw4D0EQ7M4x0zCFHPIAAZa9/w8yc/URSVl3SQk4nQfMK2QNOz1q1kblqdGBCYrO/s0Xsc0atEAfA8HVqcdEv3sx8wWvFsYQwcawtbkv0LN2EacAACAASURBVG9zfpDV2QhjHdrkiE5Cx2l7oLxwX+SfU5aBcxlUr62Wn17+kxIuECtubGUKIHiCfnjhc7lz9KZUrqlUyzsnXlfd6iCGIKw2Li1xTNdJ6Dhtd5M/dDfXYbHR3dzNOTjGTgBl5dVwHJEH211uy5zHOdcN0WYbCiAPPogMfOCdByzUB16HmobwWX/8az9PC4SC9qygK1diX/++7Kb3pODUtwIxY+YD3ezQnQ4CBNex7jeP1b/RpU13QYN3ySlKmj7e9LRAMFmvYUZig6BBgAN9rt3a7LqWsu5ywGP1+Rjvg/PMJa3ourpvRJNDF0NzH35DQKG7nk5Dr00BBE+Q3u52PXzGBNn7Xq3fWB8KoNh9lt2yEWvHTR0xRz678r4SQFjj/2D3aAogeHlOlh7zO+f85jM+ERRostXsw7m2Y30aIoAa8vyjC9zW7efYBc6Dba1g3HK/t+tvCiCPPZRm4APMS4CK2XwIp0xPV0ERMvNq1Ncncx9/R//Disa9FiZj522qU7a6/GatOa6OgVcFQkNv12uIDQgbpOMkFsxjILr0uU5rs0ubmwlQtZBDHpzmC9JBDXBMsDyYgirYsfoetJ2QvtsF4hL3qtPQ64Y0gHQaXEf/88cyCk8ZwfMDbw08QfAIBbOrKYCcRNOCKenyzfWPVbq/O3fP9fiiYNd2s5/Pf3i4cGNrHkNbNxUDFEAeE0Bz5mUqgbOuaK/YBT6gAPJ25YFubmis5x/9Utp3sR9ArIWD05gX3fAPNFZHCyC3HiCzS5uTqDIrLS3k4GnB/D3mPv1biyQ3HiB9rJPo02ma64Ulz7sWPlogwctlFxY7GhpAif0GytjUaWo8ETxHdsuw6eNtba3tMnDCGNvzzLR6DQ8c4AHXMI+3/kYekVd9Teu6fWJvSUqZGjCNUXMmScs2iY5phMMW4UiD9rSvbzH2B13VIIIwJsjKgPV/UwAhCIJ1P/5HQAUIH6TpJJLszgvHtmh4/sNxH0zDnlfaJT7tQgHkIQFkBj6YNz9HmjXr5PeioADy7oPctv1gwVgdNMadGuKoqBG9DMc4jcVJ3/yq2r/+xDeS0G2cHyNII5iIsr4QzLFJbjwwWsg5eVSQPiYzxX0EEkk6H1pQIUAExJjeHmj9RKcRdbq4oWugDjCxZNMrdfbprnA4xy7NaGgApRYtlmOfHVTdexDO127BbPd2+dfbdDcgu3P1toxdgedvwTX0sXZr5BF51de0riGY9KSwdudj2+63dwrEhfVc/X84bBGONGhP+/rWnBMIXht4b3TZ2a3dCCCcB3FEAWRvczu7chttRQacGaAA8pAASlmQp7w/gQIfUAA5wx7tFQEa4cFCNAcbi4OgCJjfBsIC891gHIzdfUNsBRrzYj0nFA+MNQqdnUcF6aMrHfIZyNul8+FGUOljndaIXAevGK4JAeh0nN12CqCHzxUF0ENbUAA9tIX1ucE8QJgPCPMCYX4g637zfwogZzuaduJv2okMhI8BCiAPCaD5i9YpAbQso1xatrSfwJECKHwPR1NXNGbwAqcGujkWB6LAmkd0m4OgQCMfniDr/vr+rz0wEGgQToHSMaPQOc21Y4qkYBOSmscG8owFyhP26W5/brrcWdOKBgFkzRP/9+6zHg9lt2LWGvnuuQdz+7x78nbA0NUUQGQ5Hp4J3mN0cU4B5EEBtKF4vxJCgdYMghBdD5qbis8XojlAVDTTS2Q3FgfjbdClDAIIY4HcXNfNMaF4YNwIOXTNQxc9N0LNFFQY1+Mmv3bH6LFRbrrcWc/HB4f8wj0qkhPD2Hrv2bKWJ/9v/DJs26q73D16U3VZ+/75zyQrJc/x2Y12AdQhYYCUV55Uz3/6yrpRNclS47NEG9PGjcEABRAFkONLqTGAY5rOFZkeExMoeEGwaGgIJw0PB+a6gaAKh73djk3S13Ij5MzuaMGEmhtBpa8daK3HRrnpcmeXTkMmQrVLj9ucnwXaJjZss2/dHtUFDuN2zlecdqyPol0A1XciVHIcGxyzHGOzHCmAPCSAEARh+MjZAZe0ReuVd4geIO89sHpMTKBuZsGCF0xatF15VZwixNWnIje9Tk5d2sx03XhadHc0N1Ho9LH16bqm84WxUBgTBY9ToLFR+ni7NSIwYjb3LdVnpUdP5wH6dudym/eeR5ZZw8tsVlKqfHXtI+UF+uPF+5I0aJqtCIp2ATRmXIrU7L6iFszrEwobpve4cscF6T/Qf+LpUNLjsQ3nkjakDcEABZCHBJCbh5ZjgLz5YJsNdDT0R83a6PeSNSdBzdr3e2nVtq/fMcEixLlhyHqM6XWCwLLut/7vxtOiRVIgb5dOVwdgKL30qyAand4eyjqULndO6Q4eOl227bqoRNCTc1bXKx9OaXO7N59bllvwcsOkpfAA/fjil1Kcbt99LLoFUIIsyyhTz/2mqlPSJTFwmHgrE5i7r2zLcXU+1vjfegz/D84RbUQbhZsBCiAKIFbGUcCA2UBff/xryT/yhfQeNt9XNj0GJcva3R8oD0bZ1X/LhAXbfPt0pWBGiEM4bXRd0/vcrHF+QrexfuGh4XVCl7qyK/+SiQur/fabkeZMIRfI06Ln6AkUqlvnWXep096b4dPy6+ShU4+J0qx5l4D3GkqXO31d67pN255SUHJANWSKK45I+/ZsyFhtxP/ZSLEyANED8QMRBDFk3Y//o1kA9RswUSp3nFfPPYTQI48k2N6D3X1hW5++42Xr9nPq/Nz1u6RFC+f5rZzS4HY+V2Qg/AxQAEVB4zecYNMDFP6HJJzl45SW2UBPK7rum68GjX5zgRBZUv6SPNayh99LOFiEOKdr6+1mBDnzmoF+W7ulmULOKQqdGao7e//HgihvOg92awic9Sf+XMcOZp7ciCjdjc5Nlzu7POht4yakSXXtZdWYWbG6Qpo37xww7/o8rr35XLLcGl5u6PaG7m8QQOgOh25xVrtGqwDCRw8d/AQiCGLImvdg/48Zm6LqC3SfTUlzDgQRLB3ubziLtCFtaDJAAUQBFHKFbgLE3+GpUKwN9NGzi31z1ujG/sbzf5epy/Y4ejswQaie6NMuQlywsjIjyOlrBltbu7CZaTgFNzCFFsY9BcsX9vcYNFd5wOD9suYpkKdJpx1Klzt9jt0aggfCB40ZjAlYsXqTtGjR1dU92KXHbeF5fmjH6LYjAiBAAP388teyI3uH3/MSjQKoQ4cBPvGDZz05NTtk7w+4TE7N8dUXoY4fItfRzTXLx9vlQwEUYwKID6Q3H0i74Abo1gXvB4IQoGua04SiLPPgZa7HJbnxFgWzp/lVGEII4XGnTF8m2B7sXO4PXla0UezZCCGwEQobIgihsREiO1rLGWN0IHZ0tzWIn+WrNtXb26ujRzJ4SuxxHa0MM1/uWKMAogCK2hdRPD3EekxMwenvBPPexNO9N/a9dkgco8ZUwXO0asfbgi54Db1mq1bdBRMSo3EEEYQFX3obmi7Pd/fiop28ZScIHkyGCgH0l2f+KEumr4jKZ8Wc8BjPdNXOizI3Jbve4sdMr6jsoLR9vFdU3jefJ289Tyyv8JQXBRAFECvkCDMQ6pgYVn6BKz8EYoDXDAsCJujw1+g+lzQXg5gDn+9+f4L07jNO8jbUKiFEARQuuzId9wx6x1YHNuxTcwL9euMbObvpZBifw/DZQAuW6tpLkrF2s3TsFFogGWu5mROoZmRuqVcXOmua/D985U1bxrctKYDC1hiKb5BYkdS//OszJob2dra3Hu9jjhUqv/YfSc4732jdCNFweqJ9v6hs1JEVZ1ZoG9rGZKBZs86CSU/DFdwEc/5g7h94k2bMWsn6ge0tMhBFDFAARVFhmBUxf8fPi9kMXpCce54VZAOfSd2dEAIIXh94gIZOyWk08cNnNX6eVZY1y5oMkAEyEBsMUAA1sLHFByE2HgSWI8uRDJABMkAGyAAZIAPxwQAFEAUQPQ5kgAyQATJABsgAGSADZCBuGKAAIuxxAzu/6sTHVx2WM8uZDJABMkAGyAAZCMQABRAFEAUQGSADZIAMkAEyQAbIABmIGwYogAh73MAe6EsA9/FLERkgA2SADJABMkAG4oMBCiAKIAogMkAGyAAZIANkgAyQATIQNwxQABH2uIGdX3Xi46sOy5nlTAbIABkgA2SADARigAKIAogCiAyQATJABsgAGSADZIAMxA0DFECEPW5gD/QlgPv4pYgMkAEyQAbIABkgA/HBAAUQBRAFEBkgA2SgyRkYMzZFtu+5arusytra6PnpkDBAyitP2l5/XdFeadW6e6PngQ2t+GhosZxZzmQg+higAGLDhy95MkAGyECTM0ABFH0NAjbSWCZkgAzECwMUQGz4NHnDJ14eLt4nXyRkwJkBUwBNmZYu8MjopW3bXo1eLz36aEdp376/75q4dmZetfII0QPkXG5kmrYhA2QgFhigAPKQAGrZspssyyiXDcX7gy6ZeTXS7om+jd6IiIWHINruIeXJqXKydr2c2VcgJ3evl4VzZ/iVY//eA2Xv1ix1zNbCFX77m+qeNuYsUXk4siNPxo4cFbF8NNX9RvN1ag8+I/c++lVu3vlWxk6YH/VlYQog/I4G26LrHbrlUQCxgRcNPDIP5JAMNB4DFEAUQFHR8OBD/vAhh5j4z5cX5X++uqSWi4c2+pXR0tRZ8sNHp9T+ly82/ngJp/J5+7e7VB6+++CkrVBzOo/bH5Z3uGxBAdRwm1IANdyG4eKZ6bAsyAAZaEwGKIA8KoBmzl6lPDzw8tgtj7frI+ji0ZjwMO3GqZyunyz3iR+IIIgMq63hefnpj2fVccd3rfPbbz2+Mf4fM3ykfPrmIZUHrPF/Y1yHabrjjALInZ0C8UQB1HAbBrIv99G+ZIAMRAsDFEAeFUBTpqezsemhsgvlgddelV8+PafExZd3j8jEpKQ65X1gW478+4uL8uun56WyaGWdfaFcqyHHomsePD9OIq0hadudu2DXDtnx1YdS+fu7MjJtaUTu2S5f0bKNAqjhDQsKoIbbMFqeB+aDZUkGyEAgBiiAPNSINscAUQDF5oNtelW+uHtY/vX5BdXVDV3ezAdZe4l+/P1pWZ42u84+87jG/G16oZCfxrwW0qYACsw8BVBg+7jhkwKo4TZ0Y2ceQzuTATIQaQYogCiAGr3hGmnIvXR906vywrnN8vc/nFFenqqNGXXKSXuJvrp3RKZNGFdnn3m/82dNk0uHN8r9F2vl3Zd3q+Xa8VLBdvM4p9+D+g2Wg9tyVDc8nI/rwvvULbGP7KpYqwQaxith3JJTGjgWYunWU9W+PLz17HapLlml0nE6z7o9EgJIi4rb7/4oS5YXy7y0XHnqhd/JW+//pAIO3Lr3vRw+9ar0GzDR8f71feCY2gPPyI03v5G7H/6szn/j/o9y7YWPJG3xBmnWrFPQNKzXf+P+3+TwyRvSq89Y0XkNFgRh0tQlcvLCbUHeETTh7oe/yKtvfavy5vY+cM83736nzkUaWN567x/qXpBHfc+B1vUNgqDvMxxlYs1ffQVQm7Y9ZXV2pdTsviLVtZdk4dJCad68sys7WPPA/9kwJANkgAw0PgMUQBRAfElHEQN5GWlK9EBUnN1XIOj+hi5mZiAERID7+PUDavuHr+61LT8IFwRHgAdJB1Mw19h+as8G23N1xQvR8tcPH3RxM89F3t59qVauHitVaaOrXsWG5bZpFWQukm/ePW6bB6SJfdkrUm3P1fnQ60gLoModFwSCQzf4zfULN7+QCZMXOd7HvPk58vIbX9uei3QgiHbuezqgCCosO6REhnld/fv6Sx8rIYT/AwmgQGnoc9F41za3rqfOWC6v3P6z430gDYjDorJDjmnoNMMhgBpSJjof5rq+AmjGrJV1JlSt2nlBBg6eEtQG5rX5u/EbPLQxbUwGyIBmgAIoihq/ulCc1mYXOLsgCNjvdC63e+Oh114VPbbnvZd3K/FgBkJInjHFJypuXK70K3OIH3hrtGj5+ZNz8vtb+9U2eIx0hDls31JgH0I7a3mqfP/fKHM4/tv3T/i8Nxj3g/zpAAiIRmftogfeKjeu9AVqwPF3n9+pQmbDA2XmAyLI9EgNmDpHSu/ckLznrsq4FaulRZvu6h7nVlRIzefv1RkD1C5xgMwqKZXCV59TS8few/3s0RD2TW8DvCS/vfWllFeelNnJa6Vi2xnlzdEi5Pi5W7YCZtiIJwUCCcdB6Jy/9o5k5+9QaVTvuqwESzDhMHnqUt+14Gk5fu51SV9ZJqkL82Xv4eeVMHvm5T+qazgJoEXpRT4BByG3c99T6nykg/SQLvIBoWYn5hBs5cLT9333cebyHZUHhNyGPRA+WgvEW29/L6kL8gOWRTgEUH3LxImJcAmgbbsuyuCh0wPev1MeuN0bdTXLieVEBrzNAAWQRwWQ01xAa7KrpP/AyXzxeqhczUoUnh4IF3R9W7U4WfRYHzMQgvYS4Tg7Lw62IUAChMud53b4zc9zeu8G+dcXDzxDbzxd48dK2zZdlVhB+v/87LyakwjbdD6tAsvMmz4G3fIgcpDGn94+Ksss45SQ3iuXKtV+5PNE7cNIdlroIOABlq0f3ZElB/bK7LIyqf70XdnywZtKGK06e0KqPn5bHaOCI/zhntqu8xCOtRZAEAbwsgwYVPervilu0CVs+pP+ASlKNx9TXcXQ1QyiydrVLWn8fHnpv96h51/93O8auA94OpCHOx/8LCUVR31loe8RIgZd63CMnQAyxcuNt/4i02b6e+wyc6vlzff+rtKorr3sdw0IHaSNa6ALnPU+kBcICJ0G8qzzZ7duqABqSJnY5Ufnvz7zAKEL3NqcbewC59F614kHbvd2A5flx/ILxAAFkIcqbNMD5CSAsB2T+A0fWXfQfCAIuC96KgkIEiUa3jkqMyZN8I2zMb0sGA8EjwoW69ggTEb62VsPQlM7jQ8yPUh24atzVsxXAgz5eP3pajHFj2ZF5wHHwEult+v14ZrcoFHqzCAK5lxG41etlYIbzylvjxZBWG/74zuy/Yv3lQiq+ew9n/DBPgihnKcvydC5C/zyovNUn7UWQBAvG4r32aatxQk8KKsy/edkOnP5rhIN8AI5eQV0GhgTtHBJgd91dBoQSiNG+Qe9gBg5d/WeowCC2IDwgWjYf+xFv/RhG4iky8++r47BOKcuicPqHIdufK+/84Pav36jvS1ate4uo5OS1USsvfs6j03D9RoqgBpSJk4s1NcD5JQet0dP3cqyYFmQATJgMkAB5CEBZBac9fdjj3WR0WPnSV5BrUAEZeVvl06dh9RpwFjP4f/RVRlAaPzu5j4lgDDGB2N94AWyBkKAhwfCQ3uJzHI0RYVTZDbTO2MngPRErBgnhC55Zvr6t+mFMsUL9uM+PrixR+XRLn2dhimizDFOen+nfqNU5Dd0h4PwMcUQfqM7XNFrL8ic8nJBVzh9XjjXWgDpAfd2aUP06O5jVmHQo+cY5TmC8Ljw1Du2XhOkiS5x8O5gwW/rdc5de1sJj2df+USchIXOq50HCKIK4gr5sObRvJZOw05omSLq1MU3BWLHPDfU3w0VQPUtk0D5pACKrjoxUFlxH8uKDJCBhjBAARQjAkhDMGLUHOUBgggaNyGtQQ0UnSbXTVPJwOPzp3eOKuGgu6aZYkWLBIz7gQDC2Bl4c8zy0fMDoQscfpv79G8z0pyd9+bF81t8AgtCR59nrk3xYp2I1bwPc+ySef6UcWPl/VceiKR/fHxWCjOdAwjgvEEzkmXT/Vs+EbTh5WcEAslMszF+a0EQqLGN6HDYbycuIFYgWrAPIsYpj4HSwDkNFUBm+hVVp5WHBl3arMvB4y+pvNqJKHiZED0O9wLvC4IhnL1yVzCOaU3ONuX5CUUUNaYAMu83kOCzlgcFUNPUdVa783/anQyQgaZmgAIoxgRQ6zY9ZOXaLcoLNH/Rw3EVTQ0Wrxd6Zaa9PRA3WuzAjmYgBDsvkWlrPWbopz+eVaGnzX36t+m9gdjR2/VaX89OYOljIHqQT3TDs07Eat4Hjgm0YPwPPEh23ez0tSB0IHjg9Sl/+zXZ+tFbsv3LD2TtxdO+AAn62HCvY1EAQcAEW+wEEGyL4Ag6oINdGogAd+n6e4JxTcHKggIo9DoimE25nzYlA2SADLhjgAIoxgSQOU4IX0HRNY4Pg7uHIdJ20l4Va9czLWoQbADBBHRwAe0lMvOt5wdCpDZ4esx9+reONAfxYZ2/x5yIVXfD0+eZa4gWCBu7iVj1fQQTPsgjAjIEEj+IAAehA8GDcT8IkLDy1DH1P7rFLazdaXuPZl4b8psCyP/Zad+hvyBgwpHTr6rufa/d+6tvXiMtil56/U/KIxTI9hRA/rYNZC/uo73IABkgA+FjgAIohgXQsoxyYWjs8D0sjV3xaK+K1XujBQsCISBsNUQHxIXpJULezPmB7CKz6fzrMUR28/eY3eOcuq8hHcw/hDzYBVoIlL7Og9v1k8Ulsu2T+8r7s/6l64Iw1wiTDU8QPELwBo1dvqrRRFAsCqBQuoS5LSccN3zkbEEXOnSPgxBq7Chw9e2WGOie2AXOO/VloHLkPpYjGSADwRigAPKQAJoyPV11bcvMq1ERm+wK1/QAYUJDu1C1dudxW+QrC+1VsXpvdJcydDe7cLBIBT+wG+Njjr1xmiAV5azHEJmR5XT5m93jnIIoTExK8k3QiqANVg+Ovg8775C+jpt1IKFjCqPGHA/UUAHktSAIbsol0DFuxzwhDXqAIl/nBCpL7mP5kAEyEMsMUAB5SAAhqAGCG+QX7JbefexDzD7Rvp9k5tao4+amZDXal/FYfigidW/aq2KNnGYKm3d+u0uNu7F6iZDn5Wmzfd4hu+5xOMYMk229DvZjPA+EFrw71uAG2i6mSLKbiFULIKuQ0+e7Xc/bulV5f9DVbdHe2josm13j4AWakhN40k2317Qe11ABhPR0CGs3YbARZhrhpq350GnYRWfDsaGEwcY9WdPX/w8aPFUFRoA3x/rxBB9UMPnpyYu3bfOo84Fod/AAYd4kCECdtnUdawJo1JhkNQ8Q5hFanY0JihMc791qC/7PhiYZIANkoGkZoADykADq2m2E5K7f9SDAwcJ18thjiXVesI8+2lGmzVyh9qOby5BhM+vs58PVtA9XKPY2o73ZdT3TgQkQ+hreHztxYc7vg7mAIHasedCToGL8z/mDRX77TQEEIWM9H96eu8/vVAIJIgnd3azH6ChydgEScCzS0JOg4n6cIs3h2DFLVsiK44dV1zfrdeAhWnXmhPSf4j8vjvXY+v4fDgEUbCLUqTOWq4hqEA1OYa71PEGBJkJ94/7flPCwC2BgToSK6G24ptUmZj4wHxDOMY9JX1nqi3a3++CzfgIJx06eutQ3IStEm3m+9XesCaA58zIF4gcLflvvl/9Hb/3LsmHZkIH4Y4ACyEMCCF9k8XUYXiAsGZlbZFRSsnTqPFiGDJshaKBA+GAffnP8j3ceaNN7YxeZTQdCgOjAYue9gbCAhwj7IXAwiSnCTaNiR3CDy0eKfd4djBGaPXWSXyPNHAP08yfn5FB1rq+L2/xZ0+T+i7UC7xPSh8BBwAPri2N72Wr552cPvEjfvn9CinOW+I5BGreubZN/fXFB5RNiytqFzppeJP8PhwAaMGiKby6gux/+LOevvaPm+pmdvFaFkIZggfhBBDWnyVZNYYHjTpx/Q9JXlknqwnzZe/h5gfhB4AGkYyeAYMNF6UXqOByD43EezseCRruZj5x1/nMR4T6ef/VzX151HhBKG+KpvPKkLw8QaoVlh3zlbleGsSaAVq7ZrOxYXXtZjYeyu2du806dzLJiWZGB2GaAAshDAggPI+bZQFcULYLs1giDjUhNfHi98/BWbFguCEpgF5kN5agDIWgBZDd/D44ryV2qBIo+zm4N71HW8lRHPiDAkA+7c7//6JRPZDl5bxCM4d2Xam3PN9P8w639tiIsmrgNhwDC/UAgaIECAWJdIIx27nva1qui7QFBoSdctZ5//cWP5eCJlwMKIKQTKA2kCXGFBry1+5vOA0SX9jRZ86D/RxAETJQarA6KJQGEenld0V4lgDZVnZKOnQY5Pl/allx7p35mWbGsyEDsMUAB5DEBhIcQXd0GD50uK1Zv8k16Cs/P6qxKGT12nl/XOD640f/gIhw1RIddZDaUnznuBiLCzkuky7kgc5F8ff+Yn4iBx+bNZ7bLk1MmBmycDeo3WF69UuXz0uB6yBvSRNo61HageYKQBvKoxxOZwgfBF87uK5BuiX0C5kPfTyTX4RJAuAd0Ya3ZfUV1EYPggWB44/6PcvHpd2VeWq4rW+C4p174nRIqD87/mxw+eUN69RkrOq9OHiBtx0lTl6gJTW/d+94nxPAbomWOi3GD8PgcPfOamOcjLxBnz77yqawr2qM+1OjrOa1jSQB1SBigPGDwpOUX7qH33YPvVSdOuT36358sI5ZRfRigAGJF7arhVR+4eE5kKyWMK0LXOixLUp4MWXCg25w+f870yfXiBCIH19bpIE/kIrJcRIv9TQE0ZVq6QETopW3bXo3OCT4ktW/f33dNXDszr1p5ceDNgVfHra36DZgolTvOq3PR/djteTyOzwIZIANkIDIMUABRAPFlTQbIABlocgZMAaSDB+g15uNp7EaB6bXR19XrUAWQeS/wsDV23pl+ZBpMtDvtTgZihwEKIDZ8+LImA2SADDQ5A6Zo0MJDr70mgJJTc5T3B14geIPYSIqdRhLLkmVJBmKTAQogNnz4siYDZIAMkIF6M5Cg5v2BeCupOOoXPpyNp9hsPLFcWa5kwNsMUADV+6Xn7YLng8vyIwNkgAyQATJABsgAGYhHBiiAKID45ZcMkAEyQAbIABkgA2SADMQNAxRAhD1uYI/HLxy8Z37ZIwNkgAyQATJABshAXQYogCiAKIDIABkgA2SADJABMkAGyEDcMEABRNjjBnZ+HwAVfwAAIABJREFU/aj79YP2oD3IABkgA2SADJCBeGSAAogCiAKIDJABMkAGyAAZIANkgAzEDQMUQIQ9bmCPxy8cvGd+2SMDZIAMkAEyQAbIQF0GKIAogCiAyAAZIANkgAyQATJABshA3DBAAUTY4wZ2fv2o+/WD9qA9yAAZIANkgAyQgXhkgAKIAogCiAyQATJABsgAGSADZIAMxA0DFECEPW5gj8cvHLF+z61adZfhI2dLq9bdyTHrMjJABshAlDHQf8Ak6dFzjDz6aMeoLJuOnQbLyjUVsqXmrGzfc1Uqd5yXfgMmRmVeY/193tT3RwEUZZVFUwPA69H17UUG8NLKyNwiNbuvSHnlSemQMMDVC2vJzFK5cegHuX38V9lfeEPatenr6jwv2ihYnqfOWC6/vfWl3P3wZzl/7R3p3Xdc3NoimK28tH/pihK5efc7eev9n+Tg8Zek3RPxy7iXyi1QXtt36C8nL9xWz+rLb3wt8xet88yzmpyao4TF5uoz8uTc1dKiRdeoyfvopHlK8ED46IUCKH7aRBRAFEBRUxkFegFwX/xUSoHLOkGmTEuXqp0XfS8stwKoS8IwuVrzsdw5+W+1vHbk75I8MTdu+T9+7nW599Gvarnzwc+Snb8jbm0RmDnvPHtdEofJUy/8zleur7/zg8ybn8Ny9fh7Hs8mnlH9vOLZ9QqzWgBpgVGy+ajyCEU6/+3b95fiiiPqPYL3ycKlBdKrd5JAbDZv3tkz9o20Hb18fQogj1eMgG/m7FWyoXi/rCvaKwMHTeGDGwNlqiuVXolj5eDGm3LryD98DXfdgH/96E+yeEZpHJV3giSnZiuvD16meGklz8+RNm17urKBVQDBfgumFbk6V5dHLK1NAXT3w18kv3B33NlieM9+cr1kqfxwtlD+52qZ/O+1MvnlYrH84UCuFM6bKs0eTfCUTawC6I37P8rCJQWeuodYesbCdS9WAXTm8l0PlWmC9Ow1RrLX7fDV3fAGoWtcuOxTn3TQdbq69rISQFOmL4toXuqTf57T8A9TFEAebywndhsu2et2KgGUsiBPmjXrxAfZ42WqK7YBPafI0zs+9RM+8SqAxoxLkeraS+qFhS93XbuNCJn1jOQqXxc4CMv2j/cPOQ1dPvVZ78p/TpVnNIjX2clr5aXX/6S61Vx46h0ZEGcfT3JnTZK/nS1SogfCx7pAEL24abl0atetSRmpD1fmOauytvq6wB0+eUN90Tb383fDG05NbUPUdWcu3/F1gVu4tNBTTD6wV4KMn7TA572HJ6hjp0ERu48xY1PUu4Rd3rz3PITr+aMA8nhjeW5qthI/EEEQQ+ECg+lEvlIoXn5C3jrxL7Wcqrgns8ZlSdLgNN8yelBqkzfgI8WF2V2hdPMx6dxlqCdZjyYBFKmyjIbrzh01Qr47VaBEz3+ulsr92kypWjpLlk0eKxcLFvmEEUTQ+fWLPMlaNNiZeYj8eyTaymDCpIU+z8uCJRvkkUci42UdPHS6bNt1UXmlRo1J5jPu8bZwfTinAPJwocOtnFdQqwQQusHVBwCeE70vqGOlt5W34MV938jw/nPiunynzVyuXlQIejB56lLP2oICKDqet0sFi5X4+feVUjmUmeLX1Q0C6ZsTG9QxEErTh3pTcLN+jw7eWA4PywHjazJzq5X3ZVPVKUG3zUjYB5He4P1Bd2p4gyKRB17zIReRsAUFkEcFELq6oW83xv6szdkmHTq4i4IVCch4zfo95Ge33FcC6PrOz6R31/FxW0G3aJEouet3qRdVQckB12N+opE7CqD6PQvhLMueHXvKxwdylbj548Fc6dWpl+2zVbNstkAgYYF3KJx5iNe0WrTpLrNKSmVKTh7t6dG2RzjYHTl6rs8LNGPWyoiwkNh1mFRsO63eK3PmZUYkD+GwJdOo/zuFAsijlRCCHSDowfqN+2TcxAV8eD1ajoEqr4YIoMSOI6R81Vn57d5vVMhnjBu6fewXeWbX57I2Zbu0auE8bw662d04+L0SX2iwWwMxIIT0M7u+kFXJ26TZo40/5gz9xPGlEF/qEKknkM2s+7QN9bgpc4191uOt/1sFS/LEPBVJDjZAWjcP/yiHNr4m/br7D+iFaIV4Na/p5ve6xfuD5suaTzf/1x58xhdFSkeT0utnX/kkbsJgTxo0WL79b/e358qcBz8vGj9G/n7uwRih2pVzA5YJAnGszq5UXkqMU8MYjaaKJHXu2tuO5Yp9btho7GO08Kl49w3Z8dWHsmBX+CMOjp0wX27e+VbZAveNcTPwGCMkODhHWPDnbnwqq7MqXY+VRd2DdyzSqdxxQWbOzmiSLltLlhfL7Xd/tC1XbMf++pZZ4avPqTIou3dT+k6Y4SodHIfjUXY4v77X1uchNHtJxVFVp69cs7nB6el0Q1lj6gREEMV7BZHqQjmXx9ZfdEST7SiAPNhwbtmymyzLKFfeH1Qebdraf8GMJtCYl9ArDN14D9UDlDR4fsDgCRhXdHLTXcfxQ6YA2rPhRTm/9X3bRjxEQGH6kUZ/cZhdFcZNSAvpetqGdsIjVAG0de0l22h8SPu53V/JhGGL6+SNAih05puinpg5fJhvjM8zJel1ysy8vnlcMAGEr9hoSOmlaucFGTi4aSJyRrMAsgofNKC3f/mBzK+pdrS7WQah/DYF0IWn78upi2/aCggIIUT/chMwKH1lqa9MUbZN1WUr1gVQs2adJSuvRtkWH3IjMZF169Y9ZEPxPpUHBA4JhTUeG511e6jlQgHkQQE0KilZfZVCxTFk2Ew+uB4sQ+uDimhkCGpgBjm4WPWhEh7P1n4pM5PW1NmH4+yCICCdC1UfqPMgdJ7a8YnAozBjzGopyzgtL+z52rdvZ/5zth4cUwDB0wMvB4RQyuT1svTJcsHYJHiT0PDHpKLTR+OraONViA+j9VyQ/gP9PS2Brj2w17Q6doMdYU/kPVQB9MqBvyr7wY4ISLFp1Tl5ef93Ki2kd7T0dh17YpLV1fOqpSj9qG85t/U9dTzsB++SuU//Hj+0cQbdY6JTNBLN5dIz76tGYlN5gPTXZzSE3SxrL54JO1umsGksAYTB1RhkHYjNcO0bNHhqnTJ9cs5qef7Vz1S5RsoD5CR8Cm48J+NWrG4Uu5gCCJ6g1+79VRDqPX1lmVp0FDV4g269/b2kLsgPmg+rAEKXKXSdClfZOaWDuWhQ75nPakXVaVWmseABwn3j4y1EZdmW4xGJVAjRhTYU8kAB1HjvbyfGo2E7BVAjNtwao4Afb9dHufAx9gcVyKL0jeohxv+5G2oldeG6iA0qbIz7jZc0MZ8PQiOjIe12sQulvHz2Znnj2M8qDYR5tnZ1g1dCTwbqJF5MAQTxA9FjLQeIAAgs5BWeEev+cP7/UACdF3iDGpK26ZUJRQDhPhGSHKHJzesP7TtLeX+w38me5vHWLnXmvkj81t4DCiD/BoAplIJ5gNAFDmMx0VWqqbvAWbmB0EV5oqHf1ALISfisf+m6jExr3OAlpgCCl6eo7FCdZxV2QpcnzHkF2+w/9qLffqst0QWuoGS/aiQ3ZRc4az7wP7riId+xIoD0BKluJ7K2s0lDtiH4gu5aHalxSA3JP8/1r7NDtQkFkMcEEEJIQuwEWjCh4eix84JW7qHCwuMb/sA52TBcAmh77nUlSl499DeZPsY+MmDW/J3y5vF/KgGTt3CvHyemAILHwm6cD7wU8Iig4Q+PkNN9hWN7NAggiL31iw/Y3icEIOwAr07G3ErbY7Qd4l0ADZw+VzWE0Rh2s7gdo6Dt62ZtChvtAcqcOVH+erpQEBL7qeKlKiqceVwwAeTmuk11TCQEkK3w+eJ9Wffbpxtd+Gi7mgLISdCPGDVbXnrjayUkLj/7vmAsij4/2tcUQPV9/yZIu3Z9BGN+sGAKBcxHVFh6UAnb/MI9ng6sE+3cRnP+KIA8JIDwEK/JrlLiB5XhvLRcX/S3xx7rIsNGzFL9aiGO4NpFoIRoho95C1yh6/EroYwBOl3xtmqMI9hB324TbMs/eWKuvHbk7+o4O++NKYDQYLcrp1A9KXZpuN0WDQLIztum8w/Ro7sEBgtgEO8CSNsskmtT2GgBdLnwQVhsTIb6+ZF8Gdy9r5jHUQA511Xdh0+Qjbde9HVprPn8Pcl79ooMnpVqW3c0VtmbAsjJ8wXBA+Hz/9k7z/cojqzt/ydeYzAGYxBB5CwyJueMEEkmB6GMJARCRAmEQGAw2WBMNDgH1sBiMAYbx/V6ba+96/V6H3u9TvvsPu+X8153sTWu6enu6RlNas39Ya6e6VBVXXVXT/36nDoFS4oTJMWrfI1NN1IAwguGmo9vB9rFi8tptOcgn0gtfImyAJmubnqOHrbrNx2W8RMXSYsWnROq08bqgNc7P4sirRsCkI8ACPN98BAE4EycYh+9CGbdgtJd6pzFy6ukefNMdm4ftbHZgaMBIC/XhAOccMdRRgLQrw9h03pHAPq1Xkwtp9J3E2w0AC2bMEr+56kKWoCieFbqCGE7P7srhZfOJhx8tLa8ABDOTbTbpy5fY7cEoOieLU4ABAiq2npUBg3xFgmvse3H66Nrv3jWGwEoigd+PBvELe2cBSUKbGAFgjXI6Vz4swKSisv3SNduwx3Pc7qe+1Ojo3qBGWtbebkmHOCEO27NM96/U90CRABKjf7iVYd2AGR3rXkeLUDObawBCNYDRHiDNShegQ7s2knvIwAFt1GbzH4yJCc3xNVUW+s2370uY1flhxy3c03FeTgfbYzrrecgH+Sn28LLNlEWILuyYM7egkXlas7etrrT0ruPvbeE3bXcF6wzP9cHAcgnAGSGvp6fW+b6oEFnhl8rIGjgYL7d8GsH9QIz1nvzck04wAl33JpnvH8TgOL3h5Pot+GpOgfITsMEIG+6w/yf7K1bZev7NwPuVskAIQKQt/bSkRiTuQ4Q+lsyAQj5t364h1RW35sHFOn6cnbPC+7zpr9UqicCkA8BaF7uWlcA6t5jhJRUNBCAfNK2Tg8ELzBjvdbLNeEAJ9xxa57x/j18RLZ6UxeL0MKRuu55mbNDC5D3Pz49+PI618AvYbDj3QciST8ZQRBQPlgAcmpqQkBow43LMj4//gtNEoC89UPdB5MNQAg9rdzQthxNSjAK0zWOYbC9aSeS55AfziUA+WSQ3KJFplrLAFYdLJKGoAdOAssaODmwTlA/BkJwrCen+kuV/V5gxlrWRAVBsOYbz9+NWQjVWi4CUPAfXaItQHrwlUwAGp81QL45WSEIePBStf1cSugmd8wI+efpSnUeXeCCdWPtV+bvZIEQAchbG+k+mEwASoWFULHWEtYgAoTRAuRNO2Y/bwrfCUA+ASCIbXZOwb25PWV7pHOXoY4D+9lzC9V5CIaQ0T7L8bymIOCmfA/RAFAkYbARChshsa11mGoWIPOPCgsTWssbyW8CUPAfXaIBKJK2ite53dt3l0+eKFZg88eDxdKjQw9bTdUtnSn/fmaj/O+FKqmeH96VWFsqMaBaXYhw6Bm26cbrvnS6ybIA6fz11hGEbv5WRi6J/eLJ8QKgWXPy1SAZ7ZozvyQpbYo6jTQIgm4H6zYVAAjjkk3bT6h6xXqG1jIm4jdCYmMNIrQr3PESkSfzCP7/SXZ9EIB8BEA9e42W0oq9Cm6wujVMuFYBDRk2I7AwKoImNGvWIeQc6zX8nVqdUrdHNAAUbiFULOSJBT2xbg3W8cF6Pjo/vU01ADLfFiJqD4BIlzXSbbIBqGLxYc9rBkV6b9Gcn44AhHo6X3Ev7DUA51B+jlr3x6y/2cOHytdPlitI+vvJCpkyaFBYzZkDZXw300vk91QBIH3PdiC0YE99zOsnXgCEAToGyVjkFpCr7yvR26YEQMMenS07Gy6oOh03MfQ/KBF1G0vPgkSUl3nEfpxGAPIRAKED4I8VbnD45JfUyZhxC6Rjp4ECV7d5uWWBMNl5RTsko33/pD2s2Vkb31mjAaC2D/eVk1vuqEE2Fu98tv5TQWjmqSNWS/XKp+SVfV8FjtWXvGCrj1QDIGgJf5IYgOAzdYa3t8edMgYL7sX8TBuZJy82fKnq4Fzth0HHcN6QPjODFn6N9RygnAllcv3IDyp/tMXGFSelcsnRoI8dlDa2PwEaEUwCg0Tzc/6Fe2uivHz1c5k+a3XQsUdHZtu+ZGlsWVLhegAOwAZucFj89G5DvtQuniFLJ4yScxW58o+n77m+/d/FajlT5m2ApgfKGNgNGTbTtm/F+t6x7IHZnviOdkR7Yq0btK/1OMqWjBdjJgj5BYAQfAgBhQBA23Y+Ld26j4h7u6Jt0EbWdttS+5Rq05vvfq8ivFqPQwux1lc80jPn3jT2hVZjyte3/3ipqT+r2hbPxsakxWsbP95JRh0SgHwGQFjXZ2Z2fgB0NAyZ24KSOoa/9lm72nX+aAAI6cDKc2nXH9UgG5Ye6wdgdGLzbQEs2eWbigBk/mkibGnf/hNsy27eD8DPeu/hflsXnY01ADW7v4McqXpD0AZOZQm3lpB5j16/Y94gBk4YFHv9XHvrGzUI85qH384rnjE+ADoAIesHYPTypqXSoU2XsFoz9bm59qS075AY12NtFfDapjgv2QuAAoQ69In98gwAAmgW9wjLppMeI7F6mm5S5Rv2y0MPdXNM1ym/SPebFrxI2hVaiDSvxJ+fIdlzC9WLrGS7nsUyumji69GfwJFq9UQA8ulAuUevUSoYQnH5vWhvePitLqiRseMXSosHubJxqnW0aMoTLQAhr5Ytusr6pcfk1ce/lpvHf1GD7ZvHflZgtCp7R5CVw1q2VAQglBHQA/jBH+fWnaek/4CJrn/4qQhAum2qlp+QK4e+s4UgAlDi/tyHdO8jz1ctlu+eXiew9gCCfj63Qf7wRLGsmzMpxDXO2lf0b3OgDIsBLAf6WDy3fgSgeNVHPADIdJNK1FyVpgpADzzQUeYuKA3AD/oJ1uOJlx7Cpavn7MGrYMKkxUkrR7hy8nj8/g8IQD4FIHaK+HUK1m3q1u3ocfNlZ8P5gE8+oB8vA+6/vz3/wPgsS5oGzIFyYwN18PmTOs8fbSXASxcsMM62ibxtEMF25Ji5UrnpkHpuoy43bDkiHTuFn1cXz/qGyyCstShPTf0ZmbdwrfToOVLNMQWsxTNvph25juJRZwQgDhrY0akBX2lg0JCpsrnm3h8X/rwQyQdv4OPxgGSaqfFHlertYA6Ux09aRC02kWeqXqwzFmuQpbqG41U+XYd4VsPagui07dqlxvN69Nj5Urv7XADMNAzhhUa86oPpps5/CgGoiTyo2alSp1OxLeLfFi1bdpUZ2XnKFY4AFP/6pqbd61gP8vAmmYMn97ryk5b0Yp0I2cwlJaJrV/QNgM+6jQdl4GCEk09OeHgn3XXtPlxW5m+T7bvOBKxB7MPRtbVTHafqfgIQAYhvOqgB32oArm+IdkiXhfT4w0rNP9IMte4P3h5XJWlV+9SsF39rEgEPEPgA7VpctkfgysV6jrxNERAkmXN92GaRt1m61BkBiINfPtSpAWqAGqAGqAFqgBqgBqiBtNEAAYhiTxuxp8tbDd4n33hRA9QANUANUAPUADXgrAECEAGIAEQNUAPUADVADVAD1AA1QA2kjQYIQBR72oidb0Kc34Swblg31AA1QA1QA9QANZAuGiAAEYAIQNQANUANUAPUADVADVAD1EDaaIAARLGnjdjT5a0G75Nv8KgBaoAaoAaoAWqAGnDWAAGIAEQAogaoAWqAGqAGqAFqgBqgBtJGAwQgij1txM43Ic5vQlg3rBtqgBqgBqgBaoAaSBcNEIAIQAQgaoAaoAaoAWqAGqAGqAFqIG00QACi2NNG7OnyVoP3yTd41AA1QA1QA9QANUANOGuAAEQAIgBRA9QANUANUAPUADVADVADaaMBAhDFnjZi55sQ5zchrBvWDTVADVAD1AA1QA2kiwYIQAQgAhA1QA1QA9QANUANUAPUADWQNhogAPlI7AMHT5XyDQci+szLXZs2Yk6Xtxbpep9tH+4rOwovypVD38lbJ/4d8ln72AGl9Z6dx8jzuz8POa6vuXLwWxk5YD77hY+efbHU/Kix8+TaW9/InY9+kdOX3qYO0lQHsdQU06LVhBrwnwYIQD56+BOA/NfB+FCMTZsBfk5uueMINYCbdAAgE+4AefhNjUWmMQJQZPVFfbG+qAFqoClqgADkQwAqqdgr/QdMkjaP9Lb9ZA2cLKUVe5WlaOqMFRwg+aiNm+JDJhb3tGzmVrlx7CcFQBfrPpEFkyuVFQeWHP3plDFYab3Z/R1kSJ+Zgf36+IF1V9T1frYAEYAaPxAhADW+DmPRp5kG24EaoAaSqQECkI8Gx9oCVFLRIN17jHAEG0APXOUAQT17jXY8L5nCY9588EWige1rzit4+d2Rf0r2uOKoNL2n9CUCkI+ed5HoI5JzCUB89kSiF55LvVADTVMDBCAfDQi8AFCbNr0kr7BWAdDi5VXSvHlmVINFdvim2eH92q6xgJdYpJHs+qMFqPH9kgDU+DpMdj9g/mxDaoAaaKwGCEA+AqCu3YbLnPnFMiunQDLa97cFm4GDp0nZ+v3qM+zR2bbnNFY0vJ4PnkRrIBbw0pg0MtsPlU2rnpZXH/9abh7/RVmSbh77WV7Y8ydZk7NLWrboGravwRXvSNUbKojDrSf/NyiN0tz9tmk8NnWjvHH0R3WuDuIQbhsvF79FyzbIzXe/V8EDGg6+IH36jZPDJ6/Kjbv/UPtuvf+jPPvK79UzykkfPXuPlhdf/zQQgKBtu76ys+GCXLv9d7Xv9oc/yeU3/iIbNh+Vlg+51ynyb3jiBbny5teC6xDU4Mbd7+XSKx/J/MfKpVmzDrZtYgLQoROvi10ZXr76uawuqHFMw3p/rVp3l9WFNVK39xnZ2XBeFi5eJw880NE2f+u1/M3nKTVADVADidcAAchHABSug+APH3/8cH8rKN0lGe2z+AfchNo3XPs35eONgRddL9GmMXLAPHmu/jNHCAHMnNh8WxCoQedl3QJw3EDGKY1UBaDDJ67I85c/UdAB8DA/t977QdZVH7KtCxOAzlx6Rw4ce01uf/hz0PVIC/sAN04QM2dekfz2xlch1+lyAIh273/O9noTgB4//LKcuvCWbTpuaVjbF27Hu/ZdDHxqd5+V/gMm2taB9Vr+TvzAh3XOOqcGqAECUBMaIHfuMlSKy/YoAJo9t5B/vk2obdPpYQ1ryvD+c4KCGAQCGBz6zjYAAqwrOgiCU11FA0CAmrO1Hyj4AaQ8W/+pijY3dcRqqV75lLyy76vAsd2lLwkCMFjzzxm/Vn53+Ht13vUjP8i+8tdk8fRNMmn4cqlcekxe2vvnQBo1+ReCrh/Ya5qULToolUuOqg/yvHzgG3U+tvitj+ltycLHBRYrazka+9u0AF299Y2y/Ow79JLMzF4jeUU7FEhoSwysMhMmLQ4pgwlAl298JUjn+Ok3ZMmKapm7sFQAJNqi9OZ7/5Tlq7eEpDF46HR55doXClqQH0CqsLRelWPnnguBENewSFXagJgJQM+++rFcf/tbVQbkj3LAKgSIA0yhLLlLKkPKYK1LKwDt2HNOBgyaEvY6azr8zUEZNUANUAOJ0QABqAkNkidOWcLgB02oPdP1IQiYgRtXOFcv63EdBtup3qIBIDP63MH110Lc1DAnB1HpUBasTzTl0ZUhg95dxc+r44CfnAllIcf7dZ+oXOmQRrjQ1smcA2QCEMAAsGCt66otR+WtD+65o23afiLkuAlATpaiVQXbBfADAAEcWfPYuPWYshDBSrRlx6kQK8/IMfMEcIXrX776J+mXFWyJMQEI+dhB0tKV1QF3PwCRtQzW33CBW1O0gy5wfP6G1YpVO/ydmMEu65n1bNUAAaiJPLDhL788b4sCIGzD+c9bhcDffDikigZSCYA0vFw99A+ZMmKV7eCmYN5uefP4vwQWIlhfoqlHr3CWKgB04uzNEPDAfQ8dPjMAH3bwYgLQi69/Jr37jA2pL/MczCnqlHkvvLmu11MXbiu4gRXIycpSU3/2vxac72XhooqgPEwAggUIlnOdtt4iT+QNiLIrgz6PWz43qQFqgBrwpwYIQE0EgLD2z9rKxxUAjR2/MOQPnR3Unx2U7Xav3bwCglt9RZPGU1veVtYbBDvo3SV0sI78EJYb4blhwUG4brcyOB3zWrZUASAEQbC7FxNeTl96O+SccMd1mrgW8IGACbhG7+/WfURg7tHZZ9+xhTCcC5c4WKLwwXd9PbYmANmVUZ/rVAZ9nFs+U6kBaoAa8K8GCEBNBIDmLlyr4Ad/9u07MPgBH0r+fSjZtZ1XQLC7Vu+LJo2nt91VYOPmmmZarJCHzs/c9uk6Xg6t/51c++9cIKv7nv4dLoJbugOQV4Ay3fUQFdNsCwJQ03o2mG3L72xbaoAa8KoBAlATACBEe0PUN0R/cwv/6lUUPI8PkFTTQDTwYr2HaNKIBQAh2AHCZ2vIcdsSgNz7HgHIvX6smudv1hc1QA1QA/YaIAA1AQCCyxvgBy5wcIWj2O3Fznrxb71EAy/W9o4mjcYCUJtWveXM9vcV/GCO0DM7P5blM7cFRbiDBSkQ5e7gt+qYtez6d7pYgPT9WrcEIP/2YWtb8jfbkhqgBpKpAQKQzwHowQe7yNKVmxQArVizTR5q1Y0A5PM2TeYDIVXzjgZerPcSTRqNBSBzftCprXcd1wryWjYCUPBCqtY21r/pAseBldYCt9QCNUAN2GmAAOTzwXLPXqOltGKvAiCsRWHXyNzHzu93DXgFBLf7jCaNxgZBQFQ4WH7g9uYWpttr2dIdgBgEgc8ytz7OY9QHNUANeNUAAcjnAIQFT+H+hgVQ7cK5ehUCz+NDI5U14BUQ3O4hmjQiCYONUNgIiW2WwQSgisWHg47p87B46vFNtxQk+WUOUCzCYLtFYNN1Y7eNJAz2G+98J3PmFQXVuxkEIZZhsIdtzKYLAAAgAElEQVSPyFbrAO3ad1FWF9bIffdlBOVrdy/cx+cuNUANUAPJ0QAByMcA1KZNL8krrFUABJeP5s078Q/Xx+3Jh6DzQzAaeLHWJ0JUwxLzxtEf5bGpGz31lXALoWIR0+fqP1Ppvv7E/8iYQblB6ZoucGdrP7B1gcOcICySirKFAyDA0unt76lzX9r7ZxnQc2pQftZ7juVv063s+p1vbRdC3VRzQi1SihDW4RZCjRaAwi2EOmnqMnn95l9tw2ijPkwAuvX+j7YLoZqLsXpZCBXpzpqTL4AffPA9lnXPtJyfDawb1g01QA1EowECkI8HzMMenS0I8YoPvkcjAF7DB4cfNBALAMqZUBYAjVf2fSUrs2tDghH07xEcRKTtw33l5JY7CjjgyvZs/afKlW3qiNVSvfIpQToAFxyrLwldG8cMgoDzAEtwhUNkOFiHMMfo5vFfAlHiwgEQ2mpH4cVAnk9tfUcqlxwN+iDdzPahi3s2tp1NAHrmxQ/kxt1/yL5DL8nM7DWSV7RDTl14S25/+JMCj9/e+ErGTgiGQeTvNYiBW1n7ZU0MrAWE/M5ceket9YNy7NxzQa699Y0qA+CmfENwCGykawIQQO76298KFm2du7BUQR2A59Z7P6g0cI+5Syo9PVtX5G1V8LOz4YIMGTbT0zVu98ljfDZTA9QANRA/DRCAfApAzZtnyuLlVcr6AysQrEHsKPHrKKzb5NZtLAAI1pPdpS8F5uQASKwfAIm1rWHlubTrjyHn6msBPyc237a17iCtcGGwL9Z9Ik9UXlHpewGg4f3nBMBLl8HceknDeo9efpsAtLn2ZABCYO0xP4CHddWHQuoRecQCgFSdTl0ml9/4S1C+ZhkARrv3P2e7UKoJQOeee1eBm3mt/u6WhrW+Wj7UVUXhhPUHdcO12JL7vLC2D3+zPagBasCqAQKQTwEI830w7wfzf2bnFNgONqyNzd98APhVA7EAINx7yxZdZf3SY3L5wDe2IGQHQOZ1WM8HFhsAx81jPyswWpW9QwBXbnVrXQgV0ASXuZ2Fl5S1JtL7Q3pHN95UZTDhB98TAUBwb+vRa5QcPnFFWYIADbC4PPvK72XO/GLHuogVAKGu8Qys2/uMXHnz64Dl6cbd7wVQ41YGE4DghqfTuXb77wqoAD4vX/1cVhfU2AKUXTu3y+gncP8DAJWu2yeIzml3HvfxGUwNUAPUQGpogADkUwBiB0qNDsR2YDukiwZMC1DDwVB3v3SpB7v77NNvnNTUn1EAtGSFt/lldulwH58n1AA1QA0kRgMEIAIQ31RSA9QANRBWAwQg5z/lEaNyFPzAAjR+0qKwdckBjnNdsm5YN9QANZAIDRCAOPDhnzU1QA1QA2E1QAByHpRkzy1SAAQrEKxBifjzZh7O7cG6Yd1QA9RAOA0QgDjw4Z81NUANUANhNUAAchpQZKh1f2D9qdpyVNo80jtsXYb7Y+Zxp7rmfmqDGqAGYqMBAhAHPvyzpgaoAWogrAYIQLH50+XghfVIDVAD1EDyNUAA4sAn7MCHHTX5HZVtwDagBqgBaoAaoAaoAWogNhogABGACEDUADVADVAD1AA1QA1QA9RA2miAAESxp43Y+dYkNm9NWI+sR2qAGqAGqAFqgBrwswYIQAQgAhA1QA1QA9QANUANUAPUADWQNhogAFHsaSN2P7+pYNn5po0aoAaoAWqAGqAGqIHYaIAARAAiAFED1AA1QA1QA9QANUANUANpowECEMWeNmLnW5PYvDVhPbIeqQFqgBqgBqgBasDPGiAAEYAIQNQANUANUAPUADVADVAD1EDaaIAARLGnjdj9/KaCZeebNmqAGqAGqAFqgBqgBmKjAQIQAYgARA1QA9SA0kDLll1lyLCZ0vKhrtQENUENJEkD6H/oh61ad2cbJKkNCBmxgYxUrkcCEDsXH7DUADWQ5hpo32GArMzfJnV7n5FNNSekXUY/aiLNNZHKA5emXjb0P/RD9MeS8gbp3mME+yP7IzUQYw0QgGJcoU39wcz7a/pvRdjG6dTGGTJx8hKp3X1Odu27qD4EoHRqf95rKj7vNADpPgkQmrugVB54oCMHwRyzUQMx0gABKEYVmeiHaI9eo2TRsg1SXN4g5RsOSNn6/bKmeKdMmLxE4MaS6PIwPw4kqIHkaaBl614yfEalTHisPvAZn7tLOvaY4PIsyJDsuYXqLTMGWoCg7HlFYd1udlytkRN/OSLHPj8ocysfC6TvtF/rYvT8KVLz+nY5/sUhdf3hTw5IwaEiaZvZM5CGPhfbictmyhO/f1xw3tTV2bbn6PNzNy+VfXf3yJN/PqzSRvn0B+XS58V7W3ikWJUB5Vh7ssxTvk715rQ/3vfQmPQHzV4gJS9dlB2f3pX6P38ou754Xza9c12yt26VFq3S43/p9KW35c5Hv8i1t76RUWPnedKAXZ3jf3zytGWyfddp9WICELRs1WZCkE/HbHZtzH3J+89E3ROAfNaZmjXrIDOy1yjgAfjYfQpK6qRrt+FRP3jZKZPbKVn/rH+vGmjZurfkrD0vGy/8SzY/+/+CPlXnf5YB49Y4PgdGjM6RnQ3n1eBqw5Yj0rnLUMdzzfI4Dcyd9uPaYTPHK0DRUKK3AIV1Z9eF5JvZp79s/+02BROACjN/6/e8xwvk+Jeh4KPzQLms18Tj98icSXLgw30KvPa+vVv6j/XmtuRUb07741H2WKQ5qbRMaj6+rcAH8GN+dn35gaw591RaQFCsAEi3ycNtekpJRUMAgmbl5CdEzzp/bvl/1FQ1QADyGQCNn7QoAD/5JXUyZtwC6dhpoPTLmijzcssCx1YX1MjDbXrxQemz9m2qDxreV+z/RJs/2E2W1dwIQE/1xX9L5dPfybpT9z7Fhz6TDt3G2T4D2rbtK4AeWH42bj0mHTsNsj3Prt0qz69Xg/xILED5B4sUzOCakifXypzyhVL3xg61D9DwaHawpWpVwxoFNTgHMGRXDuwbNGm0PP5ugyrPoT/sl9X78mXMgilBn8FTxjhe75RuNPvLTpWrcgDGlu5Y6TnPaOozmvLF85r2PYdI5e9euWf1+fIDKf/tCzKlvEIe279Ptn3wZsAalLOj1nO9xLO88Uw71gCEsiIYArw80F+31D7l+WVFPO+Tacf+mc46TWydEoB8NEBu06aX5BXWKqvPqvzt0rZd35A/E7jA4UEJy9DosfNDjrODJbaDsb5Z3/HSwMjZ1QLo2XTp/2Ru2TPS7IFOnvs7XGvgUoPPhEmLPV+Hewk3YIfL2pSVs4PS1NdUP18d2D9q7mR54qN9Ia504xZNU/uPfPqEzCpxdyGaWTRXcB6sPaUeXc7i0R4TlsxQ7nooRzhos+av68YJKO3q05pGsn8/+tgyqfnDHQU6a199LsjSM3r5atn+0VvqWMWVl4KOJbvc8cg/HgCEcg4cPEVqd59VEDQ/15t7ZTzuj2nyP62paIAA5CMAQiQYmMIBN8NH2PvEt364p6z+LyTNy10bGGw0FcHyPvjwpQbuaWDJ1qvK+lN69Etp28m7y2uLFplSXLZHDaQqqp4IO+fHWt9OA3bADQAAlhhYYczr9DXY6v1wEYOrmDnw79izb8D1zcscGsxBwvXId+WevEDaOo9EbB9slSkbn9uoymDei9e8dd1Yr3WrT69pJ+o8WHt2fnZv3k/uvoaQdoBFCC5x1XeuSe+xU0OOJ6qcicgnXgDUokVnFREOVqCqLUelzSO9m3Q9JqKtmEd6jycIQD4CILi5ra18XAHQwMH2fyIPPthFlq7cpM4hAKV3525KD/c2HYbKmPk1gkE/3L7wWbr9dzJ5+QFp036wp4EALCSYE7Ng/QuBNJDeiNkbPVlPcD3O1WWYt+5ZyegyWjAPZ3TOVhV8IGus/SC8a/+Z6jjuAfeCaxCwAPeAe3ms+lXp8+hi+c1v2nu6l9ZtB0jRwU8VAK3cdcfzddBE+w5Zsrn2pAKghYsrPOVnaslpwK73NwaAtOtb/Zt10mvYkLBlSwUAgpVKW6G2vLJFAERmfYX7ruvNCkB6v119hksz0cezpmbLlndvKMgpeu58yP0DeobNXywDZ82ztQAhWACCBiB4AAAC89Fgnbx2++9q3+0Pf5KXr34ucO3GPFin+2s4+EJQAIKVa7ap63A90r5+51s5fPKq9Oln7xqq00X+cDW7/MZf5Nb7P6prb733g7z4+meSX7zTdZ0sDUCvXPtCBgyaItYy4J5wb17n3OkyYTt1xgrVbxEYoVdv766dcKFbXVij8sW8v4WL1zGYgo/GfqYG+D124zoCkI86QWbnIVJUttuzBWjarNWOfxTsRLHrRKzL+NUl5rnMq7ikXL2sk/z1b0z2Hz13m6vWB44vkIqn/h6YL6Ov1VtYUTr3sX+pgPZFNLXCA5+EXF9+4hsZOmWtmnuDtLKLz9iWY275RXXtulPfqrLalQWubAho4AWCOvWcKEgLeSLtSDSIwV9N/Rk1kIrGTVYPzOGaBXc1nbfebzdg18fcXOAicX3TeSYbgGCxQmQ7WKC8RKvT5Ta3um4iqU/z+lT5vuLkMUGwA7i7we0tknKZAHTuuXfl1IW3FHQAWswPQGb3/uccIcgEIFhJbr77fdD1Oq3nL3+i5s3alXHkmHmC4/pc6/b2hz/LyXNv2rqgIz0NQC++/qls3XkqAFDWdJ599WPHMtiVC/sAVDv23AtZP2JUjuc61uAE6xE+cKXrP2Ci5+udysP98fvvY93Gv24JQD4CILz5WrioQgFQuDlAcJXj4mnx70B8SMWvjgECAAKAAQb6gIblO24GrDf5+z6UTZf+o45h8n+3LHu3UMARIAlp4HzADqwuK3a+JevP/FPtx7HCA38QWFasbQqLjYYflGXtsb+o61fvvquir2GL9HEMliDr9bgPWGmQR9mTXwugCfcCcJm2+ojkNbwfuI+NF36RwZNKQtKwptl/9EqpOveTShPhrq3H3X5j4IRBUE39Wenbf3xE1yJdPWC3go7TflzjFgTh0Mf7VchrHfXNzfUNAQ3MIAfL6lYFXOCKjpQEHdPnxTMIwmNbl8mxPx1SwRzsotm5tYM+5lRvTvv1dam2hZWn+vbVe65ut69Jv0mzPGvLBCBYaa6//a0cP/2GzF1YKktWVMuhE68LLDCACEANloCwu38NQG+8852y3jz/2idqTuy0mavUwqKvXv8yADYHjr0Wkgbm1Z5//j11DkDH6Xoca3jiBVsQ0wB0+cZX8tsbX6k0sJjpzOw1sm3n03Llza8D6QPm7O7DaR+sPjos9qw53qPBWQEIEAWYcsqH++P3v8a6TZ26JQD5CIDQcTLa91duAJgH5BQFDkEQEC2OHS11OhrbIvK2ANAAbAAOABZYg6z1OKvgKXXcCT5g1Sk/8Td1DqCj36jlQWnAFQ1QpeDo4n+Ui5s1j5y1F9RxBByYuvJQkIVm0MSiAFw5hZ023dU2nv9FgY95L1bQW1j1clAZcW6H7uMFVh/9mbxsvwIuABOgS+/XW5xv5mHe068AdCasK5B5nf5eeLjYdq6P24A9XBhsr65vOjQ0LC5eP/EKgw0XPbjqoRxYr2jHtdrAGkdY6wjH5m9cFNYlLpr61G2RStsOfYbLjKqNKhhCpGGvTQCCy1ll9aGgPoD7XLqyOmDRARDZ3bsGICcrzeCh0wWuaQApAMrQ4TOD0lm+eou8+d4/1fHDJ66EuLr17D1ann3l9+o4XNmmTF8RdD3KpAEI1io7SxFc2eFKhzJoNzm7e7HbZy6Qmj23KCRvu2uwDy5wa4p20AXOZ+M9p/bk/sjHE3Z1RgDyYYe4t0Dacildt09Zg8y1gPC2DK5ydo3NfbHpNKzHxNQjBvYAGyewQDu0yxwh4xbsUPNpMnuHvtHUgARQGDbNfr4L3OMAJoAgqwsb5vjAaoNjAKUHWnQJ6lutHukXsA7BJQ0AYtUH9ml3tYL9H6v5P9Zzug+cI+tPf6/ygWXKPI55R5su3rN0oRxePgBHJ5e+xgKQWbZIvjsthDph6QzPUd9SCYCW7VolT7qsPwQwwjpHGy5WuYbyjqQOU/FcgA/W+Kn703vK+qPX/8EiqLmPhwZEsLsHE4DgGmY3P6ZT5uAAfABC8NualgYgWImWrNgYchzn63NgJZozLxgidu9/VoHJ7+78j0ydYR/KvLC0Xt764CcBZJWu2xuShwagG3f/oSxY1jLiN6yvACC7Mtidr/dFC0D6em4T89/FevZHPROAfAZAzZtnCkJd48Frgo/5fUXe1ojW9WBn9UdnTbd2AoxgsL/h3I/Sd8TSkIFGuPpo2bqX5O/7SKXhBB5Io1vWbFm85YqyMg2bHgxJQ6eWKzc3AAhAxJqn6d6GoAR2LnQIvKBd8GC5saaB3yYkWS1AuMYL9JjnYA2gh9sNtM0rWQBkd9+RRn2zppGsOUCw/ux+a1fACrX7Vp3MLJ6nrD1Ytyh381LZ/8FedRwQ5ObWZ70nP/1u0aqrgh9YfDT4mNsdn96VqRWVtjo079MEIACEecz8ruEC82tgjTGP4buGGwRUQJrW4/gNDwknV7pTF26rY7DQ9O4z1vZ6QBPABWkAZKx56DJGWwZreuZvAhD/q0098Hvj9EAA8hEAYQ7QnPnFCnzwEJ+dUyhYGwidAMf6D5gka4p3quMIc9uj58iQhzM7TOM6DOsvcfU3dsGOwPwfzLvBfJlBEwolo8uoIDc0pzYxrTeI3OZ0ntt+DR8bzvwgvYeHupWa7m1Wy41OF5HfACewMsHapPebW3NOjxWSkId2bcO2x6B5UnL4TyrNNXs/UJYe8zi+u9VRKgGQ1fUNEdSGzxqv5vJgGy6iWrIAyMy39mqNrYVnRPZEefy9e4u0Yr0jrHtktnlT+I5gB3r9n5qPbwsWOm2T2U+G5OQGFkCttswHWrB7l+z87F0VMGHN+afV+akCQBpenAALbWaWFcBlbUedBgEocf8V1jbgb9a9Fw0QgHwEQFkDJ6sw2IAfWIHsGhhzhPKKdigIemzpeoHFyO487uMDItU10KHbOCl78q+21g+4xsHNK3fjq45hsAEsABfAx4y841H1A1hjcD3mD2FejbXOABvavQ1zhazH8Vtbstzc0rS738YL/xJYnezS0ftMsLNai/Q5bttUASBr1Dcsanrgv1YTPb8Hv7Hf6X5MEEnkOkAIeIAyHv3sCZld4rzgtA7+ACvQivrIIqM53XMq7V+wp15ZfnZ98YHMq9sZ1E7TN1QJLECwCGEdILjK2e3D/ZhQAYBwukcNF06A4sUC5JQ29odL31pWAhD/R930xGOprQ8CkI8AKGdBiQIbLHSKBU+dOtfY8QvVeQiZzflAqd0BndqQ+++1W+c+02R57U0VrQ3QY7p56e+I0IZIbdY603NnnNzXrOdbf2O+T96ed1WeyAPzfaznmO5tTtHYdJAFN7c0DUmYB4T5QNZ8zN8m2FmtReZ5Tt9TAYCsrm8jcybJgQ/3BVzKNABhCysKgijY3U+yAEjPRdp3d48MGO9saZ+ycrYKj437QJAIu3vw8741504pwIEV6NHHloXcH+YAYS4QXOQAQbASAYg23roSFCWOAOTtf4oucN7qyc99imVPXBsTgHwCQOYCp/Nzy0L+aMxOA99lBEiApQhWI/MYvyeuc7GuY1vXmG8D1y64wc3MP6HCSQOCnCLAafc1hIuGi1mk7YE5NIAW5OHk3haw3Di4t5lBEgBT1iAKukxw0UM+CLgAC4/eb7fVYOfFWmR3/fAR2SoaVDJD4Vpd32AdgZXkyB8PyNzKXOX69tiWpcrCgkADS3fYt1+yAWjv27ul/9gRju2FUNwIF97kAejj22qhU6veMEeo9OVLCnr03CCrSxyuIQB5e1aaa3ghtLW1vvnbWz2ynlhP0AAByIcAhFWcMefHqRMjzObaysfVB9+dzuN+PgT8rAHT+mLnfmYuPgpXtUjvFVHUdBhuu/SRnrbcOLm3wW0O7nOAGyd3NTNYA4I24LdbWeHOh/S8WIvs0jEHUdEshGqXZiT7tOsb3Mdy1uWqe4X7GiDBDFmN+T87f1er9ju5tyULgPTip7BaPZo9wbG95pQvlKOfH1T3UHrS/cVVJHWYKucGLEAOAIRyDs9dqhZHBQDt/Mw+KEKqAFCqB0GIdiHUVNELy8ExRyppgADkEwCCaLQLXEHpLslon+X4p4s3Q4gKRxc4PmxS6WETSVke6TBUTfx3m8xvho62cz+D1SacVQXR5RBlDudZ5wmFAyzTRc7Jvc2Lu5o5p8dLsIZIrEV2dY7FHqu3HVeLoTqFCra7Lhb7TNc3c+FQOwBCftrVLJ4AhDKtv7Bejn95WFmcvMzVAcwA2GCdQjhsp7opO1WuzsNiqQurFzue53R9qu9fcuiAsu7U/uFtGbNyTcj9Yd4PXN+09QfbiisvqflA5r2ZABSLMNhuAQjMfK3fIwmDjVDYCIltTUPPI4pHGGys/YNFjLEYKhZFtebt9ltbfnH96sIaue++jIiud0ubxzjW8KMGCEA+AiAdBAFwAxiyC3CA0KCIAIdzGASBDyU/PpRQZg0vTmCBcyYvP+C6TpAOYOC0jhAWCsUCq9qa0mvoPWuErjMzMtuSrddCIs+Zi6A6ubd5cVczIckKYbosehuptUhfZ26bNesoBSV1aiBVtfWoAIjM4/H8rl3f9tyuD3Id0wAEi4+O/AYw2XVjZ9wtQAATAAqABp/DnxyQyStmudYJjuM8nI9FUCcuC15QE3U4v2qRAiqcE85VLpZ1vqpgu2rbur3PyIjROa730dh8p1WuVxHdADaI6AaXN50mvi87eujeHKAv3peSF5/5NfrbuaeCzjUBCAuR2i2EivvSi5SGWwg1WgAKtxAqPCqev/yJCoF99dY3gvm2+n71VgMQwmSfuvBWSP8yF2ONZCHUFi06S0l5g2rbiqon1OKmOk8v21lz8tW1ACB893INz+EYoilrgADkIwAyw2ADcFbmbxNMaO7YaaD06TdehciG6xuOMQw2H1x+fnDpwAHVF/8t01cfFcCKvh98n7Bod8Byg1DQLVv3DhzX5w2fUSm4HoCDMNr9Ri0PQEyXfjNkVf3bgTDbc8ueCRzT15uWGUAUwnJjHhI+j87coKK/IW+kDyvSxMUNgsh1zR7oFCiLdldzCqONvMKtNaTLg61ZJi/WIvNa8/u4iblqHhAGyU4LPprnx+K7DnRgur7pdDHf5/gXh5QVpvJcpUxbM0eqnq1Sv92sJ7FwgdPwpQHo2OcHBenqsjltsbYP5i3hOtwTFjxFRDiAz9ZXt6j70cewzymdWO5v+VBX5fqMQe62nU9Lt+7O85NikW+3YeOl6s3fKguPDnSASG/4wPKDffhgoVSEx8YWvxEdDufoMpgABAvQ9be/leOn31ALiWJxbwDPrfd+UOABy0ruEvu1hRobBQ4vAwAtgBcsdPr8a5+oubTTZq6STTUn5NXrXwaO7d7/XKD8+j6w1QAEWLt+51uVBsBlZvYa1SZX3vw6bBpmevo73FV3NlxQEDN9VuQRBbE+IHSBNIYMCwV2nQ+3HDukiwYIQD4CIIgSf3CYAwTIcfoUl+9h8AOftWu6PHC83uewaRWy8cIvCi4AGE4fzK/pOcQ+DLFp4XG6HgEUlm6/bgtQKGt2yZkAJFnTgPUoa2xeAMRw3BrEwIu7WiTBGiKxFrnVddBAue609O3vPI/FLR2vx2DV2fLKFgUMpuubvh4Li9a/WRewwmgYwbbujR226+zg2lgAUDQWIOTdNrOnlJ+uUJBmltf8Dphyct/T9x7LrRklrLL6oLR+uIftID2WeY5atkq2f3QryM1Nu7wBdkpevBhwees9dqpU376qzt324a1A5DgTgB4//HIAQgAi5uf2hz8JwMNpDmxjAQj1AisPIMzM1/wOMDp57s0Qy46uUw1AsELt2ndJbr3/o21ayMPrHN2OnQbJxq3HFMDAfbVDxwERtavZ3zfXnpT2HZxd6PV9cEsQauoaIAD5cKB8//3t1YBl8fIqKV23V4EQIr7lF9ep9YFatvzVDaGpC5j313Qf0sOnr5PyE3+zhR9EQEN47I493AfusAzNKT2nFiG1AgzgacKiPUEWG6ueAFFYa2jTpf8EyoG8c9aeV9AEaxAsP+vP/FMdN8Nlm3OE3IIbaFc9p7WGzDJpl7poQ3ubaQF6ttWdVoOqrTtPSf8BkQeKMNNz+75812oFClbXN/OafqMflU0vbgq4jcGqgt/Yb55nfo8FAGX26S8bLm64Z236/KAUHSkJuOGZeTl9n16QI1gM9cinTyiAg1Xo0Mf7ZeNzGx3Ddzul1dj9ZoCLRM7z6DtxphS/cEFqP3n7njXoi/dl0zvXJXvr1iBXN9zf2FX5gjlDgCS9PpAJQLD2wBIDS8W123//r7XkJ3n56ueyuqDGEX6QdiwACOkAGDZsPiqX3/hLAGBggQK0hCuDCUBwkcP5KDvgDSCFe4LltXOX0ND9du0PKx5cVe9Zb87L6HH2L3zsrtX7TDBGhFhEldXHuG26/6FsW/e2JQD5EIAoandRs36aVv20bjtABURAJDd83AIjOLU93NLgnqbTQJpO59rt12VAVDdAkd05idjnxaUuknJgMLWz4bwaXGFQhsFaj16jBC9ZIkmH56ZGn4ObFAbK+PhpnocJQAAI6ilDOmUOkkXLNkjt7nOB/jkrB3N3Ig9eYIJxogOfsC1T49nAdghtBwIQAYh/NtQANeADDQC8Vu++qyxNJUe+sF38NZo/uUFDpsrmmpOBgTPmOuCNcTRp8ZrQP9lE1knO/BLVjslc4yma+yUABevGtNgAZhH17V7AhcjhB+2hFz9GWuMnJWY+WjQ64DXBOmB9xLc+CEA+GPiwE8S3E7B+Wb+pqAEADyxOsFohXPfyHW+q+UiYtzRjzfGYAgrcZmdk5wlc4QhAfu0PGSq8MQa5fpvnQQAK1pwGoJr6syrgQ6tW3RvV37dhQCEAACAASURBVHX47Jr6MwJrUCo+71imYA2wPuJfHwQgAhAfhtQANZCCGtDzfcy5SzpoQ7zc8OD6ltG+vzzwQEdqIgU14TYoeuihblK+Yb+yAPltngcBKHiwh5DXcIGLjSvqr2BcteWotHkkNGKmm654LLhtWB9Npz4IQD77k2Pnazqdj23JtnTTgI4OBwBCEIaSw3+S0XO3uQZtcEuPx5q23hDZC5YfWID8Ns+DANS0tclnD9s3FTVAACIA8U0vNUANUAPUADVADVAD1AA1kDYaIABR7Gkj9lR8A8Ey8c0YNUANUAPUADVADVADidUAAYgARACiBqgBaoAaoAaoAWqAGqAG0kYDBCCKPW3EzrcriX27wvpmfVMD1AA1QA1QA9RAKmqAAEQAIgBRA9QANUANUAPUADVADVADaaMBAhDFnjZiT8U3ECwT34xRA9QANUANUAPUADWQWA0QgAhABCBqgBqgBqgBaoAaoAaoAWogbTRAAKLY00bsfLuS2LcrrG/WNzVADVAD1AA1QA2kogYIQAQgAhA1QA1QA9QANUANUAPUADWQNhogAFHsaSP2VHwDwTLxzViiNdDyoa6ytvJx2bXvYsinpv6M9Ok3Lq7PBLf8N9WckHYZ/eKaf6Lrm/nd6+P3399e+mVNkMzOg9m+YcYd6CNDhs2UVq27s67C1BX7F/9Do9UAAYidiw9YaoAaSCMNuAFIpAC0eHmVXLv9d7n1/o9y8PhlafNI77BacsufANT0BjMtWnSW6bNXy/ZdpxVwjxiVE1Yj0Q5omsp1eAmAvlC39xkpKW+Q7j1GsM7S6BndVHSc6vdBAGKn4oOVGqAG0kgDJoBUVD0hnbsMVVYXDLratusrDzzQ0ZMeOmUOlmdf+b3c+egX9Xnjne9kzrwiD9dmSJs2vQJ5It8Fi8rV4JgA1LQAqFv3EVK19WiQpZEAFL6NNQBpKy1AaO6CUs99M9UHnixfeA2wjuJfRwQgnw58unQdJgsWVUhxeYOUbzggZev3y+qCGhk/aZG0bNnVwyAk/uJiB2Ydp4MG0PcAATff/V4WLduQ8n3PBCC4wuF3NO1kBaAbd7+XhYsqokore24RAcin/0VO2unbf4Jsq7tn9cEAvqB0l4Lt++7LiEojTvmk2v6Ggy/E5HmA//HJ05YFLGeow2WrNhOCmlg/STX9plN5CEA+60zNmnWQGdlrFPAAfOw+BSV10rXb8Cb9J5NOnZT3mtogma4ABF2uKtgecIE7fOKKsiBFo1cCUGprPNI2bd8hK2D5qd19TsaMXyBNHXx0HcUKgHR6D7fpKSUVDeoFASBoVk4+/9t9Nm7Tbcltaj3nCEA+60gTJi8JwE9+SZ2MGbdAOnYaKP2yJsq83LLAMbxt69BxIB+UPmtfPiBT6wHppT3SGYC81I+XcwhA/tO9c7tmCOaGwX1rZ8N5GT1uflr9D8UagFDPCIaA5wzqdEvtU/+1pDUlzfBenPsT6yZedUMA8tEAGRMh8SYIVp8lK6ptXVeGDJuhIjzhnJwFJQKLUbzEw3T5YKIG2qmBSTq6wMWy7QlATedZ0rX7cNm645QarOcX70w7l614ABD62sDBU6R291lVr/Nzy/i/7qOxWyyflUwrds9KApCPOtHUGSsU/BSu3e1q3Zk9t/DeeaX1AlcEdpjYdRjWJevSqgFagBqvCQJQ4+vQqstk/cb/FCwVGKz3HzAx7f5/4gVAiKaHiHCo26otRz1FXEyWBphv0+nPTbktCUA+AaDmzTupCdaw7GCiNX47CTNr4GT1VhoTnOEa53Qe9/MhlaoaGDV2nlx76xs1mfj0pbeVywf83xFyGdYWhF1+6cpnKvBHOCsnji9dWS2XXvlIMFEf19/+8Ce58ubXsmvfJenRa1TYPoLgIqcuvCW33vvhXv7v/aB+jxwzz7MFCNHWdu65IJff+IvKH+VAeU5fvCOzcgrClgHXow5QbpQf10daF2jvxgRBQFvofK1bHItWT+kKQM0f7CYjZlXJhMfqJWtsnqq/HoPmyYL1L8iymhvqM3n5AWnV1tuLrDYdhsqERbtl6fbfBa6ftvqItMu0D6PcsnVvGZ2zVcYt2BF0zgMtusjwGZWqXNjit25bfc2Y+TWC/PT+e9sMWV1YowbpldUHpfXDPSzH7Z+54fo79P7y1c/D9ncNH3h2IM2Va7ap63R/uX7nWzl88mrYta7Q1+Bqhr6KZ43qZ+/9IC++/pnAquUWOESX4Xd3/kemzlgps+bkq2iJOp0bd//hqQzB9Xqv3jRcIqR4r95jPNUt0oELHdoFzw+4JS5cvC7tLHN29cl99v0xXeqFAOQTAHrwwS6ydOUmZdmZl7vW9cFnusoNHDzV9dx0ETrv018POnNAdPa5u3Ly3Ju2A28MKnY2XHB09URY58cPvxwEDNaBOwY5k6Yuc+wnmM9w/e1vbfN//eZfFUQhTbcocEgf+Vjz1r/D3QdeZDx/+RPH65HO7Q9/loYnXnCsC90HCECp0xc695kqlU9/J5uf/X8yr+KS5G58VTZd+o/6jX36U37iG+naf6ajRgFSc0rPycYL/wpco6/Ftvriv2V20dPS7IHgF2cZXUZL2ZNfS9X5n2XAuDWB9LtlZQfKVXTwU2nddkDg2IjZG2XTxf+IdT/0ZWoLA26vgQ/M/n7uuXfVywXdN8wtQGb3/uccNa7hAwAEKwn6pHm9/o6+5PRyEC813Poa+hmeR3i26D5lbs0yIMw8gEfna27DPXfMNPX3AYOmyI495xRgRhJOXIMTrEfpbJ3T9cht6jwDk9kWBCAfAlA4/9/efcZK6bp96s00rEHJFBjz5oMmGg2YAyIMZvA29fjpN9TcN8x/gzUm8Fb37W/VGhl2+WBdGQxYMPBAOrDAzMxeI4Wl9XLm0juBNJwGRD17j5YXX/9UXY/8cA2uRRpIC2m+fPVPyjLkBEBI4/nX7sEL0kDZ84p2BKWB8gGCyjfst+2vB4699t8y/CwXX/5IlQF1BLDasuOUsgrpNIrW1tumoevHHKRGGgY7a8Ak9WYdeeMzfdZq9YYdefvFAtR77FSpvnNN6v/8oefPgj3udarrNtLtwPEFsvH8Lwpa8hrel+pn/ldW774rk5ftl4VVL8u6U98GgGZV/dtBlhidF+Bn6fbrsunS/6lP6ZEvBFYfWJUAVBvO/ajSwHFYk/R12AJsADJWAJq0ZK+CJgCVFXRQLkBVztoLQWkhPXP9mpz5JSHHzbzN72Z/h5UGLxzQ3+cuLFV9/tCJ1wPWV6d+hvQ0fGBNKgAG+h1cVKfNXKUWFn31+pcBGEGfMsuA74Ca88+/F+hrTte7vWzQZcAzC1Yr5Llh8xFVBmxfufZFoAwAKS+LB+tywuqjF5SFZUnvD7e1AhAgCjAV7joe5/93U9YAAcgnAAQRAnzgApdXWKsWEnQSJh52OK+obLdkdh7Ch5yP2tipTdNtvzkgAhhUVh8K0bEJN3aDGbzhBZxgcI5Bx7BHZwelAdc4WI8wmMFn49ZjQcdR54Cdtz6452629+CLIW+eASAY4OAcp4EZ0kX6OAdvpa1tiXLpQdGzr34cEuHJhLCLL31o++YZIIIBF+4VA0drHubvxgCQmQ6+m2UjAEU+WIIbGWACFpWy419J7+GLgtoOVh9Yf3DO+tPfS/eBc4KOow3G5+5S18PKM3XlIfnNb9oHndMta7ZUPPV3lYYVZuwACO5ugC3AV8nhPwUBUNtOw6X06JchwKR1YQIQ3Br1/nBbL/0dbqzaogMgsktTwwf6m52VZvDQ6YG+dvnGVzJ0eLBVbfnqLfLme/9U/Qhh3dFXzHygd734L9xxp0xfEXQc55pleO61P4RYmgBZcHtFX9VucmYebt+jrV+4wK0p2kEXOI4FQvTqpremfowA5KMOMXrsfAU2gJuJU5baChmLEyIENs6B607z5pm25zV1YfP+Ih+MpVKdmQMiWGAw8LCWD4MXDGIwkLjw4vshb1KxKKee87Np+4mQ65GemcapC7dDztm9/1mVPt4oz5lnP6DTAx4nAEK6KCNgzMntBuXDOXb5mGVEXtZ6wG/A3JBhM5VVBlYau3P0vnQHoBatusrAWfNk2PzFnj9dh4x1rVNdt5FuYUXRADRqzmbbPLTFxWqlQV6Yj1Ow/2OVxvIdN20tRDhvydar6hxATaeev84LtQMg7f5WeOAPIQAENzmUo+TIFzbzf4ItQNECkN1LANyDufAuIAS/rfVt9sUlKzaGHMf5+hy7vqb7uxuY6JcigKzSdXtD8tDp44UHghZYy4jfOg2cg+9259jtixaA7NLiPn//R7L9Gt9+BCAfAdDDbXqpSaCAG5j158wvlnbt+qmHJ4IiDB46Q7AIqj5ufePNDtP4DsM6TEwdmgDkZFmA6wjAB+BgB0kYnGCQAjBxGgyFG1TpwQxc3VAmu/Z3iwLXrfuIwHwCp/tAmghsgnLaDYjMNOCSYweDduVy2pfuAORUL8nYv2LnWwpMYFWBdcWuDBqS7CxAGkhgQcLcHLvrYRFaueuObT52AAT3N7jLzch/Ull/ig99Jg+3u7emnC4LgjTY5RXtAN1Lf0d+6ENO/R3HG9tf9csKBDuAK7ndPeJFCOAJ5aipPxtyji6D0wsRpKn7O9LA88MuH7t90davXVrcl5j/MtZz6tYzAchHAISO1KPnSCku2xOwBAF27D6rC2oEwMTOl7qdj23j3DaxGBC5gYlZ926DKj2YiRaATBex8y+8HzR/BveoP8XlewLuPXYDIrjqYbCED1xvUGYEPICb69jxC23d4sx7NL8TgJx1Z9ZTvL9r+IAFCIBidV3T+cOyg3PsIAnubzi24cwPIe5zuB5pDp1aHpgHtGjTb4P+E3QZtHVJu78BtvqNWqEASFuNtLVp44VfZPAk+/k90Q7QY9Hfcb+N7a9uzwLdHmZZkZ/er7e6DASg1Ohnul24ZXtYNUAA8hkAoQE7dhqk3mhjoKThB2+7l+dtUW+TsH/4yOyQB7O18fmbD4RU1YA5yMCgxKmcbgOWVAMgDTDhtnYABNc5AJTTtQiugLfWXiZGE4BSo9936D4+MDdnbvlFW423eqSfFB74REFO3p53Q1zccB0AyMvHLpKcFYC0+xvygkUKc4Y0AGF+EkDLyf0NfdQPAOT0LMF+t+eJvs58NhGAUqMv6bbhlu0RiQYIQD4EIN3ACI0NNyB82mX0D7jHIVw2junzuOVDwW8aMAcZBKB7+gW4wHXmiWOXBcEQYAlCgAgTihA9a+6CUte+n+4AlCpzgPqPXilV535S8AJLjl0fNSEJc4HMc0zXNjcAgnVnee1N6dhjQtD1SMsKQNr9DVHo9DENQNiHfJzc35AeAehXKxQtQPzfNfsrv6eeHghAPgYgs0NNnLJEWYMQ1hZzgcxj/J56HY9t4t4mTRGA3ECuMXqAmx3mImgYYhQ4d22lShhsLECKuTYINQ03NTsNaKsLwGNG3vGgczAvB/NzcAxucnbXh9unIQcgNnB8vor+pucatWzdS/L3faQsQF36zRBYhdzc35AXIpxVbzuu1ppZuLjCc5li0d+Rv3Y/c3NZdauTVLcA9ek3Tmrqz6j6RbRXt3vhMffnAOuH9UMAagIA1KHjwEDkt8eWrmfktybQpun+cI7FgMhPQRAa296IAqdD69oFhDDTT3cLUKoAUHbxGQUvGjjMNtLf9aKjdkEOEM0N1hkAkN2aPDoNt60GIKQzZEqpWvzUdLVDkAbzmJv7G/IxtRXtQqhuLwrCAUpjASjVgyBEuxCqmwZ4jCCQrhogAPl8sIyBD6LSYC5QacVe6d3XPnJNugqc9+3Ph3ssACjSMNh2lhMdFtcuZK7Wlh50Obm8/Dqosg/njXQQjQ73jNXdrSvMT562TK3tgwVUEdxE52vdPn74ZeUOd+XW31Q61uP6tzlIjXQhVJ2G3ppBHtwGrvp8py1CJmOFeqztBDcqp/Oa0n4dmtouuIG+T1h9ADh2QQ5MALJah/T14bYmAM0pOassUnB109dpAJqZf0Idc3N/C1yTt1W1Jda88rrIp9nfYxEGO1oLkO7vXsJg20VsRB3o50E8wmDrfoLFULEoqq5zL9vhI7LVOkDoZ5HAqZe0eY4//2fTvd0IQD4HIAAPwAcAlLOgJGShxnQXOO/fnw9mc0DkNrB2eyPsZSFURFJDqGx8yjf8OvDTutHrdWCejdNCqK/f/KsCDycA0guhOi3oCuAB3CAPu4HX2Am5ar4PjsPKYwUklNUEkecvfyIIna3vwbolACW/T2j3MsCNaXGxtpWGpLInv5aMLsFrYZnzg5zWADIXQbXOIUJeGoAqn/5Oip74YwhoaQDKa3jf1VXPLPf4SYsUACFyodelGMz+joVI7RY+XlWwPbBIabiFUKMFoHALoeKZgv6Fvnj11jcqAqN57/iuAQjn4Fzr2l/ov+eff8+xv1vT079btOis1hUCwFRUPSFY3FQf87JFgBRci4+XYCle0uQ5yX+WsA2ibwMCkI8BCIucwuUN8FO4drdkdhkS0QORHSf6jsO6i2/dmQOiaAEIbYSBlJ4bg0HRzj0XZGb2GrX44JlL7wiip6mBisP6OiZYAJLOPndXXYs0kBbSfO36n1UaTgCENLB+D/JBfsgXYDVp6jLZsPmIOoa0cfz46eshLzHwFh353rv+1zKgjgBHiBqnB2U4BwMwN31GC0DaSoV89Wf6rNXy8tXPVdnswnxjcVZYqd3Kg2P6zXa6WIAAM4AaABAgx65+EJIacIRzMBcH0GSep0NW43j1xX9LTtkFtTAqzmn2QCfl0rb22F8CFqQ+jy4Juh7naQCCix3mIlnzAQBh/4ZzP9qG4TbLo79DJ5trT6qBdtHaesHAXR9z2pr9HRYgBPOARXbuwlJZsqJaADy33vtB6ezG3X9I7pJK2zQ1fEQLQObLCPRJ9Fv0r2kzVynr5KvXvwz0w937n3MtA8p7/c63gmvQz5EGtq9c+0Klgb568tybnq1kWAgdUAmAQb9zqkun/Sv+a5lDGuiXTudxf3z/21i/qVO/BCAfA9DQ4bMELiwAIDxc2bFSp2OxLRrXFuaAqDEAhME3BioadDDosH4uv/EXBSNObbZ4eZUakFmvw+/f3vhKgRC+OwEQ0gXsIB+7NPQ+AIT1bbEuE67XliZ9vt0Wg0enNHRa0QKQDitul6/TvnDzkXSZ0g2A3IIb6DpBGGq4xwFwnIIcZI1dHVjjB+fZfRAFbvTcbbb/DxqA9HVWVzoAkD5mZ0HSZbVudXvW7X1GsucWyn33Zdjmr68z+ztcObVF1Kor9GP0ZyeobiwAoTzoP+hH1rz1b4ARwMXOEovrdRnwPMBLEgCbvtbchnvu6LrBFktfwJIM+EGQiQ4dB7jWp3ktvpt9HnDavkNWRNdb0+Pvxv2/sf5So/4IQD4FICxyivkAgJ81RTukXbv08JvngyM1HhzxbgdzQNQYANLlnDO/WC698pHcuPu9GoxgIIUBCAYonbsMDTsYgFsPBmX6LTS2+D1yzDz1hhgDGzcAQjmQD/JDvhrIkA4GW2sr96lBii6v3RYRoOCyB9cbbTFCvrBwIc0ttU95uhdzMBTJHCACUOz6HqK+wbJiF9xAt333gXMEARIAIAiYoPdbt72GLpSSw39Sc3Q0rGALqxDAqXOfaY7XmgBkN89IA5BbpDprefAb7lml6/apAbuGoPvvb+9YDrO/w9oDuIClAqHeoXH0F1ga8Z/nBD/IV8NHtBYgfS/oIxs2H1X9SluQdV/1Wgb9PMCz59lXfh+wRAOIDp+8KujPOj+3LdxZq7YeVXW5s+G8jB4339N1ZppmeHK0C5fJiF1fNuuZ3/1VrwQgnwIQO5q/Ohrbi+2VKhowAQhzCQBmGCDhg4HnAw90jHiAFdm9ZUibNr0CeSLfBYvK1QAvXVzgIqsvb30HMIPACPh06DZOucHFIx+vaZpWC1guKjcdkpFj5kqLFpkh+jIByO2Fh9e8/X9ehnTKHKTW/ardfS4AkrNy8sNa0+zu3QyfvWTFxpD6t7uG+7z1O9aTf+uJAEQA4sOQGqAG0kgDJgBhYGp+sMaI1zfT0f7xu+VPAPLvYMJOD/BMKFxbH6QxRDq0nksACm5302KD/omob2PHL4wKflDXqHPdz2HNttY/fwfXP+sjPeqDAJRGAx926vTo1GxntrObBtwAhABE7bhpJ5pjcH0bPHS6rNt4UIVhJgCF15gGICxwjIAPrVpFFvHN2k56TlYi+rc1b/4O396so+TUEQGIAMS3QdQANUANUAPUQNw1ANdHu8E8LUDBA0BEzoMLnNu8Ke+D5gy17g8sQJGszeQ9/eCy8zrWh180QADin17c//T80hlYTj64qQFqgBpIvAYIQImvc+qcdZ7uGiAAEYAIQNQANUANUAPUADVADVAD1EDaaIAARLGnjdjT/W0H759v/KgBaoAaoAaoAWqAGmgnBCACEAGIGqAGqAFqgBqgBqgBaoAaSBsNEIAo9rQRO9948K0XNUANUAPUADVADVAD1AABiABEAKIGqAFqgBqgBqgBaoAaoAbSRgMEIIo9bcTONz5840MNUAPUADVADVAD1AA1QAAiABGAqAFqgBqgBqgBaoAaoAaogbTRAAGIYk8bsfOND9/4UAPUADVADVAD1AA1QA0QgAhABCBqgBqgBqgBaoAaoAaoAWogbTRAAKLY00bsqf7Gp11GP9lUc0J27bso23edkaKy3dK9xwi2D/soNUANUAPUADVADVADMdQAASiGlZnqA2yWL7VNviYAAYLwqdv7jMzKyZf77svgg499lRqgBqgBaoAaoAaogRhogAAUg0okWKQ2WPilfe6/v720bdtXunQdJjNm58n2XacVBG2rOy09eo7kA499lRqgBqgBaoAaoAaogRhogAAUg0qMZoCd0b6/rFizTco3HFCf/JI6afNIb8+i7tFrlCxatkFK1+1V15et3y9rinfKhMlLpGXLrp7TiabsvCYxwDdoyHTZseecgqCpM1awTZPUV6n3xOid9cx6pgaoAWqAGkiUBghASRhU9c+aKIVrdwfgBxDkFYCaNesgM7LXCIBHw5N1CxDK7DyEA+YktG0sO277DlmyufakAqDsuUVsT5+3Zyy1wbQ4SKAGqAFqgBqgBqLXAAEogYMqwMvkacsD8ALrTX5xXUQWoPGTFgWuBzSNGbdAOnYaKP2yJsq83LLAsdUFNfJwm14cNCewfWP9IOrTb5zU1J9RADRiVA7b0sdtGWttML3o//RYd6w7aoAaoAaoAQJQggZVDz7YRRYuqghYbQpK6qR7z5EyccoSzwDUpk0vySusVecvXVktrVp1DxkUA4i0dWjs+IUhx9np/dPpAT0IhFBTf1b69h/PtkxQX2Uf8U8fYVuxragBaoAaoAai0QABKEGDKszvgcUG7mq5SyoD8BIJAMHKs7bycfXJGjjZdkDcvHmmLF5epfLBHKHmzTvZnheNWHhNYh8ys+bkKwDasuMpyew8mO2YoL5KnSdW56xv1jc1QA1QA9RAojVAAErQoAoAlFe0QwUpgCucbuhIAGj02PkKbApKd0nbdn0Daei09HbarNX/tRJtElie9H5u/fWAWZG3VQFQ1ZajEQXIYDv7q53ZXmwvaoAaoAaoAWogsRogACUIgAAimV1CAxNEAkBez9XnLV1JAPLrA6VFi0wpLtujAAhb/PbrvbDciX2os75Z39QANUANUAPUgLsGCEAJAiAnIWpY8RIFzuu5+jwCkLv4ndokFfa3fKircnXEHKBVBdsJP0nup6mgCZbBv/2Zbce2owaoAWogtTRAAErywErDCgEotTpGsh9UzZp1lLyiWmUBKilvkBYtOhOCktxXk60J5s9nBDVADVAD1AA1EBsNEICSPKhqDABhLhHm+yDqG8JeY3FVdAydJi1AsekkyXrY9O0/QbbVnZa6vc8oGBo+IluwNlC7jH7q07ZtX7n//vYEoyT34WTpg/n6u3+z/dh+1AA1QA0kTwMEoCQPnjSsRGMBwjo/CKygF0IdOHgqASjJ7Rnrh1n7DgNkTdEOqdt7QVmD4BKnP5tqTigQinWeTC95D2TWPeueGqAGqAFqgBqIvwYIQEkeMDcGgNBBpkxfQQtQktswXg8quL0tX71ZWYA09JhbAlD8H5Dxalumy7ajBqgBaoAaoAaSpwECUJIHz40FILvOo9OkC1zyOpZdu0S6L3tukbL21O4+q9waGQnO3+0ZafvzfLY3NUANUAPUADUQHw0QgAhAnEOSZA3YPdwQNr103T4FQAUldYKgCHbncV98HoysV9YrNUANUAPUADXQdDVAAEry4Fdba6KZA+TUMXWatAD5t+OaYbBXF9bIffdlEICS3Fed+hv3+7efse3YdtQANUANpKcGCEBJHlRpWPECQKPHzlcBDwpKd0nbdn0dB8SIDIfACAQgf3dqrP+DOT9rKx8XABEf0v5uT7Yf248aoAaoAWqAGkgNDRCAfARA/bImqsEwBsRZAyfbDoibN8+UxcurFAAtXLxOECqbnS01Oluk7ZAzv0QBEIMd+LP9Im1vns92pgaoAWqAGqAGEqMBApCPAKgNwl4X1v7XulMtrVp1D4GbMeMWqKhwsACNHb8w5Dg7VmI6VizqGRY/WIBq6s9In37j2JZJ7quxaFOm4Z/+x7ZiW1ED1AA10HQ1QABK0KAKlhlYbYYMmxn0mZ9bpoCmuGyPjBozL+hYj16jQga94yctCgAO3OYAPB07DRRYh+bllgWOYWFUrBPEzuvfztu3/3ipqT+rwmBjEVS2pX/bkm3HtqMGqAFqgBqgBlJHAwSgBAFQm0d6C4BFL1rqZTsvd23IoBcubTOy1wRAxy4dWIkyOw8JuZYdL3U6npe2yOw8WLbseEpZgabOWMH2TFBf9dI2PMdffYntxfaiBqgBaoAaMDVAAErQoCpWAKQbD9ahRcs2SOm6vQqqQ/Nj4QAAIABJREFUytbvlzXFO2XC5CXSsiUnzOt68vO2/4CJgjWA4AY3a04+AShBfdXPmmHZ+QdPDVAD1AA1QA2E1wABiIMqDqxTRAP3399e2rbtK126DpNpM1cFrD+AIMAQH2jhH2isI9YRNUANUAPUADVADYTTAAEoRQa/4RqKx5t+Z26X0U8Q8Q0WH/2p2/uMZM8t5DpA7KcEYGqAGqAGqAFqgBqIkQYIQDGqSAJK0weUeLexCUC1u89JUdlu6Zc1gfDDPso/PGqAGqAGqAFqgBqIoQYIQDGszHgPkJk+IYsaoAaoAWqAGqAGqAFqgBponAYIQAQgvlGgBqgBaoAaoAaoAWqAGqAG0kYDBCCKPW3EzrcljXtbwvpj/VED1AA1QA1QA9RAU9AAAYgARACiBqgBaoAaoAaoAWqAGqAG0kYDBCCKPW3E3hTeWPAe+OaNGqAGqAFqgBqgBqiBxmmAAEQAIgBRA9QANUANUAPUADVADVADaaMBAhDFnjZi59uSxr0tYf2x/qgBaoAaoAaoAWqgKWiAAEQAIgBRA9QANUANUAPUADVADVADaaMBAhDFnjZibwpvLHgPfPNGDVAD1AA1QA1QA9RA4zRAACIAEYCoAWqAGqAGqAFqgBqgBqiBtNEAAYhiTxux821J496WsP5Yf9QANUANUAPUADXQFDRAACIAEYCoAWqAGqAGqAFqgBqgBqiBtNEAAYhiTxuxN4U3FrwHvnmjBqgBaoAaoAaoAWqgcRogABGACEDUADVADVAD1AA1QA1QA9RA2miAAJQksWe07y8r1myT8g0H1Ce/pE7aPNI7IuF17zlSCkrqAmksXblJHnywS0Rp8A1C494gsP5Yf9QANUANUAPUADVADfhLAwSgJABQ/6yJUrh2dwBcAEGRAND997eXkaPnSum6vUFpEID81fn4sGR7UQPUADVADVAD1AA1kHgNEIASCEDNmnWQydOWS9n6/QpcADD5xfcsOF4BqMWDnWXuwrWBNIrL90hhab1KjwCU+A7EhxbrnBqgBqgBaoAaoAaoAX9pgACUIACCa9rCRRUBiw1c1+DCNnHKErXPCwDBRW5F3tZAGnChgyvdvNy1BKAEtSMfcP56wLG92F7UADVADVAD1AA1YNUAAShBA2fACyAH7m65SyqlVavuaq5OJADUvccIKaloUNafmdn50rx5pkqDAMSObe3Y/E1NUAPUADVADVAD1AA1YK8BAlACASivaIdMmLxE4AqnBRkpAMFyNOzRWYHrkQ4ByF7cuo65Zf1QA9QANUANUAPUADVADWgNEIASBEBwgcvsMiQIXNAIkQAQrEjtMvqHpEEAYofWHZpbaoEaoAaoAWqAGqAGqAF3DRCAEgRATkKMBICc0iAAuYvcqd64n/VGDVAD1AA1QA1QA9RA+mmAAEQACrEo8UGQfg8CtjnbnBqgBqgBaoAaoAbSRQMEIAIQASjJGkiXhw3vk3+s1AA1QA1QA9QANZAKGiAAJXnwSxc4PghS4UHAMlCH1AA1QA1QA9QANZAuGiAAEYBoAUqyBtLlYcP75B8rNUANUAPUADVADaSCBghASR780gLEB0EqPAhYBuqQGqAGqAFqgBqgBtJFAwQgAhAtQEnWQLo8bHif/GOlBqgBaoAaoAaogVTQAAEoyYNfWoD4IEiFBwHLQB1SA9QANUANUAPUQLpogABEAKIFKMkaSJeHDe+Tf6zUADVADVAD1AA1kAoaIAAlefBLCxAfBKnwIGAZqENqgBqgBqgBaoAaSBcNEIAIQLQAJVkD6fKw4X3yj5UaoAaoAWqAGqAGUkEDBKAEDX6bN8+UrIGTZciwmUGf+bllUr7hgBSX7ZFRY+YFHevRa1QQnLRq1V0GDZkWdA7SW7Zqs0ojr7BWho/MDjqe2XlIUBqpIDqWgQ8/aoAaoAaoAWqAGqAGqIFkaYAAlCAAavNIb8kvqVOgAuDx8pmXuzYIXrr3GCElFQ2ertXpw8UuWeJivnywUQPUADVADVAD1AA1QA2kmgYIQAQgAlKCNJBqnZ/l4R8SNUANUAPUADVADaSjBghAHPwSgKgBaoAaoAaoAWqAGqAGqIG00QABiGJPG7Gn4xsO3jPf7FED1AA1QA1QA9QANRCsAQIQAYgARA1QA9QANUANUAPUADVADaSNBghAFHvaiJ1vP4LffrA+WB/UADVADVAD1AA1kI4aIAARgAhA1AA1QA1QA9QANUANUAPUQNpogABEsaeN2NPxDQfvmW/2qAFqgBqgBqgBaoAaCNYAAYgARACiBqgBaoAaoAaoAWqAGqAG0kYDBCCKPW3EzrcfwW8/WB+sD2qAGqAGqAFqgBpIRw0QgAhABCBqgBqgBqgBaoAaoAaoAWogbTRAAKLY00bs6fiGg/fMN3vUADVADVAD1AA1QA0Ea4AARAAiAFED1AA1QA1QA9QANUANUANpowECEMWeNmLn24/gtx+sD9YHNUANUAPUADVADaSjBghABCACEDVADVAD1AA1QA1QA9QANZA2GiAAUexpI/Z0fMPBe+abPWqAGqAGqAFqgBqgBoI1QAAiABGAqAFqgBqImQYebtNLBg2ZLi1aZMYsTf5xB/9xN8X6yOw8WPplTZQHHuhI3fB5RA1QA3HXAAGIIou7yJrinzXvqekPyNjGkbVx9x4jpLRir9TtfUbWVj4uLR/qymcL/188a2DEqBzZte+i1NSfldwlldKqVXfP17KvRtZXWV+sL2qgnRCA+AfFPxlqgBqgBqLWAN7Yz11QqsAHA1h8CEAcYEU6wNIApDW0decpGTx0etS6jDR/nk/NUgPppQECUJIGPhnt+8uKNdukfMMB9ckvqZM2j/T2/LDv0WuULFq2QUrX7VXXl63fL6sLamTMuAXSvDldT/z8IGuXOULGLdghEx6rl56D53nWRKzvedDEIlWGkdmb5MGHekZcjpate8vonK0qjayxeRFfr/NHPVg/qB/UU6zvOVx6v/lNe+k1dKEsWP+CrNn7gZSf+EaW77ipyof7DXd9UzsO+Fm+eouCHgxct+86LRMmLW4S7m8NB1+QOx/9Itfe+kZGjU1eP2xqmnG7nw4dB8iyVZsDMF27+5yMHjs/7fqVWx3xWHoN0tne8WtvAlASAKh/1kQpXLs7AD+AIK8A1KxZB5mRvUYAPBqerFuAUIeOA/mnkYS2jcXDaujUctl44V+y6dL/KYCIRZqRpvFAiy6St+dd2fzs/5PCA59Iq0f6Rayn7gPnyPrT36s0sovPRHQ98kO+yN/ug3SRfqT31ZjzO/aYIHkN76t2sStT+Ym/Se/hixJapsbcT5sOQxXErTv1neRufDWqcs/KyQ8MVksqGuThNpGDcmPuIZ7XEoDiN/AI1279B0wUWIAA1dvqTkvvPmOj0me4fHg8eW3MumfdJ1sDBKAEDpIBL5OnLQ/AC6w3+cV1EVmAxk9aFLh+TfFOgdsArEmYPPrY0vWBYyvytkqr1j34p5HA9o1VZx6fu0sN+qvO/ST9R69MShs+3G6gFB/6TJUDFo5o7m3g+ALZeP6XqEAuo8toKTr4qWBwbn4AhoCP0qNfSttOw6MqVzT30qHbOFl77C8BGKt46u/K8oO6wXcNRKVHvkiKZSqae2oMoCK/7j1GBgappev2SavWTWvOBgEouQO0flkTpKb+jIKg/OKdDI7gw/+yaJ5LvCa5/S6d6p8AlKCHyoMPdpGFiyoCVpuCkjrp3nOkTJyyxDMAZbTPkoLSXer8JSuqbScZT5i8REEQLETDHp2dsAFiOnWaeN/r3PKLakCNgXWH7uOT0oad+0yVyqe/U+WI1Hqj6yfWIGdahWCdgpVK5xXPLdzeFm95XdVF9cV/y9SVhwT7dJ7NH+wmy2puqOOw2o1dsCNwTJ+TitvGWhoXLVuvBqe1u8/KwMFTfHHPkbQDASjZA7EMWbCoPKAxWIUiaT+em+z2Y/7UYGprgACUIADC/B64ucFdzYxwEwkADRw8TcEN3rY6uQS0adNL8gprVT7zc8v4h5Gg9o3Vgw4D65W77qjBdLSuZ7EoS2OsNzr/WIMcrEJlT36t6mZh1csJ03Zm7ymy7tS39/Ld8GIQ/Oh7hevbhjM/qHNy1l5IWNl0/tFsJy/br8objaURz7OqLUfV4DSvqFaaNWt6oYsJQMkfvPToOVK5wMEVbsmKjb7oV9H0RV6TfK2xDdKvDQhACRogY8CQV7RDYKGBK5zubJEAkJdzsfYGrEMAraUrNwksTzovblO/g1tdz8xJ97Ay4DN5+QFp1TbLsV0xYEfQAFhgMG/Frt3NAAV281as1hvkN2HRblm6/XeqDI9Vvyp9Hl1sCwPIzw7kuvSbIdklZ9T1uI/ZRU9H5C5mQsaMvOO292V3r3ofLDWDJxULyq7rEsEMENTAtOjo8/V2xOyNsunif9S8LFhN9H5zCxe5x6pfU+ki8IN5zPod9YDy6zKgTlG3bm2KNMzgGGjjZg90kiFTSmXJ1qsqLaQzZn6N4D6teZrtrQNKaNDecO5Hmb76aEigCTf99O0/XoUrxsAUbrnW/Jx+a6i4+e73KojLnPnF8uwrv5db7/+oAg5cv/OtHD55Vfr0Gxc2TZzT8MQLcuXNr+X2hz+p62/c/V4uvfKRzH+sPOg561Qea/437v5DDp+4Iggyo8saLggC7v/E2ZuCsiNowu0Pf5art75RZfN6H7jna7f/rq5FGvjceu8HdS8oo1P5U2X/6UtvqzKjrsaOX6gC8rx89XPVLro+EB69c5ehEd0L/s+Ky/Yo0MaLv0j+z9p3yFIvDJEvQmtPmwl34oyI8k+V+mU5Uv+/m23kvzYiACUIgPDgzuwyJOTh6wVqdMdCGgApLDR4//2/uuDo49gSgPzXCc3269RzYsDakFN2QRZtumw76R7Rx7r2nxmiJ6SFwTXmpMAiYQc3OGfAuDVSdf5ndR4GzWYZ8B1WDKQBNzwM6DEPR89z0Vu4e+WsPW8LD63bDlBzeHAu5snMKnhK4D6mr9VbDL4HTSgMyd9aHvzWIAIYwXe7c5z2DZ++Lmiujs5fb/Ma3nOEMdQPzkN9od6c8gi3H4ADWNl06T8h9YD00V4Dx+c7po92QJ1jXhUi863efdc2nfzHfy8IcGCWB3PJYOnR9+tl62YZ0iGLMbAEDJl5uX3XUAEAwrUADj3gN7evXPtCxk7IdUx3zrwi+e2Nr2yvRToAot37n3OFoHXVhxRkmPnq789f/kSBEH67AZBbGvrahYvXOd7HpKnL5PWbf3W8D6QBOKysPuSYhlt9J+qYCUA791wIAK2uT709/8L7ar5qJOVauLhCAdCmmhPSLsN7MBZYjADo+rO59qR0yhyc0vUYSb3wXH//17P9kt9+BKAEAZCT2CMBIKc0zP2PtO0TCKyQs6CED/skt6/ZNl6+azDBQBcucBjs5+/7UL3hX7HzLVl/5p+BQeyq+rdt58HAPQwDXLc5ROEG9cgLaQC07gUh+FaBDKwWCE6gB/EbL/wigyeF6swEOZyP4AUIqoDrrYEDSo58ETJgt6srL2Bndx0sGTp4AupvXsUlZe2YmX9Cyp78a6A+ARR21hMNHmgTWN/s8gi3D0BiRrXD/CrUMeoDwRWQ9r36/ptg/pVdepiLhXNwDwX7P1ZbnQbKru8R5wA4zTSGz1ivwFoHlKh8+h9GG/4rKNCEPgftBcuWmY7+nj23SA0sMajEm3a9P9zWBCBYSV69/qVgYDsze41s2XFKWXP0YPn46eu2AIO1YQBIOA+gc+bSO1JYWq/SwOAbwIJjbuCAUN2wHKnz3vtBjp9+Q1nO5y4slccPv6zA7IXf/lEddwIguDJrgMN29/5nBdfDAo/0YMFB+gA1O5jDy6yzz91V5+A+Tl14S12LkNuoDwzcdfrX3/5WrbUUrn6TdVwDEMAW7fr8a58o6wtA1bwPWIMQ2jqScs6ak6/SQIj1Xr3HeL7WCkBbdjwlmZ0JQJHUPc9N/iCdbRC/NiAAJXmAHGsAGj4yW/3xYCHCrIGTPf9ZsJPFr5NFUrcaTDAgBnxYLTgYSOvobBhEWwfLXsNXawuPXRqm9QYANn/dcyFgMHFxg4IzDLYx18d6jxrk9IDdarEBaKzYeUsN6GHRwJwjaxrW3xrsMA8I84Gsx+1+w92s4uQ3Kp+VdbdD3MzMcjhZeLplZQcCQuAcuItZLSx2eZv7dH3DCgbXP7iv6eNwv4MlTUMQ5uboY+YW4Ij6BOgsr70Zci+wpMGihnPy930kLVv3sk0HaZqAGs2cJQ1Akb6V1wAEMICVBdErzXs04QYuYVOmrwg6jnM3bj2mXMUwmAY0mS7FOD5yzDy5/F/r0MtX/xSSB86B9QlleOuDn9RcJrMM+A6I0YBkB0AmvFy59TeZPG1ZSDkRuezN9/6p8tnZEDovDKCjYQ0ucNb7QDlWFWwPpIEyW8uZKr81AKFOAXJt2/UNKuv0Wavld3f+R9WFU5s43cuv1sYznlwjdToA84qqAwqeUHd0gUuN/zjdPtyyPZKtAQJQEwIghMPGPCPM/1met8U2SlyyBcf83R96eqAM8IDlwq6+tCXEbsCO0NAIEY1BMAbMdtdjn7bwAKYw78g8zxwcw3oDIDKP47sZkABpWY9rkEM5nAbY2qUN5+B8axrmbxPswg3uzetgCUH6gCDAkHlMf/dSDsxd0oCC9DSgAlyc0tXpI5If1gjCdWgTu+h1ZkhquMnpa/UWMIP7drsX8xyndtPpmYAaru71Nea2sQAEeCnfYA96Gk5gQVmVvz2kLk5duK0G0rACDRhkH31Op4E5QYi+aZYd33UaAKWhw0NdSQEjpy/eUfnYARAG5QAfDPgPHHstJH3kAUi68OL76hzMc7K6X8E68sY736njiNppLSN+t3yoqzw6MlstxNqztzfot0sn3vs0AOm5XXb5wSqG+gIITZ3hPbx/tABkVwbuc///Yf2wftJJAwSgJgJAzZtnyryFaxX8lFbsld59uXCcHzuyBhO3dW7cond5CV9thpPGRHhrAABzcOxkjQgHWhrk3BYsjSQMc7j87NratGTZQYW+Rgd8gGXFKcgB6ghWL9MFETCiYWhV/TuOViENWG5zl0zotCurCZx2x3EvJgCFg0QNqHYQrevFbdtYAHIbKAN6tPuYFQy6dR+hLEcYSJ999h1bqwnKDZc4WHfwwXfrvegB+4uvfypOYKGtVXYABKgCXKEc1jKaeek07EDLhKiT59709QsrXZ92daXrY9P2E6q+3Npen2tuCUAclJt64HfqIVYaIAA1AQDC20pECoLlB3/GiDQXK4EwncQ9bMKBiW4Lt/DSOnw1BuZOb/ZhkdCLd9qFk9ZzXtxc08KBlnbXsrMw6fvQ4OE22V6fa1pIvK5LZJYRVjOdlrnFHJeiJ/6oQKbs+FeOgRD0NXBdg1si6g0uiqZVCPN57OYQaYudW1AKM8Kd3f2Zx53uJRJI1IBq5wKp79VtG08AWrRsg2CQbAcXgBVAC45h0O1URrc0cI0esEcLQGb6W2qfUhYauLRZPwePX1ZltQMDPLcRPQ73AosYgiE8/cxtwTwmWPJh+YEFyOkeU2m/rk+7+9TlxH8T7pUAlLj/FF333LLOqYFQDRCAfA5AiAY3ccpSBT4AIICQnS85xR8q/lSrExNM7ObVoLywROjwxXbrBAWgwiVimRkRzM7Coyfbuw2ONWgBAABMZl3GAuTM9PDdLT/rufq3vkZbaty2mJsz/rFQS4FOy2nbb9TygHubU0AIWGyQt9vcpXDWsMBxlwh4gDMAHaxJdm6L5j1oS6MboJrnW78TgH6FNAzqw32cwADBEXRAB7s0EMjh/PPvqXlN1jZIpd8EoNT/f0klvbAs1EsqaIAA5HMAgrUHb9YAP4j6Ble4VBAWyxD5Ay4cmKBOzXWC7Obe6Df7WLgTA2G7dtAuWU4uX9p64+aG5wZaJsjZWZhQJhPkws1XwfmB/M79JKgnu/uy7tPXhAOf4kOfy9Apaz2lac0Dv4dNqxDAD/KxWm+8uqW5uTUiD33czYpkVza7fV4B1e5avY8AFBsAQn0iYAACJhx56qpy78McGb2ukYaiy2/8RVmEdP2n2pYAFPnzPtXakOVhG6abBghAPgagocNnCaK9AX4WL6/yjbtEunUyr/cbcD1zmYtizhWxCy6g3+y7QYV2ybKbn2MOjvP2vGs7YR/34wZaXkDOnJ9jB3LWOtNuf25g53SNWzhw6zXR/HZrE69uafr+nMoaTQQ8p3vxAqhO1+r9OjRxpKGF9ZwYNzco073MOr8mFV3grGXUddTY7ZBhMwUudHCPAwj5IQqck6ULdRGtC5yG7W07nxbMAWtsvfJ6DvSpAWoAGiAA+RSAhgybEYAfhGz1i684HzzODx4NJm5v+c0ABdY5PiZU2AU30HXv5pLlZbI90nEDLW1h8jrp3w7kdFmxjdRapK91K6M+x22bNWaVWqdn8ZYr0i1rtuPAy22ukXnM6T7N+7NzazQj4Nkdd7sHu2NeANXuOnPfrxPTo18IFaBjpqm/uwGQ34Ig6HuKdusV+KJNP1bXxdMCFO1CqLG6N6bj/J/FumHd+FkDBCAfAhDWzigu26MsP0tXVkurVt1tBxJ+FmY6ll2DiZuVw80VygQgJ6sK1q/BwqNw17JbSNWcbO80YDetGnYRyTTIuUUY8zKnRWvAy33pc82tBqBwEdHMa8zvXiOlTVqyVwVDsJsDZAKr3Xwr5AeLjA6TbVefptujW2hzs+xu3zWgOrlAul2rj2FBSixMiUUup84IXatHn2fdNtYChPR0CGsvYbARZhrhpq3l0GnYRWfDuZGEwcY9WdPXv7MGTFKBEWDNsc7NXLh4nVoz58S5m7Zl1OVAtDtYgLBuUqpaQOIFQHixBy8H6Kx03T558MEujnWt69zcakslrs+ZH7pgs3kuv3MwTw2klwYIQD4DoB49RwbgZ3VBjWDtH3Za/3dac64IBqbDZ6wPaVdzEdSC/R9Ly9a9g84xQcHJBW7y8gNqsI7gBRi4W7WjB8cApLyG922jmulFUGHhGTVnc0gaGuSQxtSVh0KOm4uPYuAPALCWw/xtupi5WbbMa/Bdz2VyWgPILIfdfCftkoj7wHpC1vTxu2v/mSoaHM6xq3Mzet2SrddCQo7D+qMXQbUDKORhWpGsc4zsyhRunwY7tyh/4dJo/XAPqaw+qAamJeUN0qJFZ9v6saYTCwAKtxDqpKnLVEQ1QINTlDe9TpDbQqg37v5DgYedW5e5ECqityFP672a5cB6QLjGPGfJio2BaHd7D74YAkg4d8KkxYEFWQFt5vVO37F4Kgb8dXufkRGjczxd45SW1/3xAiD8322ruwfa83PLIr6XFXlbA3UxfER2xNd7vX+e5///YLZh+rUhAShBAITgBFkDJwveBJofPNQxhwcWnVFj5gUd69FrVNADu+P/Z++7/6Qotrffv8Qriggiu+Scc1xyTkteYGF3WdjMJjaRFnYJS06SwSWKCooEEUUQTKioqFev15yver+/nPfzFPcMNT3dPT2zsxN6zw/9qZ7uqtOnTj1dU0+fqlNt+tKynCqVPzNvA3XpOlz9qeKP1fRo3tX0T1Ve9Oh70fWpZyXP/kJ5ez+nLv1ne9q/Y+9EWrblPeW5QcSykXPXe+7p7cnkAwRnXskL1LRFb5UP6az8U4SyGKxn7fjINFIYe2+QD1PxMODm0M5IQaDg2bGSoRM55EOo6P7jcjwD/7i2Q2nR2lc9JAwbjOr6m53r65Igc3r2UeoyYI4K8gByhAPRzxAFTS/PnhnoCtu16z7Jcx+blyJsNeyEY8oy3zDZsDki4aE8SClIENsTthiWWOEJJw57DZte7pHPeoCkgqxCBvJMTt/nsScIrd4mVmG09Wh2xmmP/JxAUp3YwTs2YHyeX1uayUffhYF2Vc0J081EzcqEggDBAw5vCAgOggUcP3Nb7fUzNXGZCiENwoJ7iKBmtdmqTiyQ78Dx64SpxLPm5dG2PecJ5AeBByDHjAChbknJxSof8iA/yqE8DthF1yN7uW+EQdTj/JXPPLqyDgilDfJUUXnQowOIWlG578cEo411j0k418zUBwFq1Kg1MYEBCQIZMtbX7je8RfAaoS3CaQs7neRe9P33Sps03DYRAhQmAgSCkpFbrcgLCI+TY3aSd2Sqvv0nOirHsnMLa6hTZ1k0GgsdnD71bEHFRc/AGwNn/cBgHfeZlBjrpnsk9HL6ef6BfynPhbEsfjOBQsjmRWuveT1bl1F05AfCGhmjDJ3IpVXf9Ey308vyefqmO5abhxrlsueKyxpTMw8OPGIgesa8+m9/9gRhqTjzt60MkKMJqTs9JM+oO4gRE0/92fp5xrYPLG3B0ezsphQan2n3G2QRGNCfr5/bhevW5bZq3YfK1+xXA0x4ZVq36eeDBz0/zkNBgCAHBIEJCgiI8QAx2rT9OdsPQCAUvOGqsfy5l+/RrgOv2BIg6GEnAzJBrqpqTlrqAdLFniajDvwbQRCwUSqixRntafwdF99TEScM+uGhg6fOmKc+ftcHARo+ao4i16gLiBAIUSC667YAEX7yyY4BlQ/kWZK34Q6ipe1jt+2FAAkBkj+FMGHArqM0ronBV/qS2l+9Bqkrjv9M4xZt9fF0GOV2HTiPcvd8pjwb+sAWU55mF57xeDGM5fTF9vAMYGrako23veSADIC46N4UXY4+5QveJJAk3nSVdYEeM/Jqfabw6XKM55gqhn16jJuPskyrdT7w2CxcdcmHgID4wMs2aHKhJXGBDnjukKklnjU6/DykIDWIlNd1YJLfd2jw5CJTGWjTaVmHbW3BEeLs1oYZ7eXvN4I6wCtmRsysbGkmUx+klqzaS+3aD7S1RagIEHTBszDN6/IbX3vCRl+/8xPVPve22g/NTF/jNeybdvbCB4qogHCAjOw5eJngfWddrTxALGv0uAVqQ9Nrt773EDGKDkCnAAAgAElEQVScg7RMm5lpaw/IgMdn35FXSS+vyNM7v9ALlz6l5cVbHQe56d5zFFVuPK5IaXpWJT3ySLzf53M96pKGlgDF09jxybRuU21A5Nqov24LECjjffkduwNXaTtpu1BgQAhQFAx+Q9GQIsN9HQK8PCAhVlO8/LU5PCA8RSy+fYLtQN9O1tOtBnrkQKZdXrN7+gadqI+V98qsbKiu6baETTBVL1DZuh2CrYcuoy5tEqju9Zc/nhJnZSkigi/1GLQiilubtvAGhWfwXX91i70+ZfjIOYo0oC0QACCWbPPYY62pT7/xlFe4xYOn1VVHqEdP+zWCVnXkSIWwRSCBOqzkyfXYex+kzaTN7DAgBEgIUEz9SdqBWe5JZycYiAQG4mnkmCSP5wEDTkTuktD84W8LRDqD/ddvrqU+/SbEVN+uExbUoahsF7XvOCjoOvD+QbFoC+nHwv/uiM0bns2FAAkBCvoPRjqMhtdhSJtLm1th4KnmXVVgAERYEwIUCZzEE6a9gTysXHeIWrZ6EADFqr2i7ToTIKwrGzF6Hj36aMs6/TdxNLyKtQcpvmVs2SLa2kb0icT7LM+sb9wJARICVKc/mfoGqMiXTlAwEFsYwFSmuLieAS9al3auWztjkT8W+4MABbNnTqTtj0BBTgI9ONFTtwUirDZu3Fb+52SsIxgQDHhhQAiQAMILEE7+XCRP3QYqYj+xn2BAMBBqDMDjA88PCBD2GAq1fJEnmBUMCAbchAEhQEKA5I9SMCAYEAwIBgQDggHBgGBAMNBgMCAESMDeYMDupi8XUhf5EicYEAwIBgQDggHBgGAgOAwIARICJARIMCAYEAwIBgQDggHBgGBAMNBgMCAESMDeYMAuX0mC+0oidhO7CQYEA4IBwYBgQDDgJgwIARICJARIMCAYEAwIBgQDggHBgGBAMNBgMCAESMDeYMDupi8XUhf5EicYEAwIBgQDggHBgGAgOAwIARICJARIMCAYEAwIBgQDggHBgGBAMNBgMCAESMDeYMAuX0mC+0oidhO7CQYEA4IBwYBgQDDgJgwIARICJARIMCAYEAwIBgQDggHBgGBAMNBgMCAESMDeYMDupi8XUhf5EicYEAwIBmIVA/HUvuMg6tFztPz/yhgsIAwAMx07DaVHH20ZUDnpK3z7CiFA8vLJSyQYEAwIBgQDggHBQD1jAIPWEaPnUUXlQdqw9TQlzsoWm9ezzd028AdmgJ3VVUdo8vR0aty4nWAoSAwJAQrScG57qaQ+vl8HxCZiE8GAYCASGGjdeQwlr3mV8g98TZOW7KF//EO+9kaiHUL5zLi4npRXtFUNXjGAFQIkfUsw+GICxBgqXb1PeYSCkdXQywgBihABim/Zi1KXraGCkh3qyMitpuZPd7Nl8p06D6XcwhpPGS5rliIf8jd0gMdi/WdOHkcHa/LpyPZCOrgln+ZNn+jTjj269KJtazNVnrVFKT73w1XvFdkLlA57N+ZSwqDBEdMjXPWV57hr0NJvbDaNmb+RhiVW0BNPdokK/D7WuD0t2fgWrTz7f+oorf2Neg1PM9Utru1QGjV3vaoD6mE8UL9QYrZttwnqGXgmnq3LZlsadbD7PWJOJTVvNdBLji7TLeet2/SjstXPeMhPUdku6tp9RMxPY0oYOZuuvvkN3br7B9Xset717RgdeIxXY7us5RupesspjzdIplMG/t8kBCgCBKhX77GUtXyTF5ERAhQ4eKOjMwq93iATf39RS//95wl11O5e4fPHsnDWFPrh7iF1/5XatT73w2Wbt17arHT49r2DpkQtXHrIc5zjsEu34fTCpU/UoAUpfjdE+4FoLN38tiIZWTvuUdOne0aFHZq16EPZuz7xEKCCg/+mVp3M14oMn7maKs7815OXSROn80rPh7ROU5buV88qOf4LdRu8wCO7SbOulLH1rqUerI8xLTz8rWXd3ILJJk92oLzCLWqgigFr4qysmCc+3DZCgJz3u2yz0KXxNGL0XFq3qVZhC56glq16e97J0D0nknWs32cLAQojAWrUqBWNn5RC+Su2K/KTV7SFMnKqHXuAUL55867KUwRvkfHo0nU4ZeZtUPKWZq2jFnE95GUIY/uGqsM5d7DCQ35AgkAyjLLhefn146Mq3/7Ny33uG/PXx++hAwbRp2/sVjogxe/6eI7IDO2fgBCgB/Z8Kq4v5ez+VA3aU9a/HlXYBbEpOPiN0m/gBOv3e1L6Xio68oPXseL4zx5SNH7x9pDWK3n1FWUvTM2Lb/+QOMMblLn9Qy89oFfJs7+o/CBp0Muo65KNt6OGeNZXPzNxSpr6Us/k55FH4kPaJvWltxO5QoBC2zc7sbkxz8jR86iq5qQiQXMXFJCb8GWsa6h/CwEK0wD5iSfa07wFhR6vT2ZuNXXqMozGTkh2TIDsGr9p0060KK1cyYLsDh1lOpKdvaL5HntVfv/0mCIXX9zcS6OGDfP609y5Ppv++ryW/vj0OFUWp3rdC1fd5k2fSPD8WJG0UOsxd/NG2vjP96nyw5s0aM7CiNQ51HWKhDwhQA8GLe26T6Tioz+oAXpiznHX4Im9QmUn/0MDJ2JAFJpBmu7lgbcHv/3Jhl3h9YGdYW9/+d12/6nmXWlFxR41OMW0N/x2Ux2FAIXm3aoLJh57rDVl5FQpjK1cd4jatO3vKozVxTb+ygoBCtGfgz9Dw1uDaW5Yr5OUXEwgLCgTCgIEF3ty6gPyk5O/mTp38R4s+9NN7ke+E+M20L0qn9/cQ39+9qya6oYpb5wHKXuJfvrwMC2eM9Xrnp6vPs91LxT0qc9nQbYQoNDgVAjQAzv2HZ1JZSf+UN4SkIb6xm+45PM0tRXHfqJOfWeErF7w+MDzA0IDT5CT+sCzhvzwtMHj5qSMm/IMGDRVfZ2H92fU2CTX1V8IUGj65LpiftCQ6R4v0MQpkfkgWtc6RKK8EKAwEqCl2etpzPhkwlQ2buy6EqDGT7SjOUn5ilgJ+YmOzojbNphU96pcOLaafv7oiPLyrFvhvQiavUT/vLWXxo98OBXF+MzZU8bTiT0r6M7LNfT2K1vUcWZ/GeG6Ma/Z797d+9Cu9dlqGh7K47nwPrVv25U2r1qmCBrWK2Hdkll5XENekKVrZ6s8Otx4YQNVlS5R96zKGa9HggDpZOHYmbfUtFJMN7h681u1hubm+7/Rxde+pJKV+wgfIow667+79xxFNTufp8tvfE0oh4XD1+/8RGcu3KU58wu8+gW9nH4ejIwFi0vo9bd/Us/DM50cWNiMwY3+bLedj07aoAbnHGSgaYveNGbBJlq09lVaXHmd5pe/RN2HLLSMwIY1RIOnFKugAIMmFVKjx9qY2gtrZRAIACSrSTPfQDd83yxYgJ1cq/awmqZmlV+/jjogmAHqDhvAFtALeoNMgVSB0DjxmGFNFdZWIT/WWsFe+rPMzvWgDgi4AH0GTMhThIv1QeCEx5/o6FcW8vQfl+OpC8rPXfE8dR04z7JNjTohQIOOCcjAtENjAAhjOf49c06u+jK/av1hatvO+Zd59DV4T/EeYopTemYlnb9yX/UbN9//na7c+EZNq2vX3n8AiWkzM+nY6Vv02u0flEyUR/+159AV6j9wsl874hkgcHqfB13Slq1RfYTTIAgz5uRQ7XNvqz4PdeO+c9W6w+SkHiiPvhJ9pt6HXbv1vaoL+ka2ezSmOllE+xrteuPdX+nFy5+qttbHiE7qgg/spav2KaylLg3sY87goYkqpDaiymEdEYJzOHmmG/IIAQoTAcIUuLbtB/gAqy4ECC8JOgV4lRD1rU+/CT7y3QDShlSH3LQ5ivSAVBzdXkiY/oYpZnogBESAu/faTnX9/SvbTNscxAXBEeBB4mAKeorrh7baT48Bafnu/QdT3PSy0O3tizV0+pkyJRtT9VYVLDbVozAjib5+e7+pDpCJe1kps0zLGts90gTo+JnbtOOZlwkDCP0P+MGf+e+K3Fj9cc2YnU2vXP/KpxzLwWBg0/bnbElQsDKEAJl/GJm5/KQanGMhPsgJ1qdgsK4fWLsyc/kJ0wGzU49IatWbSiYCGyDAgRHXfF9/Lp879bSwzGCmqXFZhN5mwsLP5zRj2wc0YvZawrQ62MSJxwyBG2BbyHAajAFyIR+eOUTmS990x6s9dH3soscNnlzkeTaX0dOlNe/YkhiQpxl5taq+ejk+Lz/9F03PPmpJetmmSzLXqkFpQcl2evJJ/6SNy+kEqGrzScLgmPsKPT3x/LvUs/dYH0xBDvoikIsb7/xiWhZyrr31PS1MKTUtDxmQffalD03LQ6cNW8/4jQIHPdC38UcfXX8+v3D1cxo5xtpDVly+29IGLOPS6/+icRPN/4fYrpFMdQL07HN36FDtG5Z2xUc2q/8Sszo0atSasPQBJGZ58Ta/H+NYhk6cOKz20ux1BHmcx82pEKAwESArEAVLgPByTJm+1BNQYfK09IA6WCt95Lr5YClcdmGvCq/teeeVLYo86IEQEieO9ZCKyycrfToqkB94a5i0/PbJMfrw2g51DR4jjjCH62sKzUNoZy6eRd//L8oc8n/z7gGP9wbrfqAfB0BANDrjFD3Yq3JFqidQA/LfPL9JhcyGB0rXAyRI90j1HDeNyt68TLkvnqbhKenUuOkDz8r0Vauo+rN3vNYANW/bk6aUllHRlRfV0bKL70eGurSd7gG6eP0r9eV1/7HX1JTTWfPyaNue83T9zo/qj+yNd36mlPRVPu2Br6z4g8cfNQYBIFJZeRtpauIywuCGv6BiQIE/ejN96yKjb/+J6iMJ1iLgwCaMGCxAH6T4zfc4RYAWJ19lzXS1u4Z2wjoup8ey2iOm9rB7htN7TDwQbODB4vzvCVO28JUfZKXizN9q8F128g/qP87Xw+nEI6JHdMPzjLrBS4JAAHpwAD2IgRNPiy7TKSnTy+AcZEInPyAubAtMX4MtoCcIAHvMjDKMv+HZQrQ4lHEajIHXDMEGCKqAFHZDm4AMgYAxCZmWedjHntABnj3Oh/KzC88oL9bUjIOUf+BfnvKQZ+ZJwrVFa68pIgYylrf3c+X1gScsqewlKqn9VcnAvfEpO0x1gB7wCGMwioFlehb6aefBD5gAwXMLb8+5l++p/3p8BIE87nPwMQZRwIy2x2+QL/RJeM+RH30V+ixMl0cfxsTIjjggtDUTjJeufaH6iklTlyhdoNPlG//29F9WYbBB/pjAwfu9puqo6vvQB6IvZGIEeehvjXWZMDnV431CPVB/9J0gFKjLkZNvemScPn+3Xvoto07B/NYJEPr8V299p9oBdTDWA8R01tw8H1vYPReeH9imfM1+xwGwzAgQiJQQoBilRnYAicZ7wRIgeJQWpVWogQ3vA4TocilLV1HbdqEdBEaj3dyqEzw9IC6Y+rZkfqJnrY8eCIG9RMhn5sXBNQRIAHF588WNPvvzHN5WQH9+/sAzdP25ap9OtlnTdoqsQP5/7h9XexLhGtvcSLB03TgPpuWB5EDGl2/to0WGdUqQd+lEpboPPQ/UPIx0xUSHB8lr775JC3Zuo6nl5VT16du05r03FDFacvQArbv3lmcwXfnRLXWddQhFqhMgDBiKTAiKPtDAwML4XOz/gYEKjlXrj/h82Rs2YjaBXGGgcf7KZ6ZfdEMhg/XS6xTuMNjRQoB0YlJx+m+aU/Scz2B47MIawj0MuGcVnPZpVwQY8OcRadNlLBUd+d5SBreJntZlbZJOyrAWSJdrdz5l2f4HA/7Tf6vpbfp0PmzCCi8YBvywhdPQ1UOnlyn7wUZOgzHwmiGUSVn3OmFaoq53vzFZHgJiFoihfc8pVHjoG6VnWvVNn/IgN6lVN9T90hO/U59Ry7zk41kgUGh3eHkmpu328f517D3d412y8upBjk6A0Efo9fB3zgQIfQIG+MaIrvjgiQG0VZ+BgS28DLiPfNg80/jM3MItHmICz7bx/sDBUz390guXPvXpl6DTwWdf9xApMwIEDxL6NOhhJkN5qdYfUX3jm+/9RrkFNT56YFyD8uh/l+VU+dyHjF37L6o8mOYHkmisSzT81gmQ1ccufIziGQZmbWJXD94gFTLi4p2H9McUuLUbjinyJFPgYpT4sNp2AInGe8ESoMaN29LcBYXK7Yk9hTi0NsiQrAWKrBenLjgDIVGk4fY+mjh6pGedje5lwXogeFRwGNcGYTPS+zcehKa2Wh+ke5DMwldnp8xWBAx6vPZcFenkh+vGOiAPvFR8ndM91Tl+o9TpQRT0vYxGLFlGhZdfVN4eJkFI1398mzZ8/q4iQdX33/EQH9wDEcp+7gT1mz7XRxfWKZjUmyx8St26j/SRr+c5e+EDnyg8R07eVH/O8AJZTVOt3PisyoP57YgWadQ1FDJYpq5vuAlQrwnTVQQ/RPFzcnQbWT+Rw3RiYjWI1b0pZt4beDVACOw8IhhgY6CNfBhYcxvYpca1SXZ5jfc8pOz03wQCYrxv9hven9y9nysdrbwiesQ8p3smcTAG455BZjrgmj59DyQGZMaYV89j1m7wCimSZlEe8piYIR/WE+nPwFoneJ5wD2TMat0Sr7MCuQWWdBl8HgoCBA8QprCyTD3FxxYmOAi1rd8bmjBTeWdwf/fBS173OB+ihaG/Qp5zF+9Rx07eG9uiH+L1NuifuJye6tNrzQgQy8CgHh9x9LJ8jj6RPeRmH5C4b4TXBCSCy+kp6oJ7qLeRLOr5InmuEyCrflcnnSdfeFdtdeJU52AJkFP5bszHvME1aaw1UrAEyFhPfAUZNmIWYeoKSBDcoU2bdTbtLIxl5Xd0ECYQjQ+ublcECGt8sNYHXiBjIAR4eEA82Eukt59OKqwis+neGTMCxBuxYp0QpuTp8vlc90Lp5AX3UY/3Lm9VOprJZxk6idLXOPH9Vt0Hq8hvmA4H4qOTIZxjOlzxqxdoWkUFYSoclwtlqpMFfJW1ks1fbI1/bBhUYHCBQcazZ2/7eH9YHqaD4AsoDpzzdaShkKHL0+tk1FfP5+ZznZhYTc9q0WYw5e37wjMYNtoDXiE12LbZzFNf0wLPjlGG2W+Waze4NiuHa05ImbFsr+FpisShLk5sYUYGjTLxm0mCcc8gs7y4phNOq7VPOgEyeoB0r55VeTyHCaaZZ4pxAQ+QFYGERyxtwy3V9sAHcGJWp1AQILtBf8Xag6pfMSNJTDzQ75h5rVlfJlHwQGPwzdeR6uQGH1j1e3yuD+rNCBDGIyA/ZjqyDKTcf5p9QGIZ6BsxpVAvF0vnuq2s/kvguQPxQbsF2jcLAQp8HOca4sMViaUXArqGigBxvQcPS1TeIHRYfftPitnOguvTkFJ4fL68vU8RB56appMVJglY9wMChLUz8OboNuL9gTAFDuf6PT6fp+3fY+a9efn4Gg/BAtHhcnqqkxfjRqx6PfS1S3r5scMT6N1LD0jSL/eOUlGG9QJYlOs9MZFW3rnmIUEFrzxPIEi6zPo418mC1Z8Wnst/4MY/Lafl7QYboZCh20aXZ9RXz+fmcyfERPd6GNfi6INgM08E286zpsVhSGqnclm+MUWwAX+kzFjGYwubqWq6LRA8wijD+BueE0R+gy5GomLMy7/1NUNW0/fsSKmuo1X5Vh1HUfbOj5Ve+fu/8gmEwOTIymuF9oGXjdcBLah4xdIW9U2AeGqYGbmw60/Y3khBWjDYNiNaTmTog3ozAqTrmFOwWXlpUMZ4IJiD1aAfXh0OIIOpY/igBOIGAog1Tb37jLNsA72ukT7XbRXMf4k//YUACQH6f/5AEm33Q02A4P7NzNugvEDRHBEl2tohGvRhbw/IDZMd6KUHQjDzEum68/5Av358VIWe1u/xue69Adnh65zy88wIFucB6YGemIZn3IhVrwfy2B1Y/wMPktk0O34WiA4ID7w+FW+9Smvv3qANX7xHy2oPewIkcN5QpzpZsPvTsnqu0/J2g41QyND10+U1VALExMRug067tTjY0wbBATDAt/OI8JoWO0+B3ja6F8NOrl6Gz3Xy5HSaGsqyLez2DWLPCOprnDbGz9dTnajYeWP0Mk6m72FtEkgMpp3BVnp5bi/o6O/A+p7R8709rZDF3jd/5XEfwTM69PL2muj6CAGKUx9jQWycHlb90fLirbah/BEcAZHmonX6G3AhBChwgqK/T/Vxzo4T16T1YaT6lBlqAvREk/a0eMlKRYBmJz1cWF6fdRDZoXmx2atinHrGpAbBBhBMgIMLsJdItz/vD4RIbfD06Pf4nCPNgXwY9+/RN2LlaXhcTk9BWkBszDZi5Xr4Iz7QEQEZ7MgPIsCB6IDwYN0PAiSkHnpG/ca0uHk1m0zrqOtal3OdLAgBqjvOo2UNkBNiwt4As8Xy+hoiK4+IPl3L6T44TuRa4VknZaifVT7jdZ6qZkfSQHow6DezhVEefuvBGIzeM7P8uMbT96y8L1bl+Dq3lx15AfHJ2X2fBk7w/W/UCaSdDNgAARoQNpyfbZYKAQodAYJ9EQkTC/wPn7hBL1/7p2dfI51c7T92zXKasVkbhfOaEKC6/3+Eur1cQ3y4IqE2UH3LCzkB0qLDCQGKvhfODk/sVTF6b5iwIBACwlaDdIBc6F4iyNX3BzKLzMbP5jVEZvv36NPjrKavQQ72H4IOZoEW7OSzDk7TySWltP6TO8r7k3/xHCHMNcJkwxMEjxC8QQmLl9gORJw+yyyfEKDQvkPREAXO6QadvE+Q2VocJx4RfU2L031wdLkY0Jth0uqaPgXMipQZy+okzW6qmp0tjDLx2+PNcbhnEMrw9D2na4aMz2XvjdModcbywRJIoxz+jUiteUVbVXStQEML85Ras6lpLF+fXgYPMl9HaudR1vOFcwqcUUddj2DPQTKnzchQEeZAhGIlCpzdxzRueytvmJWteM8pbIiKtURW+eT6w/805g2uSWOtcQMhQCA0CHCA8NfoXM3q2uypLpSetU7lmznXd+8KszJy7eELEUlbsFfF6L3hKWWYbvbsrmIV/MBsjY++9sZqg1TUj9cQ6ZHluN769Dh4nvi6no4aNsyzQSuCNhg9OFwPM++QLsffuR3R0YlRfa4HqisBCkUAg1DI0G2t1ynQP1ldTjDn0UCAdGJiNz0LU9DgCTBb48MeEWzYaRXcwMmaFqMNncg1luHf+hQwJ9PUUM7pVDX2mGHaH4gCP9MqZW+MXYQ8vay+ZiiQ6Xu6DLv20vNZndfF+2YlkwelddkIFZ4DM/l2BCjWgiCY1S+Qa04JXyAyQ523Pj1AwW6EGuo6xpo81xAfrkisNUAgBGjStHRFbBAlqmUr7/0RuN7YvBBhsEGURo9bYNpxcl5Jo4P4cDuwV8UYOU0nNrdf2qzW3Ri9RJCxeM5Uj3fIbHoc8uhhso3PwX2s5wHRgnfHGNyA9dRJktlGrEyAjESOyztNZ6xdq7w/mOqWtM17fwh9ahy8QGOzA9s0zqkOOlmw+2pnJy+QENZWXzBDIYN11OsUbgLEOkQy1YmJlafEHzFgomI3JWxc8ha1d47VRqpmNmBPi93aJLNyuOZEJ2NZJ4N+3RaIfoapYkY5xt+BemNC4X1hAmTnyTLqqf/WbWEVREHP7+Qc3glsTonNP/Ehw0kZ5GEvQLAeoEDDYJtFX9NJVCjCYIMEmtUfEWwHDJqq1siYBTRYU31M7YWEfXHQd5nJGDkmybNZ6qbtZ03zmJUL57X6JEDxLXuroBDAGiIAB1Iv3VOJdu7Ra3RA5QN5VrTlZd7gmjTaDOxPn0AIUO++41UYSJCbGXNyfOa6oiPBddzPK9xCXbqadxb+dJL74SdGerQ3s6lnHJgAoa/h/TEjF/r+PtgLCGTH2Ja8CSrW/xzfVexzXydAIDLG8vD23Dy/SREkkCRMdzPm4ShyZgESkBcyeBNU1Mcq0hzyDl2QQin796ipb8bnwEO05MgB6jHWeiGysUygv3WyECwB8reJKYKVYDd2TOGwIiShkMF1Rz+BkNx4nt3eRJzfbam+D8zSmnd9NkBFfXkTVIRDTpix0gfjTDawOejIuet97se1HUp5/9tbB3vsYK8dJ3bkQbxTT4suk8mTnVdKz49zfdCPDULNyA1vkgpvGIiNUYbxt76Wxqk3R5++53TNkPG57KWy2kNI3wTVbL1Tq06jPRucQpbZHkD6JqhOpjVij5v1m2sVCcLmpUadrX7XlQA52Qi1uHy3ZyNUswhu+p40ZpuYIuAANmnlNThmMvSNUBG9Db+NdU5OLScEMYAcsz2Ltu05r+4h2t2itHKf8pCHUN8Ik42Q2wibbXyG8be+Pqty43Hq3nOU3zJGGYH+rk8CNGjIdKqqOUnVW07RqLH2EVWNeqMdy9fsVxhFGs2BJIy61/W3a4gPV6SuBqmv8o8/3pZAYPClQz/mJOUrwgKvTcKI2V73OndN8HopIWP+ohUqP9zfyall1Lf/RGrVug8h/HVaxhp1z4og1VfdRG7dCZPuvTGLzIbpaCAcfJh5b0As4CFCHhAcbGKKcNNoHwQ3OLm3xOPdwRqhqeN8v/Toa4B+++QY7a7K8Uxxmz1lPN15uYbgfYJ8EBwEPDC2/4bydPrP/QdepG/ePUAl2Q89kZBx7cx6+vPzZ5WeIFPGKXRGeZH8HQoChD993gvo5vu/0fEzt9VeP1MTl1HV5pMqBC3+/BHi1eoraShk6HbEnyWeiQHD0VM3aUXFHq8Dgwh4k/UybjnnDTqxIB4L7jHgxuAY9UM6PmWHZ/PSrB0f+UQbQz7di4Q1J71HLFHkAYP/ngkptPyZL9X0OTzDjCBh7Q3Ih3506jvTE1kuY9sHaiNQ/X58+wRTgsLtwuGsQVTgBQHR08vj3Bg5TV8DBF0npe8lRFqDzKYtetOs/FPKRrgHuU7WJeneHBA61s8uDWb6nlEee9yg57It71G77g+3gcCmqosrryuPHEgrSJ2xPAjPko1vedptZv5JwsaoyAebDJiQ52lX4Kb7kGQfGUaZTZt1oiUChbQAACAASURBVMLSnWpwWbJqL7Vo0cNvGcioKwGCDJ1YgGCASCBsNK4jjPSNd35RfQBCTMODYtQdv3mNEPqKi699qYIQTJq6REV3O/fyPbpy4xtPdDYzAgQZ6NPQt0EGPFro89D3QQ/oxOTn2lvf06y5vp78lPRV9MY7P6vyr976zlMehAL12bHvJY8Ol9/4msaMW2haF71+cfE9VV3gMQnXmpn6IkA6mStdvS9gAtO12whau+GYwijGoY0bt/VrP92WsXzOvME1abQ2Br7IZORWewgKSIq/wyyIAdh56rKHRMdMxsKUUsJLEa22EL18CdOqgsWEoARmkdlgLw6EwATIbP8e5CvNWagICuczS+E9ylw8yxIfIGDQw6zs93cPeUiWlfcGwRjevlhjWl6X+dG1HaYkLJrwEQoChPrAy4MBBAYBZgeIEcK4wjtjVf9QyGDZQ4Yl0kvXvjDVhQcq+MPm/G5KOeoZFtsvWntNDXgxaDYeRUd+UMTGrO4gOjOXn1ADamM5/l1x5m9KzD1uSlo44hnndZL6iySne52s5JltdAqCxgTHWA773cwrefF/U/n+o4IbmNlDv6Z7c6ymGOr5ce5ZM3Tid0IgCON9J79B7kBYjXXQf4P8LKi46CG8Rrm9R6Z79vjRy+nnmPY4fJbv9gFGWfx7+Mg56us8BtsYzD/2WGu/9QsFAcLz4RlhomPW74B0YLzAuhpTfHg5+9KHpv0ESI3+AceKAKFPQ9+GPs5MB1yDdwehro3Px2+Ur9n5vPpYY1Ue11FPu01fddnw+MDzgzYJNECFLieQ8/ohQPGUOCtLeX5QF+wFFIhOyIvpkiiLY+achrVu3DXEhysSaOOHK3+oCBD0hSdoSMIMWpJZ6ZkShx2SU9JXElzujz7qf452uOotz/ElO2Y2QThqkA6zyGzIr6+7AYkw8xKx3MKMJPrqzjM+JAYemzee30CTx9q7+3t370NXTq3zeGnwPOgGmZDNobbt9gmCDOjI64l04oPgC0e3F1L7tl0D7qy5juFKQ0WAoC88KpiigK+UPBi4fucnqn3ubTV11UmdQiGDn4NBAMLGmg2Q7NYecPlYTPXF9vCSYNrTko23vYgMiEv6pjteHgSzusJbBIKDKWf6ABmD7Nw9n1Hf0RmW+OaIZ3o5f+d2ARtYP4RmRojmspP/8dIJsjGdD14hzsspyNyElB0+9Sg4+G8aPLmI2GNmt08Qy0IajDeH1wyZRdzTZfs7h9dq4apLPoQObYIpiYMmF5oSUl1u14HzVPuhjN4mIImYGqd7lvRyVucgPCA+GGDi/cf/dOPG7XzaQS8fKgIEmVgLjKlqWF8IogCvLzw3O5+56GjqF/c5V29++7/yv9H5K/cpbdkar71trAgQ1wvT89HXoc/T9dh14BUlh/OZpSBBmP525sJdn/4K9Tp2+hZNm5lpa1NdbiQG/aEmQMAVPGbAFLCFiIPwOOr1dHLOG6hCzuChiQGXd/KMaM3DvME1abQaWvRyRgTETqGzE9YVYWodjgUzJwdMODBtjstPm2C/54VVu4Hk4NksBzpZ5ZXroWt7sWVgtny61UDPdDHjNDF/ttQ358Q0M0wr81cmGu+D0IEQog7+pttFo/66Tnpdgm0T4ABlcWDzVZ4aqD/H6TkGphwSG4NV7GczdsKioAasTp8p+az7AHg6mJDG2qAfU9SGjZhFxRW7VR1QD0yvbN2mX1D9DkcqDDRQhxvw5RriwxVxQ6NIHaw7LrGN2EYwIBgQDAgGYg0DTZp0UFtY8Bd7DFyDmbIUa/WOPn3jKT2rUpGHVesPU9t2/YMiDpGqF3tsmMBl5m2guLieQdVBXz9UXL6Lmj3VOSg5kbJFXZ/LvME1aV0NIuXlj1UwIBgQDAgGBAOCgdBjIF5FZ80tqFFTl4QAhR9jTz7ZUQVmAIEIdH+m0OMh8PoDMyDRRWW7VBCsRx6JD5q06MEgEESrLrKiwTaB6uAa4sMVCdQAkj/wF1BsJjYTDAgGBAOCAcFA8BjA1/enW3QPevAqtg/O9thDceW6Q8oDFOieOdFgc+gfzFofM92x5w/2/gEZnDgltcFhkXmDa1KzRpZrwXUUYjexm2BAMCAYEAwIBgQDbsFAQx/0u6UdQ1EP1xAfrkgojCIypLMXDAgGBAOCAcGAYEAwIBgQDLgTA8wbXJMKUN0JVGlXaVfBgGBAMCAYEAwIBgQDgoFQYMA1xIcrEgqjiAx5uQQDggHBgGBAMCAYEAwIBgQD7sQA8wbXpAJUdwJV2lXaVTAgGBAMCAYEA4IBwYBgIBQYcA3x4YqEwigiQ14uwYBgQDAgGBAMCAYEA4IBwYA7McC8wTWpANWdQJV2lXYVDAgGBAOCAcGAYEAwIBgIBQZcQ3y4IqEwisiQl0swIBgQDAgGBAOCAcGAYEAw4E4MMG9wTSpAdSdQpV2lXQUDggHBgGBAMCAYEAwIBkKBAdcQH65IKIwiMuTlEgwIBgQDggHBgGBAMCAYEAy4EwPMG1yTClDdCVRpV2lXN2AgcVY2bdh62vTAPTfU0V8dmjzZgZYXbzO1QUXlQYqL79kg7ODPTnJf+jzBgGBAMFB/GHAN8eGKCFjqDyxi2/DbdsGkMrq8+wd6ff8ftKPoMjVv2k0Gh4+Evx1ChX0hQHEkBCh28Ruq90DkCAYEA4KBSGOAeYNr0kgbVJ4vL3WoMNAmvj+drr5Hbx78Sx2v7v2ZEkflCAFyAQGq3PgsDRoyTXk74PHAAWIQKuxEt5x4at68q1fd5y4oUB4h8QBJ/xnd2JX2kfYRDLgFA64hPlyRWGmY+Ja9KHXZGioo2aGOjNxqav508F/3J01douRgasmAQVMayEDK3R2RkQC9tu9Xmju+WNrWFQToOHXvOSqotuzcqjNdW7eE/nu6nP7vzIOjJnW6Y1kpY4fT7c0Z9HttiSoPOT8dK6ZX16XRpAH9/cpp9Gg8Fc0YRx/tzKE/T5YqGX+fLqPvDhfRudKFNKBTd78yjP00e8aEALm7TzO2u/yW9hYMCAYihQHmDa5JI2XIQJ7bq/dYylq+yUN+QILqQoA6dR5KuYU1St6secupUaNWAQ9AAtFf8oavw0pLXOeZArdrxVVq8VSPsLbt5rwXlfcJ5Gv+xLKwPtuNOOOBfuXG4AhQ4pBBdH9Prof4BEKAQFxOFM6nv06V+ZRnOb/VltC6hdYfUFo1b0+vVqZ5kS8uy+n3R4poyfgRAWGF7SIEKHx9ixvfL6mT4EcwIBhwigHXEB+uiNOKRyIfiMn4SSmUv2K7Iit5RVsoI6danQdLgB5/vC3NX7RCyQCpatt+QEADj0jYQZ4ZOx2UEKDQthUP9IMhQGvmT6Zfnl3h8drA48JkxokHaEvqdE9+EJ3zFYto2cSRVDhjHF1fv8TjzcEzlk4YadqPnC1Z6CE/Px4tptrCJFo0JkGRpjs1GQRPEIjQvw8W0Li+/UxlmL3/bBchQKHFm5mt5ZrYWDAgGBAMxBHzBtek0dqoTzzRnuYtKFREBR6fzNxq6tRlGI2dkFwnAjR4WKIiVCBVo8ctcDzgiFY7iV7R1TELAQpte/BAP1AC9GxBkoe8gPScKl6giMsfJx5MQfNHgDBt7uNdOYqcfHe4kBaOGubTV2xKmUb/+Z+8N6rTCR4j/X2c0K8ffXuoUMmAFyqhR2+v+8gPQsRT8+Bt0svbnbNdhACFFm92Npd7YmvBgGCgIWPANcSHKxKtjYn1PfDygPwkJRdT06ad1OCgLgSoRVwPWpq1TslMXbqamjbr7HjAEa12Er2iq0MWAhTa9uCBfqAE6M7mDEU84HUpSByr3vP86WPJKQHClLRf/+c9siImIDAgPvDgfHOokEb37uPVn2BqHMgXjupFU73u8XurE617O3OoU8sH/Rzft0rZLkKAQos3K3vLdbGzYEAw0NAxwLzBNWm0NigI0NLs9TRmfLLXGp26ECA98AHWFUVr3UUv5x3t0TV3PFHfOPobp7jnz5ZGwpI4KldFkkMYbci5uucn2r3iVereYbSPrC7tRtC5Tfctn896GNPl83f4yPKnp9P7mDa6KK2czly4S9fv/ES37v6hjtdu/0DHTt+iaTMzbZ9ds+t5lf/qm99QwsjZlLZsDZ2/cp9uvv+bun7t1ve059AVy4AEXboNpxcufaLyHjvzFuGjQ1XNSbp681t1DXIuvvYllazc5yiKGw/0gyFAH+7Ipon9HwYpCIQAMXkBYWICZdYGz2TN9hAtY0CEY/nz1D0ETJg+eKCl3S+tSVX5PtubR306OAvswnYJnADF06SpaYSoetVbTilveMtW3p4ps3rKNed9kthKbCUYEAy4EQOuIT5ckWhtJEyBM1ufEywB6tw1QQIfxHA0MCuchpIArV12gq7t/cWU0Ly45Z80sr/3FKVoI0AgG/uOXKWb7/+uyAaTHz298c4vVFS+23IwrhOg0lX76PW3H5IoXc65i/eop8lHBJ0AHT9zm3Y887KpPtCxZufzXh83zNqYB/qBEqDl08YQAhDoMgMhQJgiB88OCBDK6XL0c84HT5ORAD1fmmxJjnQZnC8cBKhjp6G0puqo16aqc5LyLeun6ynnMqgTDAgGBAMNFwPMG1yTxhqYgyFAeuCDzLwN1Kp1X/nDdwkZ6tV5PA3rM8dzTBq2lF6o+UKRmEA9QJd2fkcXtn5F5WmHacrwTFq55Bi9suNbDyHaV/Y6NXr0YcRAbLKaPqOKipP3eY5ja99R+V9/5neCd0m/x+cj+iXVC/7Wbar1kI2Xrn1Bq9YfoamJy2jWvDzatP0sXb/z4wMvzlvf06y5eaY6MAGCxwiemnMv31NeAnhP4W2AXCZCIDfG/kMnQBevf0VXbnxD+4+9Rsmp5UqPbXvOe/R4452fKSV9lY8MXWawBEiXwedCgOLIjADNW1ho2wZsP0kb7sBH2l7aXjAgGHAN8eGKxBqogyFAEvig4by4ulcmEAKEaWrPbfyUenby/trfr9sUgvcH9y/v/oEmDEmzHSwap9SF6/3CwBZeGZCTsy99SO3a+065wtQ49uiA6JjpxgQIHppDtW+oKWx6vv4DJ9OFq5+r54DgDBzsvbZFJ0BW3qYlmWsJ5Ae6ghzp8o3nQoDM3122S3BT4JYQyLJMgTO3rRGD8lvsJBgQDAgGJAqc7WAlHAAJlADpgQ8WL1nps+4gUHnhqKM8I/jONlgCdOPAn5Q/f6cpvjE1DgQIXp206ZWmebjNIkWA+Pl2qU5OsD7HLC8TIBCl5FTzfYw4D7xEM2Zne8nRn/HCpU+pW3ff8NB6nrMXPqA2bR+u0zHqxAP9QKfAGeXgd109QFjTg41MEfa64H/T4gKZAhfXrB1hvQ9CXyPs9ZyEIcp24ZwCZ2YXuRZ8fyO2E9sJBgQDDQUD7DhxTRprDRcoYZk2I0NFfVtevI3MAh8EKi/W7NXQ9A2WANltXArSA/IDEuQvgIFbCBAHQTDDD0LIw3sDkrRgcYklAbIiWZCJe5CBgAkgRGbPwbVoIUDd2nShT3Y/3FAVpAX6BUKAsM8PQmrzBqgoCxlCgGQAZYV/uS7YEAwIBqIFA64hPlyRaDGsUz0CISx64AN8qUaELONzApFnLCu/o69jqg8CNH9iGYEgxQIBmjEnR0WAw/QzEAyrw4qcsHdHCJBvEIQD2bPr5AFC2OyXVi4WD5BL1h9K/x99/b+0ibSJYKD+MMC8wTVprIElEMIyc26u8v7YBT4IRF6s2aoh6tuQCRCiu/kjPkyI6kKA7HClT2+zeoZdeeO9aPEAGfXi34F4gLiMMRUPUP39YRttLb/F1oIBwYBgIDgMuIb4cEViDQiBEJbZScsVAVqUVkEIq21W10DkmZWXa8G9SPVlt4ZKgCZMTvXstQMStPOZiyoCHPby4WPytHS1pw9IkBU5ceIBsms7IUAP3wcmNmYhsnUbcr5whMHWnyvnD9tKbCG2EAwIBgQD9hhg3uCaNNYaPBDCwgSooGSHIkJ2aUZuNWHz1Vizh+jr/cI2VAKEjS1BbN587zfC/j1muHBCToQAPcATe3bctg+QGS7kmncfIvYQewgGBAOCAV8MuIb4cEVirZGFAPmCMtbasD71bagE6MjJm4oA2a3dEQI0Vm1siiAEHIDACovrFk6hv06VqfwFid6h0fUyz2TNttzsFFHj8KyfjhXT9MG+YclZDiLDIZ94gKRvY0xIKlgQDAgGog0DzBtck0abgf3pEwgBQhCEAYOm2h7YBR2eIfEAuaOzafAE6Oa3NHKM+UarQxNm0ivXv1JESabAPYjAZtXfLBk/gn59doUiJicK55t61BDU4I3qdJXnq/35NKx7L698TKJApKoXee+XxM/t3KozfbwrR8m4uy2LECqb79mlvDYq8H2A4tTeTuVr9tOGradp5bpD1LJVb0fPtNNH7rmj/5R2lHYUDAgGrDDgGuLDFbGqaLReD4QAOalDqOU5eabkqb8OJtIEqHDhHsd7BoUSBzwFDhuYYlBslN3kyQ60ZdcLhPuyBsi/B0gnJghdvXDUMB+bbkqZRv85UarIC4gQCJFu9wn9+tG3hx6Evb6/J5cSengTDeSvLUyi/54utyVaukw+rwsB6tptBK3dcEwRoLyirZbrI/lZktZffyW2FdsKBgQDsYIB5g2uSaPV8I8/3pZ69x3v471hj01O/mZKGDHb6z48PoHWRwhQ7HY+beL707A+c7yOScOW0gs1XygSUrvufa97yDug+1Rq9OjDcOhO9u0JJAz2zDH5dG3vL+r5F7Z+RWWph6g4eZ/XMaKfuYcmUOzq+b2CILz7Kx04fp2SU8tVIIRV64/Qhauf0/U7P3oCJbjdA1Q0YxztXDrD60CwAWxkiulmV9amet3buHgagfToNt2SOl1Ng0P+32pL6HzFIlo2cSQVzhhH19cv8cjCxqhLJ/hu+ApZZ0sWeggOgiGA8Cwak0DwDt2pyVAhsSEfG6NinyD9+XbndSFAg4cmUvWWU4oAWW12a/dsuRe7faa0nbSdYEAwECwGXEN8uCLBGqK+yyEgAaal2QUuMN5D0INA9RICFLudATYlxd48gRznNt0neIkYJ6EmQCBXe0tfoxsH/rTUy99mqqxboKldGOyb7/9G2/deUBuPNgQP0J3NGYrogFw4OcwitcFDg+lvmMJmJQPkZ838yR48GdusVfP29GplmocEmcmBlwhT7oxl7X7XhQBxWUyBGz5yTkDPtdNJ7sVuXyptJ20nGBAM+MMA8wbXpP4qHKn7QoDkZfSHvWgkQNC5SeMOVJpykC7v/sGUBNUXAcKzjRuh3nj3V3rx8qeUnllJ3XuOEgJkQYjMCBDjL2XscLq9OYN+ry1RRAhT1hDY4NV1aTRpQH+/BAJECh6pj3bmeLxGf58uo+8OF9G50oU0oFN3vzJYF06ZxASzBmhJ5lrl/cE0OEyHY5mSSp8rGBAMCAYEA1YYcA3x4YpYVVSuy0sgGBAMRBoDPNDHGqdBQ6ZRXHxPz4F1TZHWLzzPj6fmzbt66g0bzF1QoEhMoAQINltevE2VRbh0Cf0v73h4MCx2FjsLBmIdA8wbXJPGeoOI/tKpCAbciwEmQJiuZTxwryG0vU5ajDYIlACBPKEM5GTmVlOjRq0bhA0bAk6kju7tB6VtpW2jAQOuIT5ckWgwquggL7dgQDBghgEhQHEUSgKEaZCVG48rAtRQCKQZruSa9DeCAcGAYCAwDDBvcE0qAAgMAGIvsZdgQDAQqxhA0AN4f6pqTqoImrFaD9Fb3kHBgGBAMBBeDLiG+HBFBEDhBZDYW+wtGBAMCAYEA4IBwYBgQDAQSxhg3uCaNJaML7pKZyEYEAwIBgQDggHBgGBAMCAYCC8GXEN8uCICoPACSOwt9hYMCAYEA4IBwYBgQDAgGIglDDBvcE0aS8YXXaWzEAwIBgQDggHBgGBAMCAYEAyEFwOuIT5cEQFQeAEk9hZ7CwYEA4IBwYBgQDAgGBAMxBIGmDe4Jo0l44uu0lkIBgQDggHBgGBAMCAYEAwIBsKLAdcQH66IACi8ABJ7i70FA4IBwYBgQDAgGBAMCAZiCQPMG1yTxpLxRVfpLAQDggHBgGBAMCAYEAwIBgQD4cWAa4gPV0QAFF4Aib3F3oIBwYBgQDAgGBAMCAYEA7GEAeYNrkljyfiiq3QWggHBgGBAMCAYEAwIBgQDgoHwYsA1xIcrIgAKL4DE3mJvwYBgQDAgGBAMCAYEA4KBWMIA8wbXpLFkfNFVOgt/GFgwqYwu7/6BXt//B+0oukzNm3Yjf2XkvuBKMCAYEAwIBgQDggHBgDUGXEN8uCLS2NaNLbaJLdu0ie9Pp6vv0ZsH/1LHq3t/psRROUKAHomtdpT3TtpLMCAYEAwIBgQD0YUB5g2uSWMFYPEte1HqsjVUULJDHRm51dT8afuv+0880Z4WpVV4ynBZs9SJvFixVUPV00iAXtv3K80dXywESAhQRDHQ6NF4Kpoxjj7amUN/niyl/ztTTn+fLqPvDhfRudKFNKBT94jq11D7C6l3dA2upD2kPQQD0Y0B1xAfrkgsAK5X77GUtXyTF5FxQliEAEX3y1Qf2EtLXOeZArdrxVVq8VSPsA4uN+e9qLxPIF/zJ5aF9dlszy7dhtMLlz6hW3f/UCl+8z1Jw/tOtGrenl6tTKP/ni5XxAfkx3h8f6SIlowfIW0kRF0wIBgQDAgGohYDzBtck0bzgKhRo1Y0flIK5a/YrshPXtEWysipDsoDNGnqEuUxgtfI7HiqeVd69NGWUQu8aG4n0e3hoFoI0ENbCC7i6GzJQg/5+fFoMdUWJtGiMQm0buEUulOToTxBIET/PlhA4/r2k/5HBj+CAcGAYEAwEJUYcA3x4YpE6yAF3pt5Cwo9Xp/M3Grq1GUYjZ2QHBQBQrloravo5Z5BsxAg97RlXd/LCf360beHCpXH5/6eXEro0durD8LUOBAi9g6dKJzvdb+uz5fygkXBgGBAMCAYCBUGmDe4Jg2VYUItB14aTHPDep2k5GJq2rSTGhwIAZKXOdRYC6U8IUCCT8YTvDx/nSpTR/WiqabkpnOrzvTxrhxFku7tzKFOLR/0cyxDUsGTYEAwIBgQDEQDBlxDfLgi0WBUMx1AgJZmr6cx45MJU+E4jxAg6QgYC0iPrrnjifrG0d84xT09r9m5kbAkjspVkeQQRhtyru75iXaveJW6dxjtI6tLuxF0btN9y+ezHsZ0+fwdPrLMdHN6bcHiEnr97Z/Umh+s+3FyXH3zG0oYOdtUD7xvi9LK6cyFu3T9zgO5N9//jS6/8TVt2HqGOndNMC0HfWt2Pa+eD32g14w5OXT2wgd0491f1fXrd36kPYeuUPeeoyxlOK13tOc7lj9PEZufjhXT9MEDLet7aU2qyvfZ3jzq08E+sMvgoYm0uuoIbdh6mkpX76Ou3WXtULTjQPST/yzBgGDADRhg3uCaNFobBVPg2rYf4DNoEAIkHYmO2VASoLXLTtC1vb+YEpoXt/yTRvb3nqLkRgLUIq4HbdtznkB4rIjUxde+pHETF/u8m2gXnQBVbT5JIDxmcuxk6O0by+fPlyYrYoO1P5MG9De1F+rH+fwRIHwUKl21T5EfECAcS7PXUaNGrS1lx7L9RHfp6wUDggHBQPRgwDXEhysSa+AKlgCZBUEAyYq1+ou+3p1Br87jaVifOZ5j0rCl9ELNF4rEBOoBurTzO7qw9SsqTztMU4Zn0solx+iVHd96CNG+step0aMPvZHYZDV9RhUVJ+/zHMfWvqPyv/7M7wTvkn6Pz0f0Swop7vr2n6imiq6o2EM4KioP0qXX/6WIB1L85nucIqBIu/a+Xgnkvfn+76osvEQgMVMTl1FW3kY6fua2hxidu3iPevYe61MPJkA33vmFrt36nl669gWVrNxLeP+QXrj6uYcQHTl5028o+2Dw3m3kRCq/dZU2/vN9x8fczRt96hLMs/UyTGzqkwBhbaQQIO8+QW8DORfbCAYEA4KB0GCAeYNr0lgDRrAEyGzvH1xbmrWOevQaE/LBT6zZ1S366l6ZQAgQpqk9t/FT6tnJe1Dfr9sUgvcH9y/v/oEmDEmzxYpxSl0k7BpsGGwQmvNXPlMEBURl0JDpXnXF1LiqmpOKIIEkla1+xus+6soECF4fM5IED9Ox07fUM1699R1NnGJvz2Ds51YCBFtgCtzaDcdkCpxEifJ594J5V6RMaAaGYkexY0PAgGuID1ck1hot1AQIJGh58TYaMGiK/KG4YFARLAG6ceBPyp+/0xQDmBoHAgSvTtr0StM8/B7FMgFC1EVe81Ox9qBpPQcOnkoXr3+lCAw8OFxvTpkAvfneb5RbUONzH/ngTcJ9HDjnsqFKGzftQH2nzaZBcxY6PjoMGBlyPYweoLhm7QjrfbAJKsJez0kYop7J+fxNgQuVfUSODNYEA4IBwYBgIFAMMG9wTRqoASKdPxACZKfr44+3oSEJMyi3sEZNH8rM20CtWvcN+SDITge5F/oOKFgCZLdxKUgPyA9IkL8ABrFMgDAtDp4dBDBITjXfxLVN2/4qqAE8PAhugN86jpkAcRAE/R6f60EbsMcXX3dbysSGp8Bhn5/vDj8Ii429f2pSH3jYOJ8QoND3B27DlNRHMCIYEAxECgOuIT5ckUgZMtjnhooA8fMHDp6mPEDwBA0fOce1gzGur9vT+iBA8yeWEQiS2wkQyAiIjR15AX6OnXlL5Xvh0ieE6XY6poQAPfxzZmLDBAj7/ry0crF4gFzgadYxL+cPMS+2EFsIBtyLAeYNrkljDayhJkBPNu1IqcvWKC/Q7KTlXoO5WLON6BtHQoDiFCkBOQGZMSMpVjgRAhTaPy4jAbKyO+cTD1Bo7W9lb7kudhYMCAYEA4FjwDXEhysSayAINQFCJLhFaRWKAGFqDqbGxZpNRN+HL7IQICFA0boGyOo9FQL08P21spFcFxsJBgQDgoHIYoB5g2vSbQ8gqAAAIABJREFUWANUfRIgECEJjR3ZF6yueBQCJATIzVHg6vp+SPnY7t+k/aT9BAOCgUhhwDXEhysSKUMG+9xACJCTvLoHaN7CIkKo32B1k3KR75iEAAVPgNwSBCFaCNCx/HlqI9SfjhXT9MG+ey5xf4HIcAiKIFPgIt9/cJtIKm0hGBAMCAa8McC8wTVprDWwE1LDdUJQAwQ3yCvcQl26ei/W5jxPt+hOGTnVKt/0mZlCfmJ8gbIQoOAJUKBhsPcfe83nfeEgCJEMg83vdqTTdQun0F+nytRRvWiqj62gX+dWnenjXTmKAN3dlkUIlW2nNz7Y5BVtVfsAVW58lnr0Gm2b306W3PP+cxd7iD0EA4IBwYA1BlxDfLgisdbYgRAg7HSfk7/5QYCDecvp8cfbeg0WHn20JY2flKLuYwF43/6TvO7Hmm1E38gHQShcuMfxnkH11V7wYj579rYKgoANTfv0m+AI1042Qq3Z+bxnI9SCEt8Q1kyAEE77uZc/IsjU64mNUE+ce0fpVl8boerPi+T5hH796NtDD8Je39+TSwk9envZAlHhaguT6L+nyxUBOlE43+u+me6wX/ma/YoAIcVvs3xyzfpPXGwjthEMCAYEA4FjgHmDa9JoBQHISu++42nAoKlex5ykfEVYQGwSRsz2ute5a4LXYAADwRmzs1V+eILSMtbQ4GGJ1Kp1H+rbf6La6wTEB/ew74ms/wn8hYgkftrE96dhfeZ4HZOGLaUXar5QJKR23fte95B3QPep1OjRh9McnezbE0gY7Jlj8una3l/U8y9s/YrKUg9RcfI+r2NEvyQvnNaHDatqTiqSASJy9NRNWlGxx+vAdDd8IDA+u7h8N91491dV9uqb31DV5pM0NXGZ2rD0+JnbdPP939S9cy/f8wmBDVlMgEBuzl+5Ty9d+4JKVu6lSVOXqBSEDNHpcByqfYOaP93NRwejTrH8+2zJQg/BQThsEJ5FYxII3qE7NRkqJDamv2FjVOwT5K+uXbuNoLUbjikChD6wcWPvjzr+ysv92OrjpL2kvQQDgoFowYBriA9XJFoMa9QDA6OM3AdT00BQnBxmYaybPNmBsLbHrjzCYMuX1NjrZLApKfbmCeQ4t+m+CpXNeAs1AQK52lv6Gt048KelXv42U2Xd6pIOGZaoyAeTDWMKcpMwcrbPgBsfDTZtf85DdIzl8Pvia1/SuImLfcpCXyZAkF9YupOu3/nRQ3h0WXYy6lLvaCvbqnl7erUyzUOCQHaMB7xES8aPMLWnsT5DE2Yq8rNh62maOSfXURmjDPkde32dtJm0mWBAMBBpDDBvcE0aaYNaPT9UBAjyMdUN04BS0ld6Nj2F5yc9s5KGJMzwmRpnpZNcj64OKBoJEDDSpHEHKk05SJd3/2BKgsJBgKBH956jaP+xa3TjnV98SIgVAWKMz5iTQ2cu3KXrd35SZeH5AWmBR8jMc8TlmADx9LZpMzLo7IUPPF4lEKI9h64o3biM21NMdSuaMY4+2plDf54sVQTo79Nl9N3hIjpXupAGdOrumMgkzspWBKh6yykaPDTRcTm321jqF119s7SHtIdgwH0YcA3x4YoISN0HUmlTadNIYYAJ0Otv/0TYVytSerj1uUsy1yoCtKbqKHXsNFTsG+NBW9yKU6mX/AcJBtyHAeYNrkkFpO4DqbSptGmkMCAEqP6wh+m8y4u3KQJUXL6Lmj3VWQiQECDBgGBAMCAYCAsGXEN8uCKRGijJc+tvoCS2FdtGCgNCgOoPe3HxPami8qAiQAjo8sgj8WH504sUluS59Yclsa3YVjAgGAgUA8wbXJMGagDJLy+NYEAwYIUBIUD1hw3s+YO9fxAAYeKUVCE/8tVXMCAYEAwIBsKGAdcQH66I1UBGrtffQEZsK7Z1KwaEAAm23YptqZdgWzAgGGjIGGDe4Jq0ITem1F06M8GAYEAwIBgQDAgGBAOCAcGAPQZcQ3y4ItLg9g0u9hH7CAYEA4IBwYBgQDAgGBAMNGQMMG9wTdqQG1PqLp2ZYEAwIBgQDAgGBAOCAcGAYMAeA64hPlwRaXD7Bhf7iH0EA4IBwYBgQDAgGBAMCAYaMgaYN7gmbciNKXWXzkwwIBgQDAgGBAOCAcGAYEAwYI8B1xAfrog0uH2Di33EPoIBwYBgQDAgGBAMCAYEAw0ZA8wbXJM25MaUuktnJhgQDAgGBAOCAcGAYEAwIBiwx4BriA9XRBrcvsHFPmIfwYBgQDAgGBAMCAYEA4KBhowB5g2uSRtyY0rdpTMTDAgGBAOCAcGAYEAwIBgQDNhjwDXEhysiDW7f4GIfsY9gINQYiKf2HQdRj56jSWwbatuKvGjH1JRhs+ifZ+7Sf678mz6uvUPDeo+P2fegceO21G/AZGoR1yNm6xDteBH9pE+LFgwwb3BNGi2GFT3kJRcMuBsDjz7akkaMnkcVlQdpw9bTlDgrWwZNj7i7zeWdNm/fy9svKAL008tfUElyWcy+B02e7EDLi7dR9ZZTVFS2i/r2n0iPPBIfs/URvJrjVewidgEGXEN8uCICbAG2YKB+MPCPf7SkUfOqKHfv57S05l1q1x2Dg/p5VrTLjYvrSXlFWxXxAfkRAtQwcRDtOA2XfiA9ID/wAoEMheu5oX4OEyB+p0GE0jLWUJMmHWK2TqG2kciTvs4tGGDe4Jo0VhomvmUvSl22hgpKdqgjI7eamj/dLahOdtLUJUoGvlz16j02KBmxYjfRM3Kdb/9xuVR28g9aefb/1JGy/vWYx1rzVgNpWGIFjZm/0XOMmFNJuG6FtdZt+lHZ6mc85Adfirt2H0HwCFmVmVU8n565v4sOfrmX1l+p9OSzum4lR65HDv9ie2vbY9obpr+BAGE6HKbFRcpeeL/wnuF9w/vFelhd5/ucPvZYa0oYMZvK1+z3vOO5BTXUtFknjyzOK6k1JsQ2Yptox4BriA9XJNoNDv1AUrKWb/KQH5CgYAlQ2/YDPLJmzs2lRo1aSSfdQL0S9Y19EAMmP0inZR4OK9ZASpZteY+KjvxASWUv1enZzVv2p+TVV6jizN9edUK9io58T226mH9IwBfivMItamCEr8OJs7JsiQ+3iRXRsbrO5SSVQUSsYOD4qsOKAP1++V+0ffnWOr2fdamzFdGxum71rMaN21FK+ko1HQ4eocVLVlKjRq0jVi8rPeW69BGCgeAwwLzBNWk0AwHkZPykFMpfsV2Rn7yiLZSRU10nD9D0WVmqPAgVyFA01190C+4ljRa7gYCkVr1JhYe/paSyC9S0Re+w4q1T3xm04thPirAk5hwP+tmoR9aOex7iU3byP4pUgVjhWLLxNjV9uqep/IlT0tSAiMmP0/UBI+ZOoN0fbRcPkHycMMVVtLzjddEjc2YufX/+viJBN/ddpWYRmjZWfGJFnTxAug3gDcIUOBCgdZuepb79J7i2/fR6y3ls/1dL+zlrP9cQH65ItDb8E0+0p3kLCj1en8zcaurUZRiNnZAcNAHq1Hko5RbWqPKYBhetdRe9nL2MYid7Ow2cWEAgKxVn/kvDZ64OGu9Tlu1XMspP/0VjF9YQ1jY5sf1TzbvSioo9ajCEaW/47aQc8jghQOXnyh3Lc/pcyWePKbFP6OzTvf1geu/Im4oAffvip5QyZWlE8OyPAO25t4MmpE13rFu79gNp1brD6r1fmr1OvEDyEcMxdqR/CV3/Uh+2ZN7gmrQ+jBQKmVjfg2lumO6WlFxMTZs+mE8cLAGCN4kJ1bLs9YRF2aHQU2RE9wvbkNtn/OLtymtTWvsb9RqeFhTemzTrShlb7yo5Sze/TY81bu9YzoBBU6mq5qTyAI0am+S4HNrMigBhIIYBGdYsYODWkNtX6h77fc/Ogu2EKXB/XP6ajq48GBE8WxEgfGDAewZPLN5H53iLp0Vp5YoArak6Sh07DQ2gbOy3qXM7SV3FVrGFAdcQH65ItAIQBGhp9noaMz7Za51OsAQI64gQ9ADT6YaPmisdsku+Sj3+REcaOq1ULcjvPXKp8k50HTiP5q54nhZXXlfH+EXbqEkz+4AZ/cZmKxmDpxSrQX5c26E0PfuoR8bsorPUvucUS9xAPrwsenAAPh+dtIFadx5jWRbvILwqA8bnqfKDJhVSo8faqHU1ibnHPTpAH+hl9s6aPT9twy1FXEpqf6XJ6ft8dHOiF9b2YI0P1vrMKjht+mwzfXBt5pxcNQhatf4wtW3XP6CyVgRIvy4EKLb+PK1w0pCvL5iQQv9+/mPlBYI3CF4hJ/ZInpRG353/VJV759Drai+h56tPeabU/XbpX/T56fdpc/Ymv1PrrAgQXw+cAMWR/vFj8NBER3XieiP/6qojqu8oXb1PBUzhe5LKOy8YiBwGmDe4Jo1WMGEKnNkanWAIEGQtSqtQ3qTUpaupabPOAXXI0Woj0StOhZYuPvqDGqDPLjxDCyouqulaevABnOcf+Bd16DXVtN2xfoXXuIA0jJi9lkpP/K5k6nIwnQykwczufUYtMy2D8iXHf6FugxeYlmNZT8X1pZzdn6pnplXfpKkZB9X0Nf35Slbtr9RvTJaPLHh44Okx5rf77cQzpNfLqu5cB2O6JHOtGsQUlGynJ5/s6KOzMb/+Wyc6K06VeMrq14UARe6PUG8rOa9bO7y682VFZH586XMqWvAQ63Z21QkQiNOt/deUDESV0w8QoXPVp2xJEBMdeFZHLZjkedf4ejAECB888OEj0HD3+PBZumqfKsehtWUaXd3wZYcjuSe2DQQDriE+XJFAKh8NeYMhQIOHJSrPDzxAffs/7OCjoT6iQ906oL6jM6nsxINQ04h4VnH6b8rY+r7ymiAAwYrjP3tIAcJQm03hatVptApUALKQuf1DFTgge9cnHs8LyBMTiYKD/ybkN7bb0OllXoEBEBwAhAnlEATBrIwuA3sEMZGDDiBgWTs+oknpe2nm8hOKwLEO2FfIGHZ68JQVylPDgQmKj/7oidhmDFrAeUC4WnUc5VMXXS94tbCGCDaGrfV7duf6/iDpWQhjHdjmiFZEx+q6nS5yr27vmNivfu1XtayKfn3lS0VcQFac2FsnQPAE/XDhM3pz31WqXFqpjtsHXlPT6kCGQKxWLCy1lGtFdKyuO9GvRVwPT1hsfHR0UgZ5zAgQ1v9KNLn6xaDT9pF8DbsdmDe4Jo01QAdKgLDwOj2z0uP9SUpeoabCYW1RTkENzZq3nNq0DWx6TqzZzM36cqhpEJ/8/V/5eFpAFNizgqlcbbv5zmXXvSeFh74hkBndZphmh+l0ICB4jvG+npfPMaWNp6DBu2QVJY3z654WECbjM/RIbCA0CHDAZc1SferazOUnbfNyeaz3QTn9mFN8TtUb0eQwxVC/h3MQKEzXYxmc6gQIniC+7jQdMHEkbXunxmetjxCghv0H7BQ/sZRv3MBpdP/Uu4oAIcVvf/rrBAhenoNlz/iUOb76iIcE2W22mrUnx3StT10IUF3ef0yBW7vhmEyBc8k0dX9Ylvux06e7hvhwRWINfIESoJGj5ynywxuomqUIrz0kYYbPH0is2aYh6ovBPROThBkrTdtwytL9Kg+8KiAaRjuBbIDYQI4VWdDzgHQZZRh/61PanGyAykQOOljtF8RBDZDHnw46ofKXl3VnO0G+0wPkEnVlGZzWZQDEMiSNnT9Gaau6tRU8P/DWwBMEj5A/e+oEyIo0zR2bTF+fu6fkfnDsluP1Rf6e7eS+vP91w4MTG0sesXG4McC8wTVpuA1Y1+cFQoCaN+9KS7PWKQKE4Acz5uR4or89/ngb6j9wCsG9DlKE6XEIlFBX/aR8eDslTHPDYD1v3xfUoo35AmImDlZrXnjgb7dWhwmQUw+QPqXNilTpWGEiB08L9u/R7/E5kyQnHiDOa0X6WKaezis975j4MEGCl8ssLHY0DIDadu9FCbPGqwhW8ByZHf0njDC1Ndul18ihpuV0WZ0H2HuQ8Qw9v/EcOkJXfqYxbdG2Cw2bOc5WxuBpo+mJpm0tZYTCFqGQIfY07x+x9gdT1UCCsCbIiAHjb50AIQiC8T5+I6ACiA9kWpEks3KhuBYN738o6iEyzPEqdmmYdnEN8eGKxBqQAyFAWO/Dm6iOnbDI9E8C098y8zYoErQwpZQef9x6EBFrtnK7vs1a9CGs1cFg3GogDhsgehnyWK3FSV59Rd3PP/A1xbcfbooTfyTKaGt9bZITDwwTOSuPCuRjM1PUw44ksR5MqLCuCGSMr9ulT7ca6DXFDVMDeV3SgpWXvO7xVDiUMZMZDQOgWcXz6Zn7u9T0HoTzNTuw272Z/nyNpwGZleVraZvt92/BMzivWQodoSs/05iCMPGmsGblcW3LW5sI5MJYln+HwhahkCH2NB846XsCwWsD7w23nVnqhAChHMiRECBzm5vZVa6JrQQD1hhg3uCaNNYaOxACNHNuriI28ALBG2RV14lTUlW+nILN1KGjuRfBqqxct35Z6ts2GIT7C9Hsby0OgiJgfxsQC+x3g3UwZnqDbNmteTGWCcQDY4xCZ+ZRgXxMpYOedt4u1sMJoeK8Viki18ErhmeCAFrlM7suBOjheyEE6KEthAA9tIXxvcE+QNgPCPsCYX8g4339txAgazvqdpJzsZNgIHQYcA3x4YrEGjicEiA99PWcpHzbP5Nu3UdSXtFWRYL69nf2tTzW7OZGffXgBVYDdH0tDkiB0Q6YNgdCgUE+PEHG+8H+Zg8MCBqIk50cPQqd1V47OknytyGpntfOM2anE+7xtD8nU+6MsqKBABl1kt+h+yMUW4belilTltK3Lz7Y2+ftg6/bhq4WAhR6+wumxaaCAXsMMG9wTRprDR4MAZqdtNx2ANqp81DKLawRAhRjUWc8IZptoqLpXiKztThYb4MpZSBAWAsUqvchEA+MEyKHqXmYoueEqOmECut6gq0Tr41yMuXO+Ax8gMBHBezlIWFs7f9UjLaT3w3TXs2adKCb+66qKWvfn79PmTNzLd/daCdAcfE9qaLyoHr/k1O9o2oKvhsmvqXdY7/dXUN8uCKxBkqnBKhx47aUnFquSM2CxSWEoAdWde3dd7xnn6CeEgjB0k5W9ovUdV4TYxe8wF80NISThocDe92AUIWiLk7XJvGznBA5fTqaP6LmhFDxs+1SXhvlZMqdmZy6bIRqJk+uxf4fqLShfRtuX75VTYHDup3jqw5b9kfRToCC3QhV8GGPD7GP2CeSGGDe4Jo0ksYM5tlOCRBkT5+Z+WBtT/5matfefLG2yjcrS+VDMIT4lr0t/3SC0VfK1F+HxWti7KaZ+QteMDppg/KqWEWIC6b9dK+T1ZQ2Xa4TTwtPR3MShY7zBjN1jfXCWiisiYLHyW5tFOc3S6fNyFBfgNdUHaWOnawX6JuVlWv1996IbaPXtlOGzaJ/nrmrvEAf196hYb3Hm/4fRTsBGjp8JlVvOaUO7OsTCOZ073HlxmepRy/fjacDkSd5oxfv0jax1TauIT5ckVgDYCAEqEvX4ZRXuEWRG3iDsC7BWN8Bg6Z4NkZF0IRGjVr55DGWkd+Rf2n1AToG+oOnrPBpN30T1MztH1KTZt188viLEBdMW+teJxAsfzKceFqYJNl5u/g5HICh7MQfhGh0fD2QNJApd1Zy+/SbQOs31yoSNHlaelB6WMmW65F/B6UN6qcNsGkpPEA/vfwFlSSbTx+LbgIUT4vSytV7v3LdoYA3Gm8R14PK1+xX5ZHit2CtfrAmdhW7BoIB5g2uSQOpfDjzIhw1pqYNGDTV60BAA+zbk5O/mRJGzPa617lrgk9Hia/QvPlpRm41jRg1l1q36UuY6jY7Kd8TJntp9nqKb2m9F0c46y7P8t8p6QP0/P1fUd7ez6lL/9me9u/YO5GWbXlPeTDKT/9FI+eu99xj++oR4hBOG1PX+J6TFOXj2yf4hIeG1wlT6spP/Umj5lX53NcjzelEzs7Twnv02IXqZp15Sh17bwaMz/PSoVXHUdToMespoZATyJQ7fq4xbdqsExWW7lQDmZJVe6lFCxnIGG0kv/2/6w3NRiA9ID8gQSBDZvWPZgLUvecoqtx4XL33IEKPPBJvWgezeuFa124jaO2GY6o8/ucxnd0qr1yX90cwED4MuIb4cEWiFTzNn+5GICxMXpykZsEOQKSmJmZ4iI6ZHCzSlvDX4XuJQoE5fYA+p/icZ78aDPr1A0RkQcVFevyJjj5/ov4ixPnTU48gpz/T7tw4LU0nclZR6PRQ3Vk77hGivNnpBoKTf+BfXnbQdXJConganZMpd3a6DB85h6pqTqrBTEr6Knrssda2utvJknux9Y5KewXXXpj2hulvIECYDodpcUZbRisBwkcPDn4CEgQyZNTd3++hCTNVf4EAKjPnWAeC8CdH7geHP7Gb2M0KA8wbXJNaVTTS10NFgLge8A4hGEJOwYNob9ggNT2zkkaOnkeNn2gXcCfNciWNTGdhHKAPmVri2bOGB/srjv9M4xZttfR2YINQ3ujTLEKcv7bVI8jxM/2lxilsugyr4AY60cK6J3964X7H3tOVBwzeL6NOdp4mlh3IlDsuY5aC8ID4YDCDNQEp6SupcWN538xsJdci05dEo90RAAEE6LdXvqKNWRt93vloJEBxcT095AfveuKsrIC9P2iLxFnZnv4i0PVD0diWopO8127BgGuID1fELQ0j9WhYnYxZcANM64L3A0EIMDXNakNRwYp/rPC6JCfeIn/21L8KgwghPO7YCYsI1/2Vlfv+20ps5D4bIQQ2QmGDBCE0NkJkR2s7Y40OyA5PWwP5WbxkZdDeXo4eKcFT3IfraMWw6OUMa8wbXJNKwztreLFTdNmJ18QUHv6WsO+NtE/o2ieu7VC1pgqeoyUb3yJMwaurfZs06UCL0iqUFwgkCAe+9NZVrpQPXbuLLaPHliA82AwVBOjfz39MCyakROW7om94jHd63aZamj4zK2jyo8srLt9FzZ7qHJX1lnclet4VaYvwtYVriA9XRMATPvCIrUNj60DXxIjd7e2OQAzwmuFAwAQOf43pc8OmYxGzfXnn9+MJkRlzC2oUERICFCq7ihznGIwdW+0s2K72BPrj8td0dOXBEL6HobMBE5aqmhOUtmw1tWwVWCAZY7vpG6imZawJagqdUab8Dl17iy0bti2ZN7gmFUA3bEDHYvsHsyYmFusZLp15vY++VqjizN+UmHu83qYRYuD0dIvuUTmoC5fd5TnS98Y6Bho1ak3Y9DRUwU2w5w/2/oE3aeKUVOkfQvbxSd61WH/XokF/1xAfrkg0GFV0kM4pEAzowQsSc47Ln2Qd/yR5OiEIELw+8AD1G5tdb+QnkLaWvNI3CAYEA4IBwYBgIPIYYN7gmlRAFXlQSRtIGwgGBAOCAcGAYEAwIBgQDEQrBlxDfLgi0Wpo0Us6AcGAYEAwIBgQDAgGBAOCAcFA5DHAvME1qYAq8qCSNpA2EAwIBgQDggHBgGBAMCAYiFYMuIb4cEWi1dCil3QCggHBgGBAMCAYEAwIBgQDgoHIY4B5g2tSAVXkQSVtIG0gGBAMCAYEA4IBwYBgQDAQrRhwDfHhikSroUUv6QQEA4IBwYBgQDAgGBAMCAYEA5HHAPMG16QCqsiDStpA2kAwIBgQDAgGBAOCAcGAYCBaMeAa4sMViVZDi17SCQgGBAOCAcGAYEAwIBgQDAgGIo8B5g2uSQVUkQeVtIG0gWBAMCAYEAwIBgQDggHBQLRiwDXEhysSrYYWvaQTEAwIBhoCBp5q3pX6DZhMjRu3pYZQX6mjvNduxUCPnqOpY6eh9OijLeVdfkRw7jacM29wTeq2BpL6SKcjGBAMxAIGOnUeSnmFW6h6yylaXryNmjzZQQZNMmgSDMQwBhJnZdOGradpddURmjw9nRo3biftGcPtGQv/I+HU0TXEhysSTuPJs2Rg2pAw8I9/tKRR86ood+/ntLTmXWrXfaL8GcqfIT32WGuaNTdPER8MlnAIAZK+sSH1jW6tKxMgfq9LV+9THiG31lfq1bD6LeYNrkljBcDxLXtR6rI1VFCyQx0ZudXU/OlutgPKvv0nevJzOX/p7KTltjJjxV6iZ+Q7pv7jcqns5B+08uz/qSNl/esxh63Hn+hIwxIrKHn1FUXksnbco/nlL1H3IQsJBC/SOOs2eAGNmb+Rhs9cTU2a2fcHkdYVzwf5SUlfpUgPBklrNxyjMeMWyvQ3IcYRf5ei4f2IfR3iCZ7drOUbPR844A3C1LjYr1vk/1PFhpFtA9cQH65ILACqV++xlLV8kxeZEQIU2RchFnATaR1HzKn0kB+QoGmZh8P6J9i81UBatuU9KjryAyWVvRTQs0FuRsxeSyW1v3rVgclcxZn/0qK11wgEKZJ2BjGDTvkHvqb49sMjqosTO0ybmeEZGOUW1tBTzbtEvc5O6hVIni7dhtMLlz6hW3f/UCl+B1Je8rq3789fsV3hAtjAeey2dTyNGD2X1m2qVR874Alq2ap3DNfHvZiLXYyFv02YN7gmjebGb9SoFY2flKI6Qnhu8oq2UEZOdcAeoNzCLdSrzzjlMYLXyHj07jtezcXHMyZOSZVOSr7GhgQDICCpVW9S4eFvKansAjVtEd4/wE59Z9CKYz8pgpCYczygOo2ev5HKT/+lyiLN3vkxLa68Tumb7lDZiQdeLZCgxNzA5Iayv2nSrCtlbL2rdESK36GUH2pZnToPU2sD4PnJK9pKTZt1imp9Q11/licEKPwDF7Z9tKfuIUAP2njk6HlUVXNSkaC5CwrokUfiG+Q7H+24E/2c9UmuIT5ckWht+CeeaE/zFhR6vD6ZudXUqcswGjshOQgCVKPc0lZ1BelRBKtwC3XpKl8jrewk1511EtFip4ETC6js5H8IRAVTxJzq1bnfbCo++qMiFnn7vqCOvad7lcX9goPfqPuR9LzA44PnwwMET5DT+kUq34LFK9RAaN2mZ6lv/wlRr2992UkIUGxtUZzoAAAgAElEQVT1I/WFAzO5biNAmPKakVOl3vuV6w5Rm7b9G+x7b9beci22+gLmDa5JoxWA8NJgmhuISVJyMTVt+uBraagJUPPmXWlp1jr1nIUppfT44xKKNloxIXoF1lmOX7xdkYPS2t+o1/A0x3+8c1c8r8qVHP+Fug9JNi03q+D0A9knfqc+o5aZ5qnv9sL6H+gIAjRl6f6I6OC0jujPSlftUwOhpdnrqFGj1lGtr9N6BZNPCFBg73EwNo7VMm4jQGiHQUOme7xAMsNEsB+r7yb0dg3x4YpEa2NgwLA0ez2NGZ9MmArHegZCgDp0HEwz5uTQtJmZhCAKLENP+/afpKbYoeNFR6Xfk/Po76ywBmXotFK1EL73yKVqYX7XgfMIg3hM2cIxftE2vwvk+43NVjIGTymmxxq3p7i2Q2l69lGPjNlFZ6l9zymW+MACfHhZsCDfeIxO2kCtO4+xLAucYc3NgPF5quygSYXU6LE21KbLWDXFjOsBfaCXGS7Nnp+24dYDIlP7K01O3+dIr2Yt+lD2rk9UuaWb31a2MHser28q9UOAoO/4lB20aO2rHltOSt9rWQ/js/QgDLADPD1Dp5cp+zj1cMGWIEs6JhDIAW2Oe8Znmv3GdEbUGc/n9kCdULfmLf1/1e3RazRVbnxWEaDR4xY4eib00MnCsTNvUYu4HmowdfXmt2qtxM33f6OLr31JJSv3+Q2j3b3nKKrZ+TxdfuNrQjmss7h+5yc6c+EuzZlf4NXPmtkA14KRsWBxCb3+9k+etR14rr/j6pvfUMLI2Y7tZKVvfV43s8WNd39V7bFq3WFq136gpf6oG+oIO9Tsep46d02gPQcv0/U7P6prkPPi5U8pPbPSsl2YLMC2sPG0GRl09sIHhLLctkdOvkmB4K0+7WUmG5j2hwXjfdjLTBaumbWJE4zr7QGd0HYIT6+/Z+ev3LdtDyud9I8fqUude+Ihb/DQRM+0Wawj6tp9hGXdrZ4v16N/HBMrbcS8wTVptBoeU+Dath/g87IHQoD81Q3ECn/88DJl5m2g+JbhXaPhTz+577/jQmjp4qM/qAH77MIztKDiopryxYv1Oc0/8C/q0GuqD55g46ZP9yREN0NekAYs/sfAnstyiulkIDNm7QIviFkZlIWXAgNws3J87am4vpSz+9MHOlTfpKkZB9X0NX42pwhK0G9Mlo8seHjg6eF8TlIzzxBIV9GR75WcmctP+jyH9QVRQt5WHUeZkggQlxl5taZ1gG52tuRnwGYFB//tUycOwDBpyR51z6weLANkOG/v5z4y2D5mU/y4LFLUA7ji9VBcTk/R7sNnrbG0FeQMTZipyA9IEMiQ/gy7c50AHT9zm3Y88zLdfP93n0EjroHc6B+LdLkzZmfTK9e/8inHg0sQok3bn7MsD1nBynAjAZq3sMhDYNiGxvTsSx9Sz95jTdtaH3Bv23Oenn3ujmnbgMwUl+82laETIHgXmVAZ9bj0+r9o3MTFpjJ0jETiPJQEKFh8ot56e9Q+9zaBOBrtiN9O3hOjHeHtxRT+QMPd68SJw2o3dO+x0bby2/8YKZQ2cg3x4YqE0jjhkBVKAoSvPDn5mxUBmj7Ld1AZjvrIM+r2AvcdnelZlI+IZxWn/6aMre+rr/QIQLDi+M+ewS/CUMO7Y7R5q06jVaACDGozt3+oAgfAC8Jf+kGeeMCLATnyG2XAK4Foa/qBQT7KIQiCWRldhk7koAMG1Vk7PiJ4S2YuP0G6DthXCB4JvfzgKSsUceHnYw1PxZm/1fOhB1/XUxAuEBhdjk7k4PHQ7zk9B2mA7dhmIG0InoBrsCvrheu9R6abPgNkldcZgfAsf+ZLr/aAfTK2fWBr376jMzxT5BC4YeGqS8oLBpsiqAPkQkcQJDPPGrxysD3nQzsCQ4wL4IzrAhLesXeiaV1gN94fBOsAAokGpROgi9e/ois3vqH9x16j5NRymjUvjzB4Zq/BG+/8rEJsG9up/8DJdOHq52pAhwEciFRW3kaamriMqjaf9Ayc7QbbdZHB2xGsqNhDOCoqDxIG5RhQIsVvvscpAt7YeVCMdQzn7yHDEpWXB/rfeOcX1R6YrTByTJIK1HP6/F0PSd1/7JopqdQH3PD0XLv1vWpLtCnaFm0M2XgGvBATJvsG59EJ0EvXviAcsOWkqUvUrIZzL9/z6AGChQF1OO3k5FmL0sq92n7PoSse4oFzxoOegugYZdcFn5Cltwfa4tpb36s24PbYffCSpz3Y42bUwe43PD8gMeVr9isvrl1evmdGgECkGvL0WbaNpHUbNwVrP+YNrkmDNUSkyoWSALEs7MYuwQ8i80LVFUc8FQvEJ3//Vz6eFhAF9qzAs9G2m+/ic917UnjoGzXFStdLH9DjOSA7+n2zcwyeeQoavEvwMpnl42s68cBA2/gM1IO9VCA0mP7FZc1Sp54cY1m2JwhGsGt74CWDnUAcFlS84jP9UI8wN6/0vE89YDuQFZAT7KM0au56rz2H9PZAHjP76lP50P7GKYh4xqz8U+oZ0HPk3PU+eoDQsHcRpAfPNdoLoc2hA2TYBZpgAoQBaly8PRb0Z+gECAPiIhNvwJLMtQTyg8EyBs56eZyXrX5GDYThJVq1/ojPgHzYiNkEcoXy5698Zuq1CIUM1kuvE8Jh4zffi4UU5Ay2fPO93yi3oMZHd0xTPHb6lrInCCsigRnrZRxwg/QY8wAr7O2D59B4nwkQ8jz38kc+7QY9Tpx7R+nx2u0flAfPKCPafnOdgEWcO9WvrvjU28PqQwDIGk/lBCFyqhvyBfv+Ywoc9goDeZIpcLE5RgkEJ9Ge1zXEhysS7QY36sekxck+QMay+u8mT3aglKWrlPcHKX7r9+U8NjobTNNSA9DTf1PCjJWmbYgF8shjNagH2cCAHXmspn3peZx4RvQpbU42QGXiAR2s9gvioAbI408HnVD5y6tjne2JgT+8Uvo9J+dYiwQPFnSEtwdExFiuRZvB9P/bO/M/qYp7/f8l10hAREcZdhgY9lVk31dZB0YYNoEBZoZhhm2GnWFHRIUgiCKrUROXuGvURLPexCQ3yU2uMXui5ia53x8+39dT+GmqT59z+nRPz0yf6ueHflV3n3PqVD31Pj31TFV9ClPPcI5f+GrbeCzd/kKS+dG87JE/P33BAto0qM2Rjx1Ewa/dYWhgbMLywMgRDBrWffmZay1vth2gZLPwC+k/YGKKnvY5WAPijTR18eoHphOMUaChw1P/AYAyooONTifWSyD6ppZb01zkoXnZ5Y2jAdJ6hKXakQ8aLbA73M88+2GKKUXeME4wUEHGVu+B437GGHls2X4qYdYw6hdW5nw4ZtcpEwPUXD7t9sDURb/RRzxXeL6gt99zFqZfts9/WJ48Fo8+ikvtpL7BmTRujZMrA4S9fzZvfdgYIL//0MVNl0ItL6a5oSONDjU61n46qHEIWiuiBilsrY4aoKgjQPaUNr/Otbecajywbw/27/Eex2c1SVFGgPTcsM673z1UT4yawMT5nRP2nW0qgiKz2aMzfgZIjUdYPe09jrz6YnRnddN7gQZLy2+bKDCi32uKvZPAFqbqDRyzIuW4nhclzbYDZJsFrJcIupeupfAaij4lY+S5Vz42nbagjjbyROcYIxp4eTvKucjDLrddJ2957fPi/F478lEMUNCiflsnv7ZPdw/oZ6+/ysRQtJX2WieYjKjlzQWftgHy01r1CHrO9HhQmu3zH5Qfv6f5aQsGnDE+WpG2ELE598yVAVq0dLMxP/hjn8mc/OaUndfm9kfL7khjuhk6vn4aa8jmoLU4iOyFjm7YnjbpTJT3vnbnOsoITBTjoR3yMJOk5VBDlclIjjcYRJCeeg+/NIpRtPfv8Ru9iVLPMH3t0beg/YGwKS3ujXaHnqWjylPYwbQ4jADhHKxBwtohBKAo7jUukDU/TfBdth2gdJ1gvV9Qxyzq9WEd5VzkoeVEaucXVwOkUcIwQqPT1NBp975ogDL7zc/GANk8hZmXMMZpgDJrJ/t55vvC0U59gzNp3ODNhQFCtDdEfUP0t6jhX+OmUyGU117nApPjV2d04sPW4iAoAsI9o5PrNxqhecJshUU90/M0zWQEJqrx0A572GiX3j+KodJzNbWDQfitzdHzwtIoo2n26A3Mjje/KPUM09cefUO7hr1gcBDowM/sIUCEHXzCzgfXwVyW73wpUhjsljZAXg31cy46h7nIQ8uD1M4vjgYIkd0wTcprdvw+N8cA2Zr5vVezEHQPv2vy/TutE7SMOgJk80QDVDid8Xxn2cXyOWN8tCJxa6RcGCBMeYP5wRQ4TIWLmwYs780feTt4gd8UJuhkjwbAFHi1s9ejBI0WeK+J8llHYBB4AcYp7BrbeAQZOdskhe3Pg/vY54aNjHnLFEVP7zXez1FG08L27+l4V6kxojAbYfUM09ceHbJNi/0e0dtgbhCQwc/8aL16Dpglqw68a6IJ6miQnQ/eIwiDNyqfXq8pDdCtjpndYY2jAUIocjU7WFeFQAgYQbBf2AcI5wSZE3vEIWgKnLITlKpZCLpH0HX5/L3WiQbo1vOSz+3FshVWO6lvcCaNG8DNNUDYX2jFmkZjgFav3yt3dkqN7BQ3TQq1vFHWitijRN61ItDNHo0IWrOSjb6ZjMBEMR72tLF0Rs02VJmM5ETRM0wLezTNLzKbXosocTAOfmuyotZT9fULtBCWv5YhmxRGCdPfMA0O+zTZYbqhXVie2KQSkZx2H3xSevRMv3Gq5mWbhbD/buv53jTq9WHTg3KRh10uO7+4GaBRo+cmIua98OovUiKvaT21Ix9kTmiA/DuOqptrBgiRGk0kt91n8zIcuXLL1J9L6nJTF2eMj1Ykbg3bXAOEcNcIe40RoJlzUvdWiJsehVxeXSsSFrwgXTS0sNGIbLWNujZJ849iPKIEF9D8ohgqPddOo0xfQ93Ktj5n9sKZsuxoUqc/3Wib3itsTVYUQ5puhCtsdEjLkIvUZsvPXNv3yMVGqNkYoFwsEM9FHrYWcTZAiJCHSHnooIeN3GhHngYosw6l6paJAcoFn7YhDXvOcAxly8S4Z7sRqv3M8H1mHFGvltFLfYMzadxAaa4BwoanMD/YANUv1GXc9Cjk8upakbBpZumCF7TEaIE96hQ0pc1uNzUeYcENogQX0Dz13LAoanqunapxCAucMGJatdmbB9PBplWcSDJAdr2DRp7sMNl+a65sUxEUPMI2SX76aj3CglrY9fZ7f0/XUWbqYljAA7sc4MgvH/2utP+ExH4emfzjxTYLYR0zvY9fmkmI4KD9YnKRh5bNrlMmHUm9vi1T2wBhE9qgsjQdv8opcLdl3gnLxgChDZrLp22Ach0GG2uOG/edNyNA2BA1iBm/7zFjpab+pLkWoeoHDk7dhNvvOn6XOXvULL1mzhgfrUjcGr05BqioqFTWbTxgDBCmfLRv3z2jH6O4aeVyee21Iujoj56zLaUt7U1QsTcNOt9eTcJGI7znRv1sd+LTdYyRp66bCQtuoCYpbLRLy6cBAnZe+UKwHka/T5fqiBpCffvtqWRvxooNY3sNmpOUt72eKkhv3QTVz0ChfLZ2fqMqmIamm6RiGp2fvlqPoBDgyEM3QQ0ynTrFLiwc+PRVj6TdJ0g1v+vuvrK14VHTkcGakQ4deiZpp+d5U9ssZGuA0m0SOW3mSnn13f8J/c92LvLQurVr11UQkhv/SQ/bm0jPD0t1ZA3Ti9ZU7pXbbiuOpGtYnmHH7ClwKPuIUbNT7jf7gbUJPeM2AtTaenq1rli9M7HZKEyD93jQ5+byaRsgbCq8Nc2Gw5lshHrf/fMEhvjQiWsyaWpqtMmgOuF7bGbbsPec+d1Ais9h5/NY+k48NcpeI/UNzqT5CkP79j1MgIKR980V+1VWXpsYwRk3YXHSsb6l40J/HPBDhP8w4YX3+Vp3liv9A2qvFak991upOfMr6TdicaJNsZnm+hM/NGtNGq7/UxDS2KsrOsIaIc5vLYn3fO9nXROCkQ/7hVEndPAbrv2vTFralHQM58G8aV62kfMbEdHzMKKCDn+UUQ2dUofzkefI6TVJZUB0s3ZfTTX/OrqD6+ov/knGzmsw56GeA+5fnghOgLrNr06N3obzKva8YcqJc7CJKcJNow6o54zVp82mosg/KHCA3a7Yf2fs/MZEkAJsOrpi35sCE4j8gwyeXQ+Er0bZVUfkgSl8YALlgJlCufW4pjq6iPNmrz0r7e+4tVYQ7zH9D+VDHuDMz1xrXpritwsd9abjVwQdaf0+LM2FAULUMt0L6IMffSaXbnxo9vqZO3+9NB27Km+8f3Ozzfd+8HezcaZfeXKRh52vjpAghPRT1z6QbY2PJ71q6k9EGqHX4BLQNZORNbssmb63gyC88vZvpHH/eYGJXLfpoJx7+i3TgX/5rf+O5QhQW+hp6w8D9q13fmu0A5f7j1xK4gKcLFi8KeXZaS6ftgHCCNBb3/2jnHv6bVm0tEYqVjcIDM973/+bKdc7H/1Zyiu2ppTBroe+xwbrCLZk1v/sOZuxgbFHjjFrpUOHHpHuq/dnmr4vQY2ia+SM8dGK5GvjF93TXyqrDxmzgylrUV6LyzcH/jjAUC1ftcPkg1EgjAbla91ZrvQPpL0mBh1aTNtCZ9T7Qkd5WeMrSR1Y1TfqmhU935vaIx7e+wZ99k5Lszv8QcENogYX0PKFhW9GuYJMFO6zYt9bKRradQnTE/cfcH+FMSj2Nd73iL7We3CwAYC5wn281+EzAg9U7H3THAsavYlSD+S19uhHgdHb7ptVZ6b6+ZXB/g57S/UbWRbpt6Rrt6GJ/+biP9bdug9Pe10uDBDaBR10dNYx6uL3gjE6eurrgtEZ5cib5iIPzfP+sfPlpbd+7VsWlA+dX3RK9fygVBeXHzx2WYYOn5H2/KB8Mvk+XRhsmB8YS9QjbiNAbaGnV3uYHvDoxym+C1p71Rw+bQOEqY0Xr77ve/8oz8mt+hTL/EUbzcgPDBDM5a1j6f/G4Vx7RG5hWXXG12d6P54frV0KVSf1Dc6k+dqQuTZAWO+D/6DASM1bGH1aUL7qU+jl0nUumK6F9/fP3Z7S8d526a8ybcVJ39EO6GfvF+M33SqdxvYaELtTHPbeO4XNziMoCp1ttDAyka5cON5nyDwzMqEjHXaZwkaaMLoBA4LRFfsavN9y/ndGZ78RE7tMpaOWSvXjv0wxMcgzyr45KMPiuhuJURrcG4YIeSLvKFMGw+oB0zJl2bFALrQuo2fXmzp7dcBnGFmEx+7Wd0qk9tA8x08qMyNA6BBt330m7ShHrgwQ7q+bd7727U8SHUws6L/89e/JgrKqSPXIRR6qxYBBk8yIif5n3e7wRjFA9n/Xdx240KobWqsO9kaob33nj/L4hdcF9dK1LHEyQG2ppzKBFCa8sqrJGHa/TWaDDFBzGLcNEEZ7MNUMo5RvfPB7Y4RgfL75+n/J2g37Q/9JoPX46le7yaIlNQnzg3U8ne4qifSMaR5IdUQO0+dGj5mf8fV2XnxPc9NcBpwxPlqR5grC6/lQtQUDfsENMK0Lox+YZha2eL0tyhu3e9paQk9Ef8u0Drp5LK4PmnYXliemzeFavBCUIOzcoGO5rgfK0jy2kv8rfODoZcF6xO49MBrUsutXgjSK6/ddug4RGB+YSXQwsWA8rnXJh3IXsp62Acp2rR3aEFPUxk5YJFsbHzNc6j86ooz2+jGgI3J7m54SRLvzO4ffsQ/WWgyob3AmbS3heB8+pLlkQNfE4L/52Pcml3kzL7LasgwUy8Qp5WZ9AzpIeGGdAP4D37L3datdERELkbGg39LlddQui6hrNm+FrGeuDJCO2IBJjNpsqDksnTsPyopNe0QOAVQQSMVuL7536/csDu3pjPHRisRBdJaRD7rNQKZrYuxr+Z4s5QsDdxeVmsXU6MTTAGXO5fiJZYn/suN9vrRrXMtRyHrm0gDB+NTvfFSGjZjZrFHdzsWDTIANmKnWiHAYV25Z7sx/O7PVTH2DM2m2QvC61oOOWidrnc2aGGqYrCH1yB89sF4A/yXGholsl+jtgkXh6BzuO/y0IFoWtYuunZ9WhaxnrgwQphFms9bHrz3sEbnWinDoVw5+17znyiX9nDE+WhGXGod1KYwH1Q5egD1f2O6F0e5sZ7bzLQaKZe3G/cYA7dh9VhA059Yx6pS5FoWtZ64MUOa6k1VqFh8G1Dc4kxK++MDHtmJbkQEyQAbIABkgA2SADLQ2A84YH61IawvI+/GhJQNkgAyQATJABsgAGSAD8WFAfYMzKeGLD3xsK7YVGSADZIAMkAEyQAbIQGsz4Izx0Yq0toC8Hx9aMkAGyAAZIANkgAyQATIQHwbUNziTEr74wMe2YluRATJABsgAGSADZIAMtDYDzhgfrUhrC8j78aElA2SADJABMkAGyAAZIAPxYUB9gzMp4YsPfGwrthUZIANkgAyQATJABshAazPgjPHRirS2gLwfH1oyQAbIABkgA2SADJABMhAfBtQ3OJMSvvjAx7ZiW5EBMkAGyAAZIANkgAy0NgPOGB+tSGsLyPvxoSUDZCAfGLj99i4yaMgU6dFzhORDefK5DB3v7C0j75srne4qoVa38fnNZ1ZZNvJJBlqGAfUNzqQEpWVAoa7UlQzkJwMdOvSU2fPWyr7DT8vhk9dlzLiF7NSn6dR3Lh4kjfvPy6ET16R6y3Ep6TuGmqXRjM9/fj7/bBe2CxnIjgFnjI9WhCBkBwJ1o25kIH4M9CkZIzv2nDXGB+aHBihaG6oBUs1ghBYtqZGvfrUbjRCNEBkgA2SgABhQ3+BMGpdOXHGXwbJ6/V7Zsv0R86qsPiRF9/SP/ND1LR0ny1Zul6otx831tdtOyfqqJpkyvUI6duwdOZ+46MVy3uzYFXUdJWPnN8qUB48kXhPK9gu+d02jjnf1l/EL9yTqadc57P19s+qk3Ve7O6eHt30HDp4iew/dHPVBB35DzWHp2QscFDtfd68W2XzG7+T0WSsTI2fQcOVDu2iCCqDjkw0vvCbaPxeoE3WKCwPOGB+tSByEHzxkqmzcfDRhfmCCohqgdu26ypz56wWGR82TN91QfUh69xnNTpBDf8iLuoyQij2vS+ONf8muZ/8v6VV/8Y/Svd9U59q7/+hlsv3S35Lq6q273+dVB991Tgvv71qXrkMSIz8Hjl6WCZOXFKTxOf7o8/KdH38h737vL+YfQl6dony+u6ifVNcdN6NnMEEPLKx0np8ouvAcdmTJABlwmQH1Dc6k+dxYMC/TZ61KmJea+hNSWXUooxGgydOWJa6HaZowaYl06z5MBg2ZKovLaxPH1m7YL3cXlfIPuQMmCKM7Gx/5OGEEdl79h9Rf/FPi9dCRD6XTPYOca+uRM2qk7sKniXpqnVF/GJ+G6/+UrU/d0kGPz1l/zjktkn/XimX5qh2mw950/IqMn1TmeH2DOyG5MEDQFsEQ8E8lTInbfeDJL0fSgu+b3B48j3qQATJABuLGgDPGRyuSrw1wxx29ZOmyusSoDUZpSvqNlakzKiIboKKiUlm38YA5/6HKfXJv54EpHR9MgdPRofETC7djlK8cZFMudOgbb/zbdPinLj8uX/lKl5R2zybfOF4Do6dmcM3h7xSkFr1LRsuegxdNZ72yqqmgp2zlygDhWRg2YoYcOPqM0bWsvLZgn7E4/i6wzOx8kwEykCkD6hucSTMVoLXOx/oejNhgulp5xVbp1Olm+NVMDBAiFWGqBvIYPWa+7x/ou+7uJ2u/NEmLyzf7ntNadeZ9mv+D1PGuUqk8+WMz4rHu2Pfkqx16FXSbdi2ZLHVP/t7osWjL9YLUYuac1aaTjs764KHuTX3M5HcjlwYI0fQQEQ6jQDt2n81oTWYmZea5zf9dpIbUkAyQgeYy4Izx0Yo0V5CWuh4GaN2mgyZIAabC6X0yMUCY5rZ568PGAA0bMTORh+aFFCNNK9Y0mnNogOL/A4G1PVjjgylfmXT4h0/dZIIHjJ6z1Zimzj3GyLxNT8nK/e+Y1+L6Z6XXoDm+DNk84T1Mx6y1ZxLXrtj3pkxZdlQ63Tsk0vUISID1PEu2PZ/I48GGlwRlzDRYweDxa2TH5c+MHtNXnop0/x79ZxgtJi05KNCh/R19BIEjUA/ogbVVmG4XpSyYjoi667W4HtogX69uQZ+bp2exrN2433TStzY8Knfd3TfyfTEybK+XeWBBpTz74n/Kez/4u/n+nY/+Ihevvi+YZhtUdnyP368Vaxrkxos/FlyDPD/40Wfy2rc/kcMnbwgCtIRdj2MI1oCpZq+8/ZvE/d/7/t/khVd/IRjVwj493jz69R8vL7z6c3M/3DPqC/X25hX0Wc0lQoqX9p8Q+TpMoUO7YA0RpiUuXV5f0CNzQfry+/j/TWIbsg1dYUB9gzNpvjYMjEmPXiNT/qBmYoB69Bwpm2pvBk+IMgI064G1KffLV31YLv8f1aGT1suOK5+bDv/k8sOR2tM7TWzC4n2JPOygAVhLE5YnDE5Q4AXkg3JNXHIwdBpa6ailUnPmV6b89r31fc3ZX0ufIfMi1QuMICocpgOi7KNmbol03fyqS+b+WC80Ylq14J56f02R54p9bxlz5MciTNOCmsvmvnqNnWI9EgxmmInKhZ4wBvgnCEYp0OHOJOKbbYAwwvHG+5/6mohX3/0fmTZzpa+2mHb78OPfNIYnyIDA1ARdD23HTlgsz73yse+9b5qpz+XC5W+nTPFtDQM0dPgMOXjsstE3k/2U1DhpWG2Ozvn/nvk9W/yOWpEBMtAWDDhjfLQibSFic+6ZiQHCf151HVG6NUCYKsfN/eL/o5Lo8F/5QoZN3uDbKfXyZ08T23DqJ7Lt6b/Ipkd/nhh9qX3ifxIGYMv535kRHm8eGOmofPg/zXmIPIf3GHGZWnHC5KOBCHZe/UIQdtp7PT4Pm1yZiOK288oXsnz3q2YkBu4x20QAACAASURBVCMmm07/zBgZmAgYpKgjKHPWnTNlQp1Khi3wva+3LIgKh/tsOf+pVJ/5lZlCh+8welN58keJyHqN1/8l4xbsSskT5gfmCCYJL5QXdUAo7vKdL8n2y3//Uqd/y/RVj6Rcj/LkQk/kY+9fs7Cs2vde3vrrZ9sAvfTWrwUvbAY6a+5DZt3gcy9/LB/86HNjTJ75+ke+U8Bwvp4DA9V07KrMnb9eNtYckUs3PkwYIxgcjFjrvTWFgbry3PfNPZAP7olyoQzIG2VSE3T89PNmtEmv1VH0bY2Pi76eefZDcz5GjzAdTr+304mTl6aUQ/P0phj10Q1lMULmPR702WuAYKJgpoLO5/fx/21mG7INyUC8GVDf4EwaNyAzMUCoG/YPQoQ3rAMKigKHDkW6aSxx06kQyov1PpjyZr/Ktj6X6PAPmbgu6RjO69pnUsqogz1NDFHUxszbmdQRQ4cenX+YAnT6vceh9cLNV81xdO79jmP6mo5MrW56L2UU6K57hxrThXtUPfYL6dZ3SlIZEMhhUe21hHHASFKUNsaIlDFNZ38t93ZPH+rdHg2DCcM0QtTfvtfkB4+YABPIF/nbx/Aeo2TQCaM8M9c8llJXjGDpuiQYTdTdm0dz9dT8bAM0f9GmlPvoeX6pGiAYj6+//NMUg2Kbk7c//JMsWJycPwzNN1//pTEcL77xK7nv/uSRO/yDpun4VWOQcI+de76WUr5Va3fLt7//V5PH4+dfS5nqhlEeTMuDCXrjg9/LjNmrU/Kw65bLNUDIN1t9MQVu/aaDnALnQNRNmy++j3cHl+3H9gtjwBnjoxUJq2w+HsvUAKEONzfwWyU19SeNEbL3AapY3SCYKpePdWWZwn+MdHQDHfGoL5iLuzsPS2pvGBZ02JEHOt5+utvnYD2MfQ5GkDAyFHa9HZzBr9OPkRSUASYJ0/js/PW9vc9PUDn1XKT2PREYAp/t437vi3uNl9onPjF18SsnrrHPWd30flKe2IwVo2jQAqNGQUEo1Jj57cmUCz21btl20HG9GiCYi/qGx5Lqqflv2X7KGJj3f/iZGdXR75Fi9FnX/DTuO+97/ajRc+WVd35rDMzFqx+knHP01LPm2Jvf+YPMnLMm5Tjug9Ek3B8mClsF2GXwvs8XA+QtFz+H/9ZRH+pDBshAWzOgvsGZtK0FzfT+mRqg9u17mEAK6BjYxsd+v3rdHunWfXhoxyHTcvL8lv+xWrrjm6ajHdX84Dy/UNBqpLCJKEyGX9upAfIbAcJoDKZ6hV0P0wXzhTJ4o9NhdAejQjgWZlQwpQ+jMjgvSkAD26j4jdT41dM2WdDF75ywfHUNlp9Omhfqi3ZAPbC+yDsy1Vw99T5Ic2GAwjYNXbZyu9lUFCYJhsm+N35zYEpwfcXq5FFFPa97jxGJERyM5OCzHkMKU4S8Eeyg/4CJScf0PIw8YQQK5+0/8ozvOXouDVDL/y6p1kypNRkgAy4x4Izx0YrErXEyMUCYYrKgrMoYH3RO5i3cKNgbCHXGscFDp8n6qiZzvKr2mPTtNza08xA3rVwv7z1dRyVNccNUNizcR8d62a5Xk47pNDlc49VFRyMw8oHOvfc4PsNwIF9EVMN97HMwTQzHgq7HQv9pK06aKWEwSlgPY19vm6Mgo4KAALo2B+t5SkeVJ+Vh56fvseYH56JsQWZGz9U0zOjpOXa+CJig3yPF9DfcL8gMwvwgGIOuA1rW+K2k65FHc/W0y9OWBkhHkMIMFMr69I3vfmlyfi6Y0maXP+yYnjdu4uJEgAYYHP3eL6UBYofMjwt+Ry7IABlIx4D6BmfSdBXOt+OZGKAhw6abCFDoiGDDU7+6YI0Qwm1jROjBFdsEI0Z+5/G7/P9xsEcvooyQoE0xRQsjMui0h42+YJ2K3xoiezQDeaR7YVNSLPC3eeo5YGbCuKW7HgZq4eYrKetq7Pz0PYwGgi+EjcbouZqq0QsyMDgPa4IwTQ16eKfVqXlJVw8cR5CF3oPnJmmRCz21Lkhb2gDZ9/K+pwHK/98Mb5vxM9uMDJABMuDPgDPGRysSt4bOxAAtXFJtjA02OsWGp0F1RdQjGCCEzOZ6IH/wg7TLp+919CKTkM+YfqVhnoNGX8LqaI/ehHX6MRJTvvNF372A7KltQXkgshyi0SEAAUxCWJn0mJoZv1ErPceb6rTCoNEs7/n256jmBeucVh14NyXQA/LKhZ52mWiAkp9njgAl62GzwvfUhgyQATIQzID6BmfSuDV2VANkb3BaVl4b2mHE3HoESMB/bDFqFDdNWN6bD6yu5ckk5LM9nSvqNDFbb3v0xjsdzD4v7L1OG8vEqITlp8fUzCDiGkZs9PugNOpoWND1tnnBdL2g88K+z4Wedv6I1Naw95zZp2bpcv/w4/b59vuoIzj2Nfb7qNeHTXMLO6b3asspcAMGTZL9Ry4ZfRHaWsvENLgTQW2oDRkgA3FkwBnjoxWJWyNkY4CwyzjW/ATVFeFqsVkiXn57cQRdx+/z60dM1/L4LawPaqvENLEb/zabhgadF/S9LvrHyI03OlzQNd7vNeSzX0Q077lRP9ujMZh2h/DW6a61R8OyMTCYEoc6QIsoUer8ypMLPe18c7URKoId2PlGeV8IQRCy3Qg1in48J79+X9kebA8yUNgMqG9wJo0b0FENEOqlU+A21ByW4i5DAjsw+M8lp8DF+8HOJuQzGGnu6It22DNZZ+N95tQAZTPtzJuXfs5mNKa5oy+2AcpmNA1lz4WeqoGmiPJ4+OR12bH7rO9mpXqeN406guO9Tj9nGgb73NNvp/xGZRIG2y8Ut5ZF01xPgcPeStAWm6FiU1S9T5R09Jj5Zh8gXL92I0LLF2d0fZR78Jx4/66z/dh+ZCB/GHDG+GhF4gZXJgZIgyDA3MAM+QU4QNQlRIBjEIT8eciyYTIsNHNYfrpoP+o0MW9e9iaqQaMe9iaofsEZMHUOoyZBewBhNEc3QY06vS8bM6NrkRBoYfzCPRl3RjHNTjc4DdoDyN4EFVP0WkJPb57Y5BidbGw66t2M1Huu/bm5BijKRqjHTz+f2AgVewrZ98f7dBuh4h7PvfKxiSL3+nufCtYzevOwP2M/I4TLfu/7f5OHKveFnmtf5/e+Q4eeUr3luNG2bsdpweamfucFfffAgkpzLdoG74PO4/fx/m1m+7H9yIAbDKhvcCbNVzBhVmBgRt43N+mF9TwwKzAt4yYsTjrWt3Rc0h9ROww2rllTuVfGjFso3boPkwGDJpsQ2Zj2pvkxDHZ8H1I7AlzU0Qd7mljQpp/png9EdKs+86uEgZm+4mFB2Gtch2hpk5Y2Sf3Fm6G5EcSga59JSYzivBHTqmXn1Zv7+2z+2m9kwP3LE+d07jFGyrY+Z0JowyQt3/1qpCAIamYymZqXGA0L2Yw1TA+sIXroyHeNFg3X/ykLa68KNkbFNdBk5IwaQf1QJkSZG3B/amTGXOjpLSP21tl14ILpbG/afETQcfee4/e5uQYIeW5teEze+8Hfjel44/1PpenYVZk7f73ZvPTSjQ/lgx99Zo499/LHKSGwcT3WMF28+r45B3sK4TyUa9bch6Rx/3l56a1fJ44dPfX1tPVatLRG3vnoz+YaXIsNWrc1Pp70SmeiVKvxE8uMqYSBmf3A2rT31us01ZE5GFP8zuv3TOP7O8y2Y9uRAXcZcMb4aEXyFdaie/pLZfUhY05gUKK8FpdvTvkjijUAWAMUdn3VlmMMfnBbvB9ajQCXyVQ0e5rY6qb3U9iJ+mxg4050+NGxD3rBBA2Z8JDvPWAcVux7K/BazXPt0Y9SQmgHlTEbM6OjYc1ZizRk4trEHj9abm+Kka7xi/b6aoH6NFdPP010qtahE9dk/qKNkaZb5cIA4Z8wMCZqdDD64n298vZvZNrMlYF6YJTn2Zd+knKd5gNjdOHyt41Z8qu7/R3Kc/bim2bUSa/3pqi3fY3fe2wcvXPP14ypRJCJrt2Gpr3GzsdemwVz2qVr8BRl+zq+j/fvNNuP7UcG4suA+gZn0nyFMVcGCPW7/fYuMnDwFFm+aodgYTLMEP7IV1YdMvsDdezYO6M/3vmqWSGXSyPAhe1f49XHniYWNH3Ne03Q59Gz62XL+d+lmJidV76Q8p0vSVGXEaGMYbRofvUlwflew4BpZVOWHUuMLAWVwf4+UzOTi9EwvX/pqKVS/fgvBVPp7LrAJGJqXM8Bs0K1QD7N1VPLoimmZyHSI0Yr1AThd0GP+6W5MECaLzZkvvHij+Wdj/7y5YjNZwLjgxGhnr2S94XSa+wUhmH7rrPmGh1RwjQ2GKO1G/aHBnmx88F75LVz7zl544Pf+5qqdAaoT8kY2bHnrNGy6fgVGT+pLFRH7/3x2Q5PjnZB1E6/8/hdfDtLbDu2HRlwiwFnjI9WhIC6BWihtqdGgMtlIIFstLyn6yizQSgCAhT3Ghdpupp9H0wVwzQ5XI8XNmC1j8fpvW4ei3qgTjo1MJM6NFdP+172qAWM0NbGx2TshEXSoQM3P7Z18n9fLN17DBdEwztw9HLCSD6wEGt3Mg9eYIfPrli9M7aM+2vFvynUhQyQAfcYUN/gTEpI3YO00NoU62RqvlyHgzUomFJWaBqwvtGe486dB8nGzUdMBx4mCC+sC6R+4frZIzbQDFHfbq4Vytz8QGtorvojSAX1D9ef+lAfMkAG2poBZ4yPVqStBeX9+VBnygBCXusIycjpNVJ58sdmqhWmWI2d18DOVMzXc2XKQ6bnY+rbiFGzpX7no2Y6HA1Q+t8gNUD7jzwj5RVbpVOnzCK+edtI12RhE1WMBnmP83P6NqFG1IgMkIHWZEB9gzNpa4rHe/FhzQUDut7HXl/SeONfZg0N1rLk4h7MozBYLSoqbXZnvhBYQeQ8TIFLt24qmhbFZt8fjABlujdTtPwLg11qwXYmA2SgNRlwxvhoRVpTPN6LD2suGMD+MWp+MOqDESDstUPzQ75ywRfzIEdkgAyQATJABpIZUN/gTMoGTm5g6kE9yAAZIANkgAyQATJABsjALQacMT5aETburcalFtSCDJABMkAGyAAZIANkgAwkM6C+wZmUDZzcwNSDepABMkAGyAAZIANkgAyQgVsMOGN8tCJs3FuNSy2oBRkgA2SADJABMkAGyAAZSGZAfYMzKRs4uYGpB/UgA2SADJABMkAGyAAZIAO3GHDG+GhF2Li3GpdaUAsyQAbIABkgA2SADJABMpDMgPoGZ1I2cHIDUw/qQQbIABkgA2SADJABMkAGbjHgjPHRirBxbzUutaAWZIAMkAEyQAbIABkgA2QgmQH1Dc6kbODkBqYe1IMMkAEyQAbIABkgA2SADNxiwBnjoxVh495qXGpBLcgAGSADZIAMkAEyQAbIQDID6hucSdnAyQ1MPagHGSADZIAMkAEyQAbIABm4xYAzxkcrwsa91bjUglqQATJABsgAGSADZIAMkIFkBtQ3OJPGpYGLuwyW1ev3ypbtj5hXZfUhKbqnv0Qtf6/e98mSZXVSteW4ub522ylZu2G/TJ62TDp27B05n6j343nJDw71oB6ZMjCyZIA8t2O5/Ompevn39Qb5vxsN8vnl7fLT01VSv2CatLu9mM/tbeQqU654PpkhA2SADGTOgDPGRysSBwgGD5kqGzcfTZgfmKCoBqhdu64yZ/56geFR8+RNN1Qfkt59RrMzxc5Usxk4VvMNef/8P+Xts3+XB2fubHZ+cXg+W6KMVXMmy5+f2mpMD4yP9wVD9PKuldK1qBc15nNLBsgAGSADZKCFGVDf4EzaEp2XXOUJ8zJ91qqEeampPyGVVYcyGgGaMr0icT1M04RJS6Rb92EyaMhUWVxemzi2oeawdO02jA9QCz9AuWIjX/OhAcr8v0retpw3epT8/kKdMT3/ur5TPjpeKQeWz5EVU8bJ5bryhDGCCbpUW85nls8sGSADZIAMkIEWZsAZ46MV8XY+8uXzHXf0kqXL6hKjNhilKek3VqbOqIhsgEr6jpHquptT3ipWN0jHO1Onuo28b45s3vqwyXPhkmqB6coXDViO5nemW1tDGqDmt9mVugeN+fnntZ3yWOXClKluMEifPLHFnAOjNGP4cD6zLfyHr7WfI96v+c8RNaSGZIAM5JIB9Q3OpLkUJ5d5YX0PRmwwXa28Yqt06lRiOjmZGKCZc1ab6zF9Lmx0Z96ijTfPqzkiXboOYWeKnamsGaABat4fnJIuJfLx6Spjbn72aJX07drXty0OrZgrMEh4YXQol789zKt5bUj9qB8ZIANkwD0GnDE+WpF8hRQGaN2mg4IpbPaoTFQD1L59d1m2crsxNkjxOaiuQ4ZNN1PhMBKEqXFB5/H7/Hug1XC89ugfZezQMlk9b5+8cPzX8t4T/zBrcd54/C/y2LY3ZUDvyaHt2rFDb6mvOCPfOPHf8u65L8y1737tc7l26KdSMXuXtLs9dWSwX88J8tzR/zLnYt1P1NfmBx9JKgvKjfLjetQniLOn9n5kzsE9cW/vecjXXn80d8IGuX7o40R9sC7pwu7vyKSRy1OuRV5Ys4RztBzQDNq9deZv5jvVY/6kat/rveXJ5vPkIUPl0y+nv32jYUXgfconjJG/Pn1zjdDx1fMCz7tZhmKZNXeN7D/yjBw6cc086/xHR/49y9nwwmvYjmSADJCB1mFAfYMzab6CgylwPXqNTOnYRDVAuH7FmkZjgBaXb07Jx663PVVu2IiZoefa1/F96zx0YTrbBmj7ynOJDrzXjHz9yC9kUIm/ucX3Nw7/zHTyvdfh83tP/K88vv0tuffugUls5LMBghZqqrx1euWRT2Xa6FVJdYHGtgE6vfU1efbIz301gUmqKT+Vcn1YO0U9NmvkiMQan+d3VATewz4vnQHqUzJG9jY9JYdPXk+8ysprA/OOWlae1/bPP9uAbUAGyAAZaB0GnDE+WpG4gZONAUrX2ek/YKLU1J80/xnGaFDcNCnk8qoBevPMX+Wlhz8xnXaMhMwcs1Ya1jwpL578baITf6ruWyltW9Spv5zf9YE5B0bnWtNPpHrpwynX49iR6ueTrse1axc0ydaKs4nX0/u+b/LCaAnKZh/T9xOGJy/cb4kRINQbL2gALaAJDA3qAUN0ad8PBOW32bENELTEyM/JLS/Lwim1smHxUaONXo/jowcvSLrezivb97axaUkDtHR5Xc7Lnm2deV3r/PGmztSZDJABMpA9A+obnEnjBkNUA4R6wfhgDdG6jQekqKg0sMOja4U21R6VHj1TR53iplEhlVcNEDrmMDLeUZrh/eeYaW3o9L986hMZOfCBJA5Wzt0j73ztM2MKjm/+ZspUtx5dRsnlgz82x18+9Tu5f8iipOu9Wmt5MgmDnWsDBC0wouUd8YI2zxz4oakLDOP8SVVJdbENEMzP8tmNSccxDfCR+tfM9bjH9pVPJB33apHN55YwQLfdhilwD8mBo5c5BY7r+3LObDac85rsO2HUjtqRgbZhwBnjoxWJG0iZGKDxE8uMAYIJmjrDfz1B9x4jBCGwcc7yVTukffse/AMZo06SbTiWz2rwbTs9x6/Tf7jqOdOhf+2xP8mM+9f4Xr9m3n7BiM63z/3DjISEPTN6r7Y0QDB7dcsf961L7YOnzSiQX11sA3Rxz0cpZhD1hmmCjrjH6a2v+94jTJ90x/wMUOWsSfKHJ+sFIbGf3b7cRIWzz0s3BS7dPXm8bf6YUnfqTgbIABmIDwPqG5xJ4wZfJgbo7qJSWbthvzE32Ah1QVmVdO48yHTaEBRhxKg5gvDaMD84ft/96RZTxwfUuLVrtuVVw6FBEPzy8QYHsM95cvd3TWc+KLAAzrVHaPatvxLa6dfytKUBCru3bXKgi62FfQz1sI/p+6H9ZiZG1BCUQb/PVWobG50Cd7X+ZlhsbIb6yzM1MrR3f7HPowHi71Ku+GM+ZIkMkAEy4M+AM8ZHKxK3hs7EAKFuffuNlaraY4mRIJgdvxeMEgxT3PQo9PKq4cjWAGlkNUSOmzV2nTE7MDz2a8n0rYIRIox6BBkDbQctT5gJ0XM1tQ1WWP5a1iCzFmb09F62ycnGANmBH1rLAK2cMk7+8GQdR4BiNDKrvDH170hQF+pCBshA3BhQ3+BMGrcGyNQAoX7dug+XitU7zSiPmp+a+hOyat1u8x1Gf0aPnU/zE8MOlhqOMAMUxriaCpibKK8wg4L7aHny1QCFaWGbo6B6toUB8iszR4DYefDjgt+RCzJABshAyzDgjPHRisQNlGwMkNYRobGxvxBenYsHJ6bHIVw2jul5TFvm4WkJXdVw0AB1NpHeYOIyMV92m9AAxYd7u934nu1GBsgAGSADLc2A+gZn0pYWLNf5N8cA2WXRfLD5KdYC2cf4Pj4/JLkyQEHTyjJlQcuTiQlpzSlwYfWhAYoP92HtyGNsRzJABsgAGcg1A84YH61IrgVq6fzUuFRWHzIjOdncr2u3YYnIbw+u2MbIbzGc+qbtroYj2xGgKEEQ9F5RUi1PtgYoKLJa9+IRcv3Qx2aaHjZ17dNtTIppj7IGKKwO+WCAJg8ZKp9eqBMEPPhGg3/kRtShfMIY+evTW815DILAP/RhXPMY+SADZIAMNJ8B9Q3OpHGDorkGqF27rrJg8SYTCKGm7oT0HzgxpSMZN00KubxqOLI1QBoG+9XTfxDvBqWqK/bPwf4/GKmBEdHv/VItTyYGyF5XA5Pjdw/cH/sQYYobTJvfvV0wQCVdSuTj01XG2Pzs0Srp27Wvb10PrZgr/7y2U/736g5pKJvpe46t0b2dB0rD3nNy+OR12XXggnTpOiTtNfb1fN/8P57UkBqSATJABuLLgDPGRysSNxiba4BgeGB8EAxh4ZJqgSGKmwYs760fEDUc2Rog3QgVG3serflGyt432PwT3+M49gLCnkBh+mP/HZiUKOfa+Zyq+9bN6859IfUVZ5LuYZchbANSFwwQNLlSdzPsNQzOY5ULzb4/tlbzRo+ST57YYkzS7y/UyYzhw5P0ss/V96X9J8i+w08bA1RTf5Jr/mI86qttyvTW7yC1oBZkgAy0NAPqG5xJW1qwbPPHhqRDhk2XkffNTXqVldca84LQ1uMmLE461rd0XGhHCHliyhvMz8bNR6VHr5Gh52dbdl7Xej9EzTVARZ36y/ldHxjzAXPx7JGfm2AC00avkuqlD8tTe78n7z3xD3P8WtNPpEeXUaHMLJxSK2+d+Zs5/8WTv5Wdqy/I1oqzSS+/kSaE4H79sT/fNEFf+9xsMoq8Vs3dm1SG54/9UgaVTPUtgysGCAYHxgbT4LD56UfHK+XA8jmyYso4uVxXLn9+6ubUt39fb5BLteW+WnifwdFj5suhE9eMAUJESO9xfm69Z5ZaU2syQAbIQPwYcMb4aEXyFUJEasM6Hw1bHSVdXL45tGMzavQDgqAHyGvW3IdCz81XXViu5B+N5hog6AlDcePwz4z5CAqF/Y0T/y0TRzyYlhmM1pzZ8bYZMQrKC0bFrx1ryk+ZCG5B17308CdmryK/a/GdKwYIdamaMzlhdGCEvC8Yo282rpCuRdGiN85ftMmYH0yBGz+xzFf/IF35ffIzRz2oBxkgA2Sg8BhQ3+BMmq8Q59oAYZNTbHYK87N+00Hp3HkQO0EOTIPJhQHCM9CxQ28z9QxG591zX9wciTn3heAzRnHSjfzYzxHy2rHqfGLzVK+hCTJAyGPSyOVyrvE9eePxv5gyYFQK65MwDW9A78mhzLpkgKDFyJIB8tyO5fKnp+oFoz0wQZ9f3i4/PV0l9QumpUyNs9vA+/6hDfuMAcI0OEyH8x7n58L7Y842Z5uTATJABqIz4Izx0Yqw8aM3PrWiVmQgfgx0vLO3GfnF6M+O3Wezjh7Jto9f27PN2GZkgAyQgdwwoL7BmZRg5AYM6kgdyUB+MtC5eJA07j9vRoA2VB+Sdu26cQTIgdFfPm/5+byxXdguZMBNBpwxPloRguomqGxXtisZuMnAgEGTZP+RS8YAYS0QdeGzQQbIABkgA2QgMwbUNziTEoDMAKBe1IsMxIsBBD3A9Lem41dN1Ei2X7zaj+3F9iIDZIAMtD0DzhgfrQihanuo2AZsAzJABsgAGSADZIAMkIF8ZUB9gzNpvgrNcvFHgAyQATJABsgAGSADZIAMtD0DzhgfrQihanuo2AZsAzJABsgAGSADZIAMkIF8ZUB9gzNpvgrNcvFHgAyQATJABsgAGSADZIAMtD0DzhgfrQihanuo2AZsAzJABsgAGSADZIAMkIF8ZUB9gzNpvgrNcvFHgAyQATJABsgAGSADZIAMtD0DzhgfrQihanuo2AZsAzJABsgAGSADZIAMkIF8ZUB9gzNpvgrNcvFHgAyQATJABsgAGSADZIAMtD0DzhgfrQihanuo2AZsAzJABsgAGSADZIAMkIF8ZUB9gzNpvgrNcvFHgAyQATJABsgAGSADZIAMtD0DzhgfrQihanuoMmmDMeMWyuGT1+XQiWuy68AFKa/YKp06lUgmefDceLU524vtRQbIABkgA2SADLQlA+obnEnbUkzeO/OHWQ0QTJC+9jRdlIGDJtME3Za5nmSQmpEBMkAGyAAZIANkIJwBZ4yPVoQNHt7g+aZPhw49pHPxIBk4eIqsXrfbjATBCFVvOS4dOvSkCaIJIgNkgAyQATJABsgAGcgpA+obnEnzrYPvV57uPUbIoqWbpWrLcdmy/RGp3XZKKqsOycw5a6Rjx96RGrhv6ThZtnK71NSfSOSxvqpJpkyviJyHX9na9rtiMwUOBmhv01PSp2RMJC3atszxMpzUiu1FBsgAGSADZIAMFDoDzhgfrUi+N+jEyUtl89aHjWmB+fG+Nm4+Kv1Kxwd2/Nu16ypz5q83psl7rX6GEerRc2RgHvms0fiJZWYq3P4jl2TAoEmxrEM+68uy8Y8eGSADZIAMkAEyUOgMqG9wJs3nBh02YlbC/FRtOSYTE/hpagAADdRJREFUp5RLt+7DpG+/sbKwrDphajbUHJau3Yb5dv4nT1uWOK+y+pBMmLTE5DFoyFRZXF6bOLZ2w365u6jUN4981mj+ok3GADXuP2+mxuVzWVk2/gEhA2SADJABMkAGyED8GHDG+GhF8hXCjnf2llXrdpsRn3WbDkpxl8Ep5mTkfXMSBmnmnNUpx4uKSmXdxgMmjxVrGnyjpcEQYUodRoMw2pSvegSV66EN+4wB2rL9lNx5Z5/YlT+oXvw+fj+ObDO2GRkgA2SADJABNxlQ3+BMmq+glvQdI9V1N9f8jB4z37dj3759D1m+aocxLysf2iV3dOyVdB5GeTB9Dq8hw6YnHdN623lgjVD79t19z9Pz8ym9445eUlN/0higDdWHpF27brEpez7pyLK4+WPNdmW7kgEyQAbIABnIDQPOGB+tSL6CMWzETGNsYIJghoLKuXBJtTkP09uK7umfdB7Wx2BkB1Pk7u08MOmYnd+sB9aa81asaRSYCvtYPr9HnRr2njMGqGL1ztiUO581Zdly80NJHakjGSADZIAMkAF3GFDf4Eyar3BiJAaGBtPYEMggqJxhBmjqjIpAc2Tnp+fFzQAh6huivyEKnN8UQLuOfO/OjxDbkm1JBsgAGSADZIAMtCYDzhgfrUhripfre2G0BqYFozwVqxsEe+TY91Bj4zc65Hde3AwQor4h+hsMEDZItevE9/xhJANkgAyQATJABsgAGcgFA+obnElzIUpb5dF/4ESpqbu5r49fAAPXDRD2R9p14IIxQLMfWEsDxE3PyAAZIANkgAyQATJABnLOgDPGRyvSVualufdFlDiM+ugan+IuQ1Ia22uAMJUO630Q9Q1hrzWynJ4XtxGg224rlvmLNsqhE9fMSNDipZtl4OApJhx25+JBJr3rrr4pujRXe17P/yaRATJABsgAGSADZKBwGFDf4EwaR3hvv72LTJ+1ypgfmJnRY/2jxKmx0Slw2OcHIbVhmvBCoAXUX8+LnwHCg1csw0fOlh27z5qRIEyHs18Ikx3HNmaZC+dHlW3NtiYDZIAMkAEykN8MOGN8tCJxBG7K9IrE3j0LyqoCgySosVEDhLrOmL3aoRGgztKz1yjZvvtMkumhAcrvH5E4PnMsM5kiA2SADJABMlC4DKhvcCaNG8yjRj+Q2PwUU+AwFS6oDn4GyO9cPS9uI0CoO/Y4guHBCFDpgAmC0TG/OvK7wv3RYtuz7ckAGSADZIAMkIHmMOCM8dGKNEeM1r525H1zEuZnxZoG6dSpJLSzr8bGHgHyK7OeFzcDVNp/guw7/LQxQJOnLQvVwq/e/I4/hmSADJABMkAGyAAZIAPpGFDf4EyarsL5crxf//FSVXvMrN2xAxiElU+NjasGyA6DjU1fw7TgMf64kQEyQAbIABkgA2SADGTDgDPGRyuSjQitfU3ffmMT5gdBDDR6W7pywBRolLh7Ow8MNAiIDIfz4jYChEhvjfvPmxGg+Ys2BdYvnU48zh9DMkAGyAAZIANkgAyQgSAG1Dc4kwZVNF++79FzpKyvajIGBeana7dhkTv6g4ZMNVPmsE5myLDpvte1b99Dlq/aYfJfurw+MKBCvuhhl+POO/vIlu2njAFitDf+aNls8D15IANkgAyQATJABnLFgDPGRyuSK2FaIh+M9GjY6o2bj0pJ37G+Jibo3kUIe73xwJejO/5rhiZMWpKIKOe3mWpQ3vnxfbGs3bjfGCCYvLCAEPlRXv4QsR3IABkgA2SADJABMhA3BtQ3OJPmawPcfXc/MyUNU9Nq6k7IsBGzpOie/qGv9u27pxgkBAfAXkHIB2uBYHi6dR8mGB1aXF6bOIZ1RdgnKF/1CCrXwrJqY4Aa9p6TsGl+Qdfze/4IkwEyQAbIABkgA2SADIQx4Izx0YqEVbYtj5X0HSPVdceNcYF5ifLSjU3tcrdr11XmzF+fMDp++WCUCFPt7Ovi8h4GD2Gw9zY9JX1KxsSyDnHRmuXkHwcyQAbIABkgA2SgEBlQ3+BMmq+NmCsDpPXrWzpOlq3cLjX1J4yZwqgQ1hZhU9WOHYP3EtLr8zUtK681BgjhsBEWO1/LyXLxDwYZIANkgAyQATJABuLJgDPGRytCEOMFYocOPQTR3wYOniLYCLbp+BVjgOp2nJZOd4Xvi8S2jldbs73YXmSADJABMkAGyEA+MKC+wZk0H0RlGaI/3GPGLTSGB9Pe9LX30NPGEFHH6DpSK2pFBsgAGSADZIAMkIFoDDhjfLQibPhoDZ8vOtkGaM/Bi7Js5TYzIpQv5WM54sUT24vtRQbIABkgA2SADKRjQH2DM2m6CvM4HwoyQAbIABkgA2SADJABMlC4DDhjfLQihLlwYWbbs+3JABkgA2SADJABMkAG0jGgvsGZNF2FeZwPBRkgA2SADJABMkAGyAAZKFwGnDE+WhHCXLgws+3Z9mSADJABMkAGyAAZIAPpGFDf4EyarsI8zoeCDJABMkAGyAAZIANkgAwULgPOGB+tCGEuXJjZ9mx7MkAGyAAZIANkgAyQgXQMqG9wJk1XYR7nQ0EGyAAZIANkgAyQATJABgqXAWeMj1aEMBcuzGx7tj0ZIANkgAyQATJABshAOgbUNziTpqswj/OhIANkgAyQATJABsgAGSADhcuAM8ZHK0KYCxdmtj3bngyQATJABsgAGSADZCAdA+obnEnTVZjH+VCQATJABsgAGSADZIAMkIHCZcAZ46MVIcyFCzPbnm1PBsgAGSADZIAMkAEykI4B9Q3OpOkqzON8KMgAGSADZIAMkAEyQAbIQOEy4Izx0YoQ5sKFmW3PticDZIAMkAEyQAbIABlIx4D6BmfSdBXmcT4UZIAMkAEyQAbIABkgA2SgcBlwxvhoRQhz4cLMtmfbkwEyQAbIABkgA2SADKRjQH2DM2m6CvM4HwoyQAbIABkgA2SADJABMlC4DDhjfLQihLlwYWbbs+3JABkgA2SADJABMkAG0jGgvsGZNF2FeZwPBRkgA2SADJABMkAGyAAZKFwGnDE+WhHCXLgws+3Z9mSADJABMkAGyAAZIAPpGFDf4EyarsI8zoeCDJABMkAGyAAZIANkgAwULgPOGB+tCGEuXJjZ9mx7MkAGyAAZIANkgAyQgXQMqG9wJk1XYR7nQ0EGyAAZIANkgAyQATJABgqXAWeMj1aEMBcuzGx7tj0ZIANkgAyQATJABshAOgbUNziTpqswj/OhIANkgAyQATJABsgAGSADhcuAM8ZHK0KYCxdmtj3bngyQATJABsgAGSADZCAdA+obnEnTVZjH+VCQATJABsgAGSADZIAMkIHCZcAZ46MVIcyFCzPbnm1PBsgAGSADZIAMkAEykI4B9Q3OpOkqzON8KMgAGSADZIAMkAEyQAbIQOEy4Izx0YoQ5sKFmW3PticDZIAMkAEyQAbIABlIx4D6BmfSdBXmcT4UZIAMkAEyQAbIABkgA2SgcBlwxvhoRQhz4cLMtmfbkwEyQAbIABkgA2SADKRjQH2DM2m6CvM4HwoyQAbIABkgA2SADJABMlC4DDhjfLQihLlwYWbbs+3JABkgA2SADJABMkAG0jGgvsGZNF2FeZwPBRkgA2SADJABMkAGyAAZKFwGnDE+WpH/+I/O/49AFy7QbHu2PRkgA2SADJABMkAGyEAQA/AK6hucSb/ylc4/Daowv+fDQAbIABkgA2SADJABMkAGCpcBeAVnjI9W5Lbb7j1BqAsXarY9254MkAEyQAbIABkgA2QgmIF7T6hvcCb9ylfuLQmuMGGgNmSADJABMkAGyAAZIANkoFAZgFdwxvjYFeEoEB/qQn2oWW+yTwbIABkgA2SADJCBIAYcHP1JNkGdX2DjBzU+vycbZIAMkAEyQAbIABkgAwXFwAu2V3D2PUeCCgpq4Y8Y25sMkAEyQAbIABkgA2QglQHHR368bu7mmqB7TyDiA0Nk84FIfSCoCTUhA2SADJABMkAGyIBLDKDPfzMyNDyAo2t+vKaHn6kAFaACVIAKUAEqQAWoABWgAlSAClABKkAFqAAVoAJUgApQASpABagAFaACVIAKUAEqQAWoABWgAlSAClABKkAFqAAVoAJUgApQASpABagAFaACVIAKUAEqQAWoABWgAlSAClABKkAFqAAVoAJUgApQASpABagAFaACVIAKUAEqQAWoABWgAlSAClABKkAFqAAVoAJUgApQASpABagAFaACVIAKUAEqQAWoABWgAlSAClABKkAFqAAVoAJUgApQASpABagAFaACVIAKUAEqQAWoABWgAlSAClABKkAFqAAVoAJUgApQASpABagAFaACVIAKUAEqQAWoABWgAlSAClABKkAFqAAVoAJUgApQASpABagAFaACVIAKUAEqQAWoABWgAlSAClABKkAFqAAVoAJUgApQASpABagAFaACVIAKUAEqQAWoABWgAlSAClABKkAFqAAVoAJUgApQASpABagAFaACVIAKUAEqQAWoABWgAlSAClABKkAFqAAVoAJUgApQASpABagAFaACVIAKUAEqQAWoABWgAlSAClABKkAFqAAVoAJUgApQASpABagAFaACVIAKUAEqQAWoABWgAlSAClABKkAFqAAVoAJUgApQASpABagAFaACVIAKUAEqQAWoABWgAlSAClABKkAFqAAVoAJUgApQASpABagAFaACVIAKUAEqQAWoABWgAlSAClABKkAFqAAVoAJUgApQAY8C/x+GHNld7O4QwQAAAABJRU5ErkJggg==;" vertex="1" parent="1">
          <mxGeometry x="400" width="422" height="448.38" as="geometry" />
        </mxCell>
        <mxCell id="Q8e_VFXuct5rdpdRZlVz-2" value="Начало" style="rounded=1;whiteSpace=wrap;html=1;arcSize=50;container=0;strokeWidth=2;fontFamily=JetBrains Mono;fontSize=10;" vertex="1" parent="1">
          <mxGeometry x="20" y="20" width="200" height="30" as="geometry" />
        </mxCell>
        <mxCell id="Q8e_VFXuct5rdpdRZlVz-3" value="Конец" style="rounded=1;whiteSpace=wrap;html=1;arcSize=50;container=0;strokeWidth=2;fontFamily=JetBrains Mono;fontSize=10;" vertex="1" parent="1">
          <mxGeometry x="30" y="620" width="200" height="30" as="geometry" />
        </mxCell>
      </root>
    </mxGraphModel>
  </diagram>
</mxfile>
